<svg xmlns="http://www.w3.org/2000/svg" xmlns:xlink="http://www.w3.org/1999/xlink" width="1024" zoomAndPan="magnify" viewBox="0 0 768 767.999994" height="1024" preserveAspectRatio="xMidYMid meet" version="1.0"><defs><clipPath id="id1"><path d="M 133.324219 187 L 634.839844 187 L 634.839844 691.050781 L 133.324219 691.050781 Z M 133.324219 187 " clip-rule="nonzero"/></clipPath><clipPath id="id2"><path d="M 337 76.800781 L 408 76.800781 L 408 183 L 337 183 Z M 337 76.800781 " clip-rule="nonzero"/></clipPath></defs><path fill="#86aadf" d="M 254.5 433.578125 C 247.492188 428.453125 220.964844 433.070312 211.800781 433.078125 C 204.878906 433.089844 188.054688 430.125 183.03125 435.972656 C 177.671875 442.203125 180.359375 478.835938 180.167969 487.429688 C 179.710938 508.09375 176.628906 513.667969 196.75 513.964844 C 211.925781 514.183594 227.113281 514.136719 242.289062 513.878906 C 253.1875 513.695312 259.042969 515.609375 259.511719 502.300781 C 259.867188 492.425781 257.757812 482.46875 257.765625 472.570312 C 257.769531 462.144531 262.710938 439.585938 254.5 433.578125 Z M 514.808594 476.144531 C 514.839844 488.160156 509.902344 486.945312 499.242188 486.734375 C 487.144531 486.492188 475.019531 486.609375 462.910156 486.664062 C 437.300781 486.777344 411.683594 487.152344 386.089844 488.070312 C 361.496094 488.949219 336.941406 490.535156 312.371094 491.796875 C 305.972656 492.125 283.535156 496.894531 278.214844 492.632812 C 273.085938 488.523438 274.257812 474.09375 273.859375 467.519531 C 273.035156 453.738281 274.085938 455.121094 289.078125 453.542969 C 300.128906 452.378906 311.28125 452.222656 322.382812 451.917969 C 346.839844 451.246094 371.292969 450.480469 395.765625 450.285156 C 422.636719 450.0625 449.515625 450.234375 476.382812 450.785156 C 483.296875 450.929688 507.132812 448.101562 511.882812 452.351562 C 517.4375 457.332031 514.789062 468.878906 514.808594 476.144531 " fill-opacity="1" fill-rule="nonzero"/><g clip-path="url(#id1)"><path fill="#7fb496" d="M 385.945312 433.972656 C 377.207031 439.800781 362.984375 436.070312 360.644531 425.113281 C 359.460938 419.585938 361.921875 412.914062 366.296875 409.195312 C 370.195312 403.914062 381.136719 405.011719 385.664062 409.054688 C 392.511719 415.171875 394.375 428.347656 385.945312 433.972656 Z M 634.648438 648.289062 C 633.5625 619.894531 634.578125 610.046875 604.511719 610.332031 C 578.976562 610.582031 553.433594 610.96875 527.894531 611.160156 C 523.355469 611.191406 518.816406 611.222656 514.277344 611.253906 C 514.273438 607.785156 514.207031 604.304688 514.09375 600.839844 C 513.730469 589.074219 512.789062 577.332031 511.28125 565.660156 C 510.277344 557.878906 510.824219 545.242188 503.902344 539.925781 C 500.769531 537.527344 496.75 537.601562 492.980469 537.464844 C 486.738281 537.234375 480.496094 537.09375 474.253906 536.980469 C 459.71875 536.707031 445.191406 536.714844 430.664062 536.9375 C 431.199219 536.335938 431.515625 535.5 431.453125 534.417969 C 430.867188 523.675781 430.332031 512.949219 429.777344 502.222656 C 432.734375 502.054688 435.6875 501.894531 438.644531 501.71875 C 447.269531 501.195312 466.351562 503.273438 474.289062 499.246094 C 488.894531 491.851562 480.050781 457.328125 478.105469 443.402344 C 477.433594 438.59375 452.902344 437.816406 425.757812 438.40625 C 424.75 423.855469 423.742188 409.304688 422.738281 394.75 C 422.554688 392.175781 420.695312 389.996094 417.964844 389.984375 C 410.90625 389.960938 403.847656 389.9375 396.792969 389.914062 C 396.746094 350.753906 395.746094 306.21875 394.363281 264.875 C 394.253906 261.660156 394.941406 254.121094 394.824219 247.507812 C 401.820312 246.726562 401.175781 242.992188 401.082031 231.835938 C 400.976562 218.957031 400.839844 206.070312 400.578125 193.191406 C 400.421875 185.503906 348.273438 185.867188 341.773438 189.710938 C 334.222656 194.183594 342.019531 225.449219 342.769531 236.054688 C 343.460938 245.828125 346.097656 247.046875 353.371094 247.296875 C 350.988281 284.101562 353.285156 321.464844 354.191406 358.292969 C 354.414062 367.257812 354.289062 376.304688 354.832031 385.25 C 354.933594 386.972656 355.003906 388.449219 355.082031 389.765625 C 353.386719 389.761719 351.691406 389.753906 349.996094 389.746094 C 343.679688 389.726562 331.035156 387.0625 328.847656 395.550781 C 327.816406 399.5625 328.699219 404.402344 328.765625 408.519531 C 328.867188 414.40625 328.96875 420.289062 329.070312 426.179688 C 329.171875 431.875 329.273438 437.574219 329.371094 443.277344 C 326.921875 443.453125 324.480469 443.640625 322.03125 443.847656 C 316.664062 444.292969 302.484375 443.304688 298.597656 445.492188 C 290.109375 450.277344 294.632812 478.058594 294.945312 488.734375 C 295.269531 499.898438 293.679688 502.648438 303.710938 505.519531 C 311.5 507.75 321.742188 507.019531 330.847656 506.429688 C 331.011719 512.476562 331.179688 518.527344 331.339844 524.574219 C 331.5 530.308594 331.445312 536.3125 331.734375 542.265625 C 330.59375 542.371094 329.445312 542.460938 328.296875 542.570312 C 314.84375 543.855469 301.40625 545.324219 288.015625 547.125 C 281.648438 547.976562 275.285156 548.847656 268.941406 549.832031 C 264.804688 550.472656 257.449219 550.242188 254.144531 553.300781 C 251.027344 556.183594 252.078125 561.21875 252.296875 564.894531 C 252.6875 571.664062 253.15625 578.4375 253.699219 585.199219 C 254.445312 594.566406 255.316406 603.90625 256.492188 613.21875 C 241.828125 613.34375 227.164062 613.46875 212.5 613.601562 C 192.371094 613.785156 169.789062 610.183594 150.023438 613.8125 C 132.617188 617.003906 133.835938 633.320312 133.414062 650.253906 C 132.9375 669.484375 133.53125 685.324219 154.570312 689.289062 C 175.351562 693.210938 200.042969 689.386719 221.117188 689.21875 C 273.378906 688.808594 325.636719 688.289062 377.898438 687.863281 C 429.523438 687.441406 481.148438 687.007812 532.769531 686.5 C 556.164062 686.269531 579.566406 686.257812 602.957031 685.945312 C 633.015625 685.535156 635.757812 677.316406 634.648438 648.289062 " fill-opacity="1" fill-rule="nonzero"/></g><g clip-path="url(#id2)"><path fill="#f6b737" d="M 406.984375 137.015625 C 406.910156 139.90625 406.851562 142.1875 406.867188 143.195312 C 407.050781 152.871094 402.800781 162.851562 395.207031 170.578125 C 387.515625 178.40625 377.542969 182.898438 367.839844 182.898438 C 367.839844 182.898438 367.839844 182.898438 367.835938 182.898438 C 359.949219 182.898438 352.589844 179.886719 346.558594 174.203125 C 333.78125 162.160156 336.464844 144.886719 340.234375 131.175781 C 340.871094 128.851562 341.4375 125.945312 342.042969 122.859375 C 343.839844 113.664062 345.394531 105.726562 349.558594 105.726562 C 351.03125 105.726562 352.484375 106.773438 354.035156 109.023438 C 353.648438 106.191406 353.214844 103.375 352.78125 100.617188 C 352.054688 95.949219 351.300781 91.121094 350.847656 86.335938 C 350.386719 81.449219 350.660156 79.050781 351.820312 77.769531 C 352.222656 77.328125 352.953125 76.800781 354.140625 76.800781 C 355.972656 76.800781 358.414062 78.042969 362.285156 80.335938 C 375.238281 88.011719 384.984375 102.292969 388.3125 118.179688 C 388.742188 117.320312 389.195312 116.378906 389.65625 115.417969 C 392.910156 108.660156 396.945312 100.25 402.265625 100.25 C 402.964844 100.25 403.648438 100.402344 404.328125 100.679688 C 407.007812 101.8125 407.648438 110.640625 406.984375 137.015625 " fill-opacity="1" fill-rule="nonzero"/></g><path fill="#ffffff" d="M 345.339844 489.164062 C 345.039062 487.511719 342.335938 487.53125 342.023438 489.164062 C 340.722656 495.925781 340.960938 502.988281 341.191406 509.851562 C 341.394531 516.128906 341.328125 522.375 344.1875 528.070312 C 344.628906 528.960938 345.929688 528.664062 346.191406 527.8125 C 348.152344 521.539062 347.105469 515.058594 346.777344 508.585938 C 346.457031 502.117188 346.5 495.546875 345.339844 489.164062 Z M 347.648438 432.710938 C 347.027344 423.28125 346.910156 412.347656 343.449219 403.453125 C 343.019531 402.351562 341.078125 401.988281 340.828125 403.453125 C 339.210938 412.875 340.730469 423.1875 341.058594 432.710938 C 341.238281 437.742188 341.339844 442.78125 341.386719 447.820312 C 341.425781 452.285156 340.699219 456.449219 343.128906 460.289062 C 344.035156 461.722656 346.09375 461.746094 346.996094 460.289062 C 349.230469 456.671875 348.621094 453.292969 348.488281 449.078125 C 348.320312 443.621094 348.007812 438.160156 347.648438 432.710938 Z M 175.195312 674.828125 C 171.308594 674.53125 165.316406 676.136719 161.789062 674.246094 C 157.332031 671.863281 158.304688 661.660156 158.113281 657.46875 C 157.667969 647.734375 158.730469 637.949219 158.109375 628.253906 C 157.976562 626.09375 154.910156 625.542969 154.261719 627.730469 C 152.136719 634.9375 151.820312 642.6875 151.539062 650.148438 C 151.265625 657.40625 150.679688 665.425781 152.101562 672.585938 C 154.210938 683.242188 169.683594 685.46875 176.546875 678.101562 C 177.734375 676.832031 176.839844 674.960938 175.195312 674.828125 Z M 295.617188 557.238281 C 289.707031 555.726562 283.40625 556.660156 277.433594 557.519531 C 273.570312 558.070312 270.171875 559.25 268.941406 563.289062 C 267.292969 568.746094 269.101562 576.308594 269.695312 581.847656 C 270.425781 588.632812 271.011719 595.523438 273.085938 602.054688 C 273.765625 604.175781 276.753906 603.722656 276.894531 601.542969 C 277.53125 591.765625 276.1875 581.742188 275.726562 571.972656 C 275.609375 569.457031 274.59375 566.214844 277.308594 564.566406 C 279.113281 563.46875 283.269531 563.785156 285.296875 563.484375 C 289.148438 562.90625 292.566406 562.183594 296.019531 560.339844 C 297.3125 559.652344 297.003906 557.59375 295.617188 557.238281 Z M 355.476562 234.542969 C 355.0625 235.660156 353.59375 235.949219 352.921875 234.878906 C 350.035156 230.277344 350.597656 223.847656 350.097656 218.546875 C 349.457031 211.84375 348.445312 204.847656 348.925781 198.121094 C 349.039062 196.46875 351.386719 196.042969 351.863281 197.722656 C 353.542969 203.636719 353.976562 210.050781 354.683594 216.144531 C 355.335938 221.78125 357.480469 229.121094 355.476562 234.542969 " fill-opacity="1" fill-rule="nonzero"/><path fill="#2e2e30" d="M 366.007812 165.785156 C 366.101562 164.144531 360.65625 157.484375 359.96875 154.597656 C 358.730469 149.410156 360.636719 142.089844 361 136.832031 C 369.703125 157.179688 369.574219 118.507812 369.082031 112.492188 C 375.601562 122.609375 375.78125 132.90625 380.277344 143.003906 C 383.820312 150.96875 387.21875 146.28125 393.6875 139.613281 C 393.746094 146.257812 392.125 152.96875 387.183594 157.714844 C 384.070312 160.707031 371.941406 166.757812 384.21875 165.582031 C 397.113281 164.351562 399.09375 143.128906 398.074219 133.816406 C 397.339844 127.117188 386.164062 140.441406 384.761719 141.59375 C 384.363281 135.652344 376.054688 104.335938 367.785156 102.84375 C 361.015625 101.613281 365.0625 128.132812 364.332031 134.753906 C 356.105469 116.480469 355.964844 135.234375 355.59375 146.214844 C 355.441406 150.8125 353.914062 157.238281 356.683594 161.417969 C 357.070312 162 365.703125 171.242188 366.007812 165.785156 Z M 349.917969 249.140625 C 358.003906 250.40625 366.476562 249.730469 374.625 249.511719 C 382.519531 249.296875 391.855469 250.359375 399.367188 247.6875 C 401.003906 247.105469 401.175781 244.703125 399.367188 244.183594 C 391.707031 242.003906 382.5 243.644531 374.625 243.949219 C 366.464844 244.261719 357.914062 244.101562 349.917969 245.90625 C 348.378906 246.257812 348.261719 248.882812 349.917969 249.140625 Z M 380.625 385.800781 C 371.679688 385.925781 362.621094 385.832031 353.789062 387.375 C 352.734375 387.558594 352.714844 389.363281 353.789062 389.53125 C 362.640625 390.898438 371.691406 390.636719 380.625 390.59375 C 389.167969 390.546875 399.394531 391.9375 407.613281 389.578125 C 409.207031 389.121094 409.25 386.742188 407.613281 386.304688 C 399.375 384.113281 389.125 385.6875 380.625 385.800781 Z M 338.9375 542.09375 C 345.949219 543.371094 353.40625 542.90625 360.515625 542.882812 C 368.394531 542.847656 376.277344 542.847656 384.152344 542.734375 C 391.617188 542.628906 399.078125 542.515625 406.546875 542.40625 C 414.15625 542.296875 421.945312 542.664062 429.328125 540.558594 C 430.703125 540.164062 430.765625 538.074219 429.328125 537.707031 C 422.28125 535.933594 414.996094 536.421875 407.789062 536.542969 C 399.910156 536.671875 392.03125 536.800781 384.152344 536.9375 C 376.6875 537.054688 369.222656 537.285156 361.761719 537.492188 C 354.246094 537.703125 346.304688 537.390625 338.9375 538.976562 C 337.421875 539.300781 337.367188 541.804688 338.9375 542.09375 Z M 502.839844 608.054688 C 494.671875 605.402344 484.003906 607.074219 475.480469 607.234375 C 465.679688 607.421875 455.882812 607.601562 446.089844 607.769531 C 426.488281 608.113281 406.894531 608.46875 387.296875 608.753906 C 367.699219 609.042969 348.105469 609.28125 328.503906 609.484375 C 308.992188 609.6875 289.113281 608.984375 269.710938 611.203125 C 267.996094 611.394531 267.988281 613.6875 269.710938 613.875 C 289.121094 615.992188 309.007812 615.113281 328.503906 615.050781 C 348.105469 614.984375 367.699219 614.875 387.296875 614.726562 C 406.890625 614.570312 426.488281 614.402344 446.089844 614.132812 C 455.457031 614.003906 464.828125 613.867188 474.203125 613.710938 C 483.085938 613.566406 494.445312 614.953125 502.839844 611.863281 C 504.65625 611.199219 504.769531 608.683594 502.839844 608.054688 Z M 481.742188 492.933594 C 484.933594 487.304688 484.164062 479.300781 484.359375 472.992188 C 484.578125 465.707031 484.894531 457.964844 483.300781 450.816406 C 483.09375 449.898438 481.523438 449.832031 481.371094 450.816406 C 480.308594 457.6875 480.609375 464.832031 480.285156 471.777344 C 479.984375 478.316406 477.847656 486.394531 479.839844 492.691406 C 480.101562 493.519531 481.285156 493.738281 481.742188 492.933594 Z M 425.65625 493.746094 C 425.609375 499.285156 424.84375 505.105469 426.140625 510.519531 C 426.488281 511.96875 428.601562 511.882812 428.988281 510.519531 C 430.636719 504.808594 429.976562 498.394531 430.019531 492.488281 C 430.066406 486.605469 430.074219 480.726562 429.988281 474.84375 C 429.808594 463.125 430.226562 450.804688 428.050781 439.265625 C 427.792969 437.886719 425.90625 438.378906 425.777344 439.570312 C 424.523438 451.554688 425.652344 464.066406 425.675781 476.105469 C 425.691406 481.984375 425.710938 487.867188 425.65625 493.746094 Z M 326.914062 494.367188 C 326.933594 499.914062 326.242188 505.773438 328.402344 510.984375 C 328.75 511.8125 329.75 511.8125 330.097656 510.984375 C 332.125 506.109375 331.5625 500.820312 331.585938 495.628906 C 331.613281 489.328125 331.550781 483.019531 331.507812 476.71875 C 331.433594 465.621094 332.492188 453.355469 330.074219 442.464844 C 329.890625 441.667969 328.632812 441.667969 328.457031 442.464844 C 326.027344 453.363281 327.082031 465.617188 327.003906 476.71875 C 326.960938 482.601562 326.890625 488.480469 326.914062 494.367188 Z M 253.601562 496.199219 C 248.679688 494.203125 242.839844 495.527344 237.679688 495.742188 C 231.679688 495.996094 225.683594 496.195312 219.683594 496.328125 C 213.679688 496.46875 207.675781 496.539062 201.675781 496.554688 C 196.441406 496.5625 190.765625 495.824219 185.699219 497.46875 C 184.882812 497.734375 184.921875 498.996094 185.699219 499.277344 C 190.71875 501.09375 196.453125 500.480469 201.675781 500.488281 C 208.050781 500.5 214.433594 500.441406 220.804688 500.3125 C 226.808594 500.1875 232.804688 499.988281 238.808594 499.730469 C 243.761719 499.515625 249.238281 500.09375 253.769531 497.625 C 254.355469 497.300781 254.121094 496.410156 253.601562 496.199219 Z M 236.464844 479.828125 C 230.882812 480.027344 225.300781 480.164062 219.71875 480.257812 C 214.136719 480.34375 208.554688 480.367188 202.972656 480.371094 C 197.753906 480.371094 192.25 479.816406 187.140625 481.164062 C 186.390625 481.359375 186.429688 482.597656 187.140625 482.820312 C 197.144531 485.894531 209.410156 484.097656 219.71875 483.972656 C 225.300781 483.902344 230.882812 483.785156 236.464844 483.609375 C 241.75 483.453125 247.253906 483.933594 252.226562 481.671875 C 252.71875 481.453125 252.785156 480.675781 252.226562 480.480469 C 247.144531 478.710938 241.71875 479.648438 236.464844 479.828125 Z M 219.425781 465.589844 C 225.453125 465.574219 231.476562 465.546875 237.5 465.519531 C 242.726562 465.492188 248.59375 466.445312 253.484375 464.132812 C 254.105469 463.84375 254.113281 463 253.484375 462.710938 C 248.574219 460.457031 242.726562 461.46875 237.5 461.503906 C 231.476562 461.546875 225.453125 461.585938 219.425781 461.632812 C 208.339844 461.722656 196.160156 460.261719 185.25 462.613281 C 184.203125 462.835938 184.1875 464.78125 185.25 464.996094 C 196.175781 467.226562 208.339844 465.628906 219.425781 465.589844 Z M 253.746094 446.449219 C 249.515625 444.210938 244.410156 445.140625 239.796875 445.140625 C 233.824219 445.144531 227.851562 445.230469 221.875 445.234375 C 209.957031 445.25 197.925781 444.804688 186.03125 445.609375 C 184.625 445.707031 184.632812 447.925781 186.03125 448.042969 C 197.914062 449.054688 209.957031 448.824219 221.875 449.046875 C 227.851562 449.160156 233.824219 449.347656 239.796875 449.457031 C 244.410156 449.539062 249.480469 450.542969 253.746094 448.382812 C 254.40625 448.046875 254.390625 446.792969 253.746094 446.449219 Z M 277.835938 467.921875 C 281.246094 468.941406 285 468.5625 288.523438 468.519531 C 289.667969 468.503906 290.832031 468.523438 292 468.527344 C 292.085938 471.085938 292.210938 473.632812 292.261719 476.109375 C 292.269531 476.625 292.269531 477.152344 292.265625 477.683594 C 292.15625 477.6875 292.054688 477.695312 291.941406 477.695312 C 287.789062 477.804688 283.175781 477.472656 279.390625 479.355469 C 278.410156 479.839844 278.820312 481.144531 279.667969 481.472656 C 283.484375 482.929688 288.050781 482.328125 292.144531 482.257812 C 292 487.238281 291.980469 492.445312 293.980469 496.621094 C 294.367188 497.4375 295.414062 497.058594 295.691406 496.394531 C 298.28125 490.175781 296.496094 481.496094 296.285156 474.859375 C 296.058594 467.816406 296.472656 460.160156 294.484375 453.359375 C 294.273438 452.644531 293.164062 452.589844 292.980469 453.359375 C 292.097656 457.035156 291.890625 460.90625 291.914062 464.800781 C 290.78125 464.847656 289.644531 464.914062 288.523438 464.945312 C 284.996094 465.039062 281.203125 464.804688 277.835938 465.960938 C 276.898438 466.28125 276.839844 467.625 277.835938 467.921875 Z M 258.800781 487.808594 C 258.3125 482.726562 257.765625 477.640625 257.765625 472.570312 C 257.765625 469.371094 258.230469 465.03125 258.636719 460.378906 C 263.550781 460.097656 268.960938 460.15625 273.714844 460.441406 C 273.589844 462.199219 273.683594 464.492188 273.859375 467.519531 C 274.171875 472.636719 273.542969 482.492188 275.660156 488.554688 C 270.941406 488.703125 264.515625 488.363281 258.800781 487.808594 " fill-opacity="1" fill-rule="nonzero"/></svg>