<svg xmlns="http://www.w3.org/2000/svg" xmlns:xlink="http://www.w3.org/1999/xlink" width="1024" zoomAndPan="magnify" viewBox="0 0 768 767.999994" height="1024" preserveAspectRatio="xMidYMid meet" version="1.0"><defs><clipPath id="id1"><path d="M 158.59375 76.800781 L 609.34375 76.800781 L 609.34375 691.050781 L 158.59375 691.050781 Z M 158.59375 76.800781 " clip-rule="nonzero"/></clipPath></defs><path fill="#03ad3e" d="M 558.023438 87.039062 L 209.914062 87.039062 C 208.570312 87.039062 207.234375 87.101562 205.898438 87.234375 C 204.5625 87.367188 203.238281 87.5625 201.921875 87.824219 C 200.605469 88.085938 199.308594 88.410156 198.023438 88.800781 C 196.742188 89.191406 195.480469 89.640625 194.238281 90.15625 C 193 90.667969 191.789062 91.242188 190.605469 91.871094 C 189.421875 92.503906 188.273438 93.195312 187.160156 93.9375 C 186.042969 94.683594 184.96875 95.480469 183.929688 96.332031 C 182.894531 97.183594 181.902344 98.082031 180.953125 99.03125 C 180.003906 99.980469 179.105469 100.972656 178.253906 102.007812 C 177.402344 103.046875 176.605469 104.121094 175.859375 105.238281 C 175.113281 106.351562 174.425781 107.5 173.792969 108.683594 C 173.160156 109.867188 172.589844 111.078125 172.074219 112.316406 C 171.5625 113.554688 171.109375 114.816406 170.722656 116.101562 C 170.332031 117.382812 170.007812 118.683594 169.746094 120 C 169.484375 121.3125 169.285156 122.640625 169.15625 123.972656 C 169.023438 125.308594 168.957031 126.644531 168.957031 127.988281 L 168.957031 639.863281 C 168.957031 638.519531 169.023438 637.183594 169.15625 635.847656 C 169.285156 634.515625 169.484375 633.1875 169.746094 631.875 C 170.007812 630.558594 170.332031 629.257812 170.722656 627.976562 C 171.109375 626.691406 171.5625 625.429688 172.074219 624.191406 C 172.589844 622.953125 173.160156 621.742188 173.792969 620.558594 C 174.425781 619.375 175.113281 618.226562 175.859375 617.113281 C 176.605469 615.996094 177.402344 614.921875 178.253906 613.882812 C 179.105469 612.847656 180.003906 611.855469 180.953125 610.90625 C 181.902344 609.957031 182.894531 609.058594 183.929688 608.207031 C 184.96875 607.355469 186.042969 606.558594 187.160156 605.8125 C 188.273438 605.070312 189.421875 604.378906 190.605469 603.746094 C 191.789062 603.117188 193 602.542969 194.238281 602.03125 C 195.480469 601.515625 196.742188 601.066406 198.023438 600.675781 C 199.308594 600.285156 200.605469 599.960938 201.921875 599.699219 C 203.238281 599.4375 204.5625 599.242188 205.898438 599.109375 C 207.234375 598.976562 208.570312 598.914062 209.914062 598.914062 L 558.023438 598.914062 C 559.363281 598.914062 560.699219 598.847656 562.035156 598.714844 C 563.371094 598.582031 564.695312 598.386719 566.011719 598.125 C 567.328125 597.863281 568.625 597.539062 569.910156 597.148438 C 571.195312 596.761719 572.453125 596.308594 573.695312 595.796875 C 574.933594 595.28125 576.144531 594.710938 577.328125 594.078125 C 578.511719 593.445312 579.660156 592.757812 580.773438 592.011719 C 581.890625 591.265625 582.964844 590.46875 584.003906 589.617188 C 585.039062 588.765625 586.03125 587.867188 586.980469 586.917969 C 587.929688 585.96875 588.828125 584.976562 589.679688 583.941406 C 590.53125 582.902344 591.328125 581.828125 592.074219 580.714844 C 592.820312 579.597656 593.507812 578.449219 594.140625 577.265625 C 594.773438 576.082031 595.34375 574.871094 595.859375 573.632812 C 596.371094 572.394531 596.824219 571.132812 597.210938 569.851562 C 597.601562 568.566406 597.925781 567.265625 598.1875 565.953125 C 598.449219 564.636719 598.648438 563.3125 598.777344 561.976562 C 598.910156 560.640625 598.976562 559.304688 598.976562 557.960938 L 598.976562 127.988281 C 598.976562 126.644531 598.910156 125.308594 598.777344 123.972656 C 598.648438 122.640625 598.449219 121.3125 598.1875 120 C 597.925781 118.683594 597.601562 117.382812 597.210938 116.101562 C 596.824219 114.816406 596.371094 113.554688 595.859375 112.316406 C 595.34375 111.078125 594.773438 109.867188 594.140625 108.683594 C 593.507812 107.5 592.820312 106.351562 592.074219 105.238281 C 591.328125 104.121094 590.53125 103.046875 589.679688 102.007812 C 588.828125 100.972656 587.929688 99.980469 586.980469 99.03125 C 586.03125 98.082031 585.039062 97.183594 584.003906 96.332031 C 582.964844 95.480469 581.890625 94.683594 580.773438 93.9375 C 579.660156 93.195312 578.511719 92.503906 577.328125 91.871094 C 576.144531 91.242188 574.933594 90.667969 573.695312 90.15625 C 572.453125 89.640625 571.195312 89.191406 569.910156 88.800781 C 568.625 88.410156 567.328125 88.085938 566.011719 87.824219 C 564.695312 87.5625 563.371094 87.367188 562.035156 87.234375 C 560.699219 87.101562 559.363281 87.039062 558.023438 87.039062 Z M 558.023438 87.039062 " fill-opacity="1" fill-rule="nonzero"/><path fill="#02822f" d="M 209.914062 87.039062 L 209.914062 598.914062 C 208.570312 598.914062 207.234375 598.976562 205.898438 599.109375 C 204.5625 599.242188 203.238281 599.4375 201.921875 599.699219 C 200.605469 599.960938 199.308594 600.285156 198.023438 600.675781 C 196.742188 601.066406 195.480469 601.515625 194.238281 602.03125 C 193 602.542969 191.789062 603.117188 190.605469 603.746094 C 189.421875 604.378906 188.273438 605.070312 187.160156 605.8125 C 186.042969 606.558594 184.96875 607.355469 183.929688 608.207031 C 182.894531 609.058594 181.902344 609.957031 180.953125 610.90625 C 180.003906 611.855469 179.105469 612.847656 178.253906 613.882812 C 177.402344 614.921875 176.605469 615.996094 175.859375 617.113281 C 175.113281 618.226562 174.425781 619.375 173.792969 620.558594 C 173.160156 621.742188 172.589844 622.953125 172.074219 624.191406 C 171.5625 625.429688 171.109375 626.691406 170.722656 627.976562 C 170.332031 629.257812 170.007812 630.558594 169.746094 631.875 C 169.484375 633.1875 169.285156 634.515625 169.15625 635.847656 C 169.023438 637.183594 168.957031 638.519531 168.957031 639.863281 L 168.957031 127.988281 C 168.957031 126.644531 169.023438 125.308594 169.15625 123.972656 C 169.285156 122.640625 169.484375 121.3125 169.746094 120 C 170.007812 118.683594 170.332031 117.382812 170.722656 116.101562 C 171.109375 114.816406 171.5625 113.554688 172.074219 112.316406 C 172.589844 111.078125 173.160156 109.867188 173.792969 108.683594 C 174.425781 107.5 175.113281 106.351562 175.859375 105.238281 C 176.605469 104.121094 177.402344 103.046875 178.253906 102.007812 C 179.105469 100.972656 180.003906 99.980469 180.953125 99.03125 C 181.902344 98.082031 182.894531 97.183594 183.929688 96.332031 C 184.96875 95.480469 186.042969 94.683594 187.160156 93.9375 C 188.273438 93.195312 189.421875 92.503906 190.605469 91.871094 C 191.789062 91.242188 193 90.667969 194.238281 90.15625 C 195.480469 89.640625 196.742188 89.191406 198.023438 88.800781 C 199.308594 88.410156 200.605469 88.085938 201.921875 87.824219 C 203.238281 87.5625 204.5625 87.367188 205.898438 87.234375 C 207.234375 87.101562 208.570312 87.039062 209.914062 87.039062 Z M 209.914062 87.039062 " fill-opacity="1" fill-rule="nonzero"/><path fill="#02822f" d="M 272.199219 522.746094 C 256.84375 494.59375 255.984375 456.675781 255.984375 456.675781 C 255.984375 456.675781 293.867188 457.546875 322.074219 472.890625 C 345.507812 485.6875 349.554688 502.15625 347.761719 515.488281 C 347.617188 516.519531 347.429688 517.542969 347.203125 518.558594 C 346.976562 519.578125 346.707031 520.582031 346.398438 521.574219 C 346.089844 522.570312 345.742188 523.550781 345.351562 524.515625 C 344.964844 525.484375 344.539062 526.433594 344.074219 527.363281 C 343.609375 528.296875 343.109375 529.207031 342.570312 530.097656 C 342.035156 530.992188 341.460938 531.859375 340.851562 532.703125 C 340.246094 533.550781 339.605469 534.367188 338.929688 535.164062 C 338.253906 535.957031 337.550781 536.722656 336.816406 537.457031 C 336.078125 538.195312 335.3125 538.898438 334.523438 539.574219 C 333.730469 540.25 332.910156 540.890625 332.066406 541.5 C 331.222656 542.109375 330.351562 542.683594 329.460938 543.222656 C 328.570312 543.761719 327.660156 544.265625 326.726562 544.730469 C 325.796875 545.195312 324.847656 545.621094 323.882812 546.011719 C 322.917969 546.398438 321.9375 546.75 320.941406 547.058594 C 319.949219 547.367188 318.941406 547.636719 317.925781 547.867188 C 316.910156 548.09375 315.886719 548.28125 314.855469 548.429688 C 301.46875 550.285156 284.949219 546.175781 272.199219 522.746094 Z M 272.199219 522.746094 " fill-opacity="1" fill-rule="nonzero"/><path fill="#02822f" d="M 536.6875 522.746094 C 552.046875 494.59375 552.902344 456.675781 552.902344 456.675781 C 552.902344 456.675781 515.019531 457.546875 486.8125 472.890625 C 463.378906 485.6875 459.335938 502.15625 461.125 515.488281 C 461.273438 516.519531 461.457031 517.542969 461.6875 518.558594 C 461.914062 519.578125 462.179688 520.582031 462.488281 521.574219 C 462.796875 522.570312 463.148438 523.550781 463.535156 524.515625 C 463.921875 525.484375 464.347656 526.433594 464.8125 527.363281 C 465.277344 528.296875 465.777344 529.207031 466.316406 530.097656 C 466.855469 530.992188 467.425781 531.859375 468.035156 532.703125 C 468.644531 533.550781 469.285156 534.371094 469.957031 535.164062 C 470.632812 535.957031 471.335938 536.722656 472.074219 537.457031 C 472.808594 538.195312 473.574219 538.902344 474.367188 539.574219 C 475.160156 540.25 475.976562 540.890625 476.824219 541.5 C 477.667969 542.109375 478.535156 542.683594 479.425781 543.222656 C 480.316406 543.761719 481.226562 544.265625 482.160156 544.730469 C 483.089844 545.195312 484.039062 545.621094 485.003906 546.011719 C 485.972656 546.398438 486.953125 546.75 487.945312 547.058594 C 488.941406 547.367188 489.945312 547.636719 490.960938 547.867188 C 491.976562 548.09375 493 548.28125 494.03125 548.429688 C 507.417969 550.285156 523.941406 546.175781 536.6875 522.746094 Z M 536.6875 522.746094 " fill-opacity="1" fill-rule="nonzero"/><path fill="#4693f2" d="M 558.023438 291.789062 C 558.023438 294.300781 557.960938 296.8125 557.835938 299.324219 C 557.714844 301.832031 557.527344 304.339844 557.28125 306.839844 C 557.035156 309.339844 556.726562 311.832031 556.359375 314.320312 C 555.992188 316.804688 555.5625 319.28125 555.070312 321.746094 C 554.582031 324.210938 554.03125 326.664062 553.417969 329.101562 C 552.808594 331.539062 552.136719 333.960938 551.410156 336.363281 C 550.679688 338.769531 549.890625 341.15625 549.042969 343.519531 C 548.199219 345.886719 547.292969 348.230469 546.332031 350.554688 C 545.371094 352.875 544.351562 355.171875 543.277344 357.445312 C 542.203125 359.714844 541.070312 361.960938 539.886719 364.175781 C 538.703125 366.394531 537.464844 368.578125 536.171875 370.734375 C 534.878906 372.890625 533.535156 375.011719 532.140625 377.101562 C 530.742188 379.191406 529.296875 381.246094 527.796875 383.265625 C 526.300781 385.28125 524.753906 387.265625 523.160156 389.207031 C 521.566406 391.148438 519.925781 393.050781 518.238281 394.914062 C 516.550781 396.777344 514.816406 398.59375 513.039062 400.371094 C 511.261719 402.148438 509.441406 403.882812 507.582031 405.570312 C 505.71875 407.257812 503.816406 408.898438 501.871094 410.492188 C 499.929688 412.085938 497.949219 413.632812 495.929688 415.128906 C 493.910156 416.628906 491.855469 418.074219 489.765625 419.46875 C 487.675781 420.867188 485.554688 422.210938 483.398438 423.503906 C 481.242188 424.792969 479.054688 426.03125 476.839844 427.21875 C 474.625 428.402344 472.378906 429.53125 470.105469 430.605469 C 467.835938 431.679688 465.539062 432.699219 463.214844 433.660156 C 460.894531 434.621094 458.550781 435.527344 456.183594 436.375 C 453.816406 437.21875 451.429688 438.007812 449.023438 438.738281 C 446.621094 439.46875 444.199219 440.136719 441.761719 440.746094 C 439.320312 441.359375 436.871094 441.910156 434.40625 442.398438 C 431.941406 442.890625 429.464844 443.320312 426.976562 443.6875 C 424.492188 444.058594 422 444.363281 419.496094 444.609375 C 416.996094 444.855469 414.488281 445.042969 411.980469 445.164062 C 409.46875 445.289062 406.957031 445.351562 404.445312 445.351562 C 401.929688 445.351562 399.417969 445.289062 396.910156 445.164062 C 394.398438 445.042969 391.890625 444.855469 389.390625 444.609375 C 386.890625 444.363281 384.394531 444.058594 381.910156 443.6875 C 379.421875 443.320312 376.949219 442.890625 374.484375 442.398438 C 372.015625 441.910156 369.566406 441.359375 367.128906 440.746094 C 364.691406 440.136719 362.269531 439.46875 359.863281 438.738281 C 357.457031 438.007812 355.070312 437.21875 352.707031 436.375 C 350.339844 435.527344 347.996094 434.621094 345.671875 433.660156 C 343.351562 432.699219 341.054688 431.679688 338.78125 430.605469 C 336.507812 429.53125 334.265625 428.402344 332.046875 427.21875 C 329.832031 426.03125 327.644531 424.792969 325.488281 423.503906 C 323.332031 422.210938 321.210938 420.867188 319.121094 419.46875 C 317.03125 418.074219 314.976562 416.628906 312.957031 415.128906 C 310.9375 413.632812 308.957031 412.085938 307.015625 410.492188 C 305.074219 408.898438 303.167969 407.257812 301.308594 405.570312 C 299.445312 403.882812 297.625 402.148438 295.847656 400.371094 C 294.070312 398.59375 292.339844 396.777344 290.652344 394.914062 C 288.960938 393.050781 287.320312 391.148438 285.726562 389.207031 C 284.132812 387.265625 282.585938 385.28125 281.089844 383.265625 C 279.59375 381.246094 278.144531 379.191406 276.75 377.101562 C 275.351562 375.011719 274.007812 372.890625 272.714844 370.734375 C 271.425781 368.578125 270.183594 366.394531 269 364.175781 C 267.816406 361.960938 266.6875 359.714844 265.613281 357.445312 C 264.535156 355.171875 263.519531 352.875 262.558594 350.554688 C 261.59375 348.230469 260.691406 345.886719 259.84375 343.519531 C 258.996094 341.15625 258.207031 338.769531 257.480469 336.363281 C 256.75 333.960938 256.078125 331.539062 255.46875 329.101562 C 254.859375 326.664062 254.308594 324.210938 253.816406 321.746094 C 253.328125 319.28125 252.898438 316.804688 252.527344 314.320312 C 252.160156 311.832031 251.851562 309.339844 251.605469 306.839844 C 251.359375 304.339844 251.175781 301.832031 251.050781 299.324219 C 250.929688 296.8125 250.867188 294.300781 250.867188 291.789062 C 250.867188 289.273438 250.929688 286.761719 251.050781 284.253906 C 251.175781 281.742188 251.359375 279.238281 251.605469 276.734375 C 251.851562 274.234375 252.160156 271.742188 252.527344 269.253906 C 252.898438 266.769531 253.328125 264.292969 253.816406 261.828125 C 254.308594 259.363281 254.859375 256.914062 255.46875 254.476562 C 256.078125 252.035156 256.75 249.617188 257.480469 247.210938 C 258.207031 244.804688 258.996094 242.421875 259.84375 240.054688 C 260.691406 237.6875 261.59375 235.34375 262.558594 233.023438 C 263.519531 230.699219 264.535156 228.402344 265.613281 226.132812 C 266.6875 223.859375 267.816406 221.613281 269 219.398438 C 270.183594 217.183594 271.425781 214.996094 272.714844 212.839844 C 274.007812 210.683594 275.351562 208.5625 276.75 206.472656 C 278.144531 204.382812 279.59375 202.328125 281.089844 200.308594 C 282.585938 198.292969 284.132812 196.3125 285.726562 194.367188 C 287.320312 192.425781 288.960938 190.523438 290.652344 188.660156 C 292.339844 186.800781 294.070312 184.980469 295.847656 183.203125 C 297.625 181.425781 299.445312 179.691406 301.308594 178.003906 C 303.167969 176.316406 305.074219 174.675781 307.015625 173.082031 C 308.957031 171.488281 310.9375 169.941406 312.957031 168.445312 C 314.976562 166.949219 317.03125 165.5 319.121094 164.105469 C 321.210938 162.707031 323.332031 161.363281 325.488281 160.074219 C 327.644531 158.78125 329.832031 157.542969 332.046875 156.359375 C 334.265625 155.171875 336.507812 154.042969 338.78125 152.96875 C 341.054688 151.894531 343.351562 150.875 345.671875 149.914062 C 347.996094 148.953125 350.339844 148.046875 352.707031 147.203125 C 355.070312 146.355469 357.457031 145.566406 359.863281 144.835938 C 362.269531 144.109375 364.691406 143.4375 367.128906 142.828125 C 369.566406 142.214844 372.015625 141.664062 374.484375 141.175781 C 376.949219 140.683594 379.421875 140.253906 381.910156 139.886719 C 384.394531 139.519531 386.890625 139.210938 389.390625 138.964844 C 391.890625 138.71875 394.398438 138.535156 396.910156 138.410156 C 399.417969 138.285156 401.929688 138.226562 404.445312 138.226562 C 406.957031 138.226562 409.46875 138.285156 411.980469 138.410156 C 414.488281 138.535156 416.996094 138.71875 419.496094 138.964844 C 422 139.210938 424.492188 139.519531 426.976562 139.886719 C 429.464844 140.253906 431.941406 140.683594 434.40625 141.175781 C 436.871094 141.664062 439.320312 142.214844 441.761719 142.828125 C 444.199219 143.4375 446.621094 144.109375 449.023438 144.835938 C 451.429688 145.566406 453.816406 146.355469 456.183594 147.203125 C 458.550781 148.046875 460.894531 148.953125 463.214844 149.914062 C 465.539062 150.875 467.835938 151.894531 470.105469 152.96875 C 472.378906 154.042969 474.625 155.171875 476.839844 156.359375 C 479.054688 157.542969 481.242188 158.78125 483.398438 160.074219 C 485.554688 161.363281 487.675781 162.707031 489.765625 164.105469 C 491.855469 165.5 493.910156 166.949219 495.929688 168.445312 C 497.949219 169.941406 499.929688 171.488281 501.871094 173.082031 C 503.816406 174.675781 505.71875 176.316406 507.582031 178.003906 C 509.441406 179.691406 511.261719 181.425781 513.039062 183.203125 C 514.816406 184.980469 516.550781 186.800781 518.238281 188.660156 C 519.925781 190.523438 521.566406 192.425781 523.160156 194.367188 C 524.753906 196.3125 526.300781 198.292969 527.796875 200.308594 C 529.296875 202.328125 530.742188 204.382812 532.140625 206.472656 C 533.535156 208.5625 534.878906 210.683594 536.171875 212.839844 C 537.464844 214.996094 538.703125 217.183594 539.886719 219.398438 C 541.070312 221.613281 542.203125 223.859375 543.277344 226.132812 C 544.351562 228.402344 545.371094 230.699219 546.332031 233.023438 C 547.292969 235.34375 548.199219 237.6875 549.042969 240.054688 C 549.890625 242.421875 550.679688 244.804688 551.410156 247.210938 C 552.136719 249.617188 552.808594 252.035156 553.417969 254.476562 C 554.03125 256.914062 554.582031 259.363281 555.070312 261.828125 C 555.5625 264.292969 555.992188 266.769531 556.359375 269.253906 C 556.726562 271.742188 557.035156 274.234375 557.28125 276.734375 C 557.527344 279.238281 557.714844 281.742188 557.835938 284.253906 C 557.960938 286.761719 558.023438 289.273438 558.023438 291.789062 Z M 558.023438 291.789062 " fill-opacity="1" fill-rule="nonzero"/><path fill="#02822f" d="M 362.3125 303.597656 C 349.695312 303.597656 339.46875 314.183594 339.46875 327.222656 C 339.46875 340.261719 349.707031 350.84375 362.3125 350.84375 L 427.839844 350.84375 C 440.457031 350.84375 450.683594 361.429688 450.683594 374.480469 C 450.683594 387.535156 440.445312 398.105469 427.839844 398.105469 L 420.644531 398.105469 C 408.027344 398.105469 397.789062 408.675781 397.789062 421.726562 C 397.773438 423.042969 397.871094 424.351562 398.078125 425.648438 C 398.28125 426.949219 398.597656 428.222656 399.015625 429.46875 C 399.4375 430.714844 399.957031 431.917969 400.582031 433.074219 C 401.203125 434.234375 401.917969 435.332031 402.726562 436.371094 C 403.535156 437.410156 404.421875 438.375 405.394531 439.261719 C 406.363281 440.152344 407.398438 440.953125 408.503906 441.667969 C 409.609375 442.378906 410.765625 442.996094 411.976562 443.515625 C 413.183594 444.035156 414.429688 444.449219 415.707031 444.761719 C 420.398438 444.421875 425.066406 443.867188 429.707031 443.097656 C 434.347656 442.328125 438.945312 441.34375 443.496094 440.148438 C 448.046875 438.957031 452.53125 437.554688 456.953125 435.945312 C 461.375 434.335938 465.714844 432.527344 469.96875 430.519531 C 474.222656 428.511719 478.375 426.308594 482.425781 423.917969 C 486.480469 421.527344 490.410156 418.953125 494.226562 416.199219 C 498.039062 413.441406 501.71875 410.515625 505.261719 407.421875 C 508.804688 404.328125 512.199219 401.078125 515.441406 397.667969 C 514.117188 397.402344 512.824219 397.023438 511.5625 396.535156 C 510.300781 396.042969 509.09375 395.449219 507.9375 394.746094 C 506.777344 394.046875 505.691406 393.253906 504.671875 392.363281 C 503.652344 391.476562 502.71875 390.503906 501.867188 389.453125 C 501.015625 388.402344 500.261719 387.289062 499.601562 386.105469 C 498.945312 384.921875 498.394531 383.695312 497.949219 382.417969 C 497.507812 381.140625 497.175781 379.832031 496.957031 378.5 C 496.742188 377.164062 496.640625 375.820312 496.65625 374.46875 C 496.65625 361.414062 506.894531 350.832031 519.5 350.832031 L 546.15625 350.832031 C 552.433594 335.6875 556.171875 319.9375 557.367188 303.585938 Z M 362.3125 303.597656 " fill-opacity="1" fill-rule="nonzero"/><path fill="#02822f" d="M 418.625 209.09375 C 418.625 209.867188 418.589844 210.636719 418.515625 211.402344 C 418.441406 212.171875 418.328125 212.933594 418.179688 213.691406 C 418.03125 214.449219 417.84375 215.199219 417.621094 215.9375 C 417.398438 216.675781 417.140625 217.402344 416.847656 218.117188 C 416.554688 218.828125 416.226562 219.527344 415.863281 220.207031 C 415.5 220.890625 415.105469 221.550781 414.679688 222.195312 C 414.25 222.835938 413.792969 223.457031 413.304688 224.054688 C 412.816406 224.652344 412.300781 225.226562 411.757812 225.773438 C 411.214844 226.320312 410.644531 226.839844 410.046875 227.332031 C 409.453125 227.824219 408.835938 228.285156 408.195312 228.714844 C 407.554688 229.144531 406.894531 229.542969 406.214844 229.910156 C 405.535156 230.273438 404.839844 230.605469 404.125 230.90625 C 403.414062 231.203125 402.691406 231.464844 401.953125 231.691406 C 401.214844 231.917969 400.464844 232.105469 399.710938 232.261719 C 398.953125 232.414062 398.191406 232.53125 397.421875 232.609375 C 396.65625 232.6875 395.886719 232.726562 395.113281 232.730469 L 262.679688 232.730469 C 264.890625 227.410156 267.394531 222.234375 270.1875 217.199219 C 272.984375 212.160156 276.054688 207.296875 279.398438 202.609375 C 282.742188 197.917969 286.339844 193.433594 290.191406 189.148438 C 294.042969 184.863281 298.121094 180.808594 302.429688 176.988281 C 306.738281 173.164062 311.25 169.59375 315.960938 166.28125 C 320.671875 162.964844 325.554688 159.925781 330.609375 157.160156 C 335.664062 154.398438 340.855469 151.925781 346.1875 149.75 C 351.523438 147.570312 356.960938 145.703125 362.503906 144.136719 C 361.238281 145.238281 360.105469 146.460938 359.105469 147.804688 C 358.105469 149.152344 357.261719 150.589844 356.574219 152.117188 C 355.886719 153.648438 355.371094 155.230469 355.027344 156.871094 C 354.679688 158.511719 354.515625 160.171875 354.53125 161.847656 C 354.527344 162.617188 354.5625 163.386719 354.632812 164.152344 C 354.703125 164.917969 354.8125 165.679688 354.957031 166.4375 C 355.105469 167.191406 355.289062 167.941406 355.507812 168.679688 C 355.726562 169.417969 355.980469 170.140625 356.273438 170.855469 C 356.5625 171.566406 356.890625 172.265625 357.25 172.945312 C 357.609375 173.625 358 174.289062 358.425781 174.929688 C 358.851562 175.574219 359.304688 176.191406 359.789062 176.789062 C 360.277344 177.386719 360.789062 177.960938 361.332031 178.507812 C 361.875 179.054688 362.441406 179.574219 363.035156 180.066406 C 363.628906 180.558594 364.242188 181.019531 364.882812 181.449219 C 365.519531 181.878906 366.175781 182.277344 366.855469 182.644531 C 367.53125 183.011719 368.226562 183.34375 368.9375 183.640625 C 369.644531 183.9375 370.371094 184.203125 371.105469 184.429688 C 371.839844 184.65625 372.585938 184.84375 373.339844 185 C 374.09375 185.152344 374.855469 185.269531 375.621094 185.347656 C 376.386719 185.425781 377.15625 185.46875 377.925781 185.472656 L 395.179688 185.472656 C 395.949219 185.476562 396.714844 185.519531 397.484375 185.597656 C 398.25 185.679688 399.007812 185.796875 399.761719 185.953125 C 400.519531 186.105469 401.261719 186.296875 402 186.523438 C 402.734375 186.753906 403.457031 187.015625 404.167969 187.3125 C 404.878906 187.613281 405.570312 187.945312 406.25 188.3125 C 406.925781 188.675781 407.585938 189.074219 408.222656 189.507812 C 408.863281 189.9375 409.476562 190.398438 410.070312 190.890625 C 410.664062 191.378906 411.234375 191.898438 411.777344 192.445312 C 412.316406 192.992188 412.832031 193.5625 413.320312 194.160156 C 413.804688 194.757812 414.261719 195.378906 414.6875 196.019531 C 415.113281 196.660156 415.507812 197.320312 415.867188 198.003906 C 416.230469 198.683594 416.558594 199.378906 416.851562 200.089844 C 417.144531 200.804688 417.402344 201.527344 417.621094 202.265625 C 417.84375 203.003906 418.03125 203.75 418.179688 204.503906 C 418.328125 205.261719 418.441406 206.023438 418.515625 206.789062 C 418.589844 207.554688 418.625 208.324219 418.625 209.09375 Z M 418.625 209.09375 " fill-opacity="1" fill-rule="nonzero"/><path fill="#c9dfeb" d="M 558.023438 598.914062 L 209.914062 598.914062 C 208.570312 598.914062 207.234375 598.976562 205.898438 599.109375 C 204.5625 599.242188 203.238281 599.4375 201.921875 599.699219 C 200.605469 599.960938 199.308594 600.285156 198.023438 600.675781 C 196.742188 601.066406 195.480469 601.515625 194.238281 602.03125 C 193 602.542969 191.789062 603.117188 190.605469 603.746094 C 189.421875 604.378906 188.273438 605.070312 187.160156 605.8125 C 186.042969 606.558594 184.96875 607.355469 183.929688 608.207031 C 182.894531 609.058594 181.902344 609.957031 180.953125 610.90625 C 180.003906 611.855469 179.105469 612.847656 178.253906 613.882812 C 177.402344 614.921875 176.605469 615.996094 175.859375 617.113281 C 175.113281 618.226562 174.425781 619.375 173.792969 620.558594 C 173.160156 621.742188 172.589844 622.953125 172.074219 624.191406 C 171.5625 625.429688 171.109375 626.691406 170.722656 627.976562 C 170.332031 629.257812 170.007812 630.558594 169.746094 631.875 C 169.484375 633.1875 169.285156 634.515625 169.15625 635.847656 C 169.023438 637.183594 168.957031 638.519531 168.957031 639.863281 C 168.957031 641.203125 169.023438 642.542969 169.15625 643.875 C 169.285156 645.210938 169.484375 646.535156 169.746094 647.851562 C 170.007812 649.167969 170.332031 650.464844 170.722656 651.75 C 171.109375 653.03125 171.5625 654.292969 172.074219 655.535156 C 172.589844 656.773438 173.160156 657.984375 173.792969 659.167969 C 174.425781 660.347656 175.113281 661.496094 175.859375 662.613281 C 176.605469 663.726562 177.402344 664.804688 178.253906 665.839844 C 179.105469 666.878906 180.003906 667.871094 180.953125 668.820312 C 181.902344 669.765625 182.894531 670.667969 183.929688 671.515625 C 184.96875 672.367188 186.042969 673.164062 187.160156 673.910156 C 188.273438 674.65625 189.421875 675.34375 190.605469 675.976562 C 191.789062 676.609375 193 677.183594 194.238281 677.695312 C 195.480469 678.207031 196.742188 678.660156 198.023438 679.050781 C 199.308594 679.4375 200.605469 679.765625 201.921875 680.027344 C 203.238281 680.289062 204.5625 680.484375 205.898438 680.617188 C 207.234375 680.746094 208.570312 680.8125 209.914062 680.8125 L 578.5 680.8125 C 579.167969 680.8125 579.839844 680.78125 580.503906 680.714844 C 581.171875 680.648438 581.835938 680.550781 582.492188 680.417969 C 583.152344 680.289062 583.800781 680.125 584.441406 679.929688 C 585.085938 679.734375 585.714844 679.511719 586.335938 679.253906 C 586.953125 678.996094 587.558594 678.710938 588.152344 678.394531 C 588.742188 678.078125 589.316406 677.734375 589.875 677.363281 C 590.433594 676.988281 590.972656 676.589844 591.488281 676.164062 C 592.007812 675.738281 592.503906 675.289062 592.976562 674.816406 C 593.453125 674.339844 593.902344 673.84375 594.328125 673.328125 C 594.753906 672.808594 595.152344 672.269531 595.523438 671.710938 C 595.898438 671.15625 596.242188 670.582031 596.558594 669.988281 C 596.875 669.398438 597.160156 668.792969 597.417969 668.171875 C 597.671875 667.554688 597.898438 666.921875 598.09375 666.28125 C 598.289062 665.640625 598.453125 664.988281 598.582031 664.332031 C 598.714844 663.675781 598.8125 663.011719 598.878906 662.34375 C 598.941406 661.675781 598.976562 661.007812 598.976562 660.335938 L 598.976562 557.960938 C 598.976562 559.304688 598.910156 560.640625 598.777344 561.976562 C 598.648438 563.3125 598.449219 564.636719 598.1875 565.953125 C 597.925781 567.265625 597.601562 568.566406 597.210938 569.851562 C 596.824219 571.132812 596.371094 572.394531 595.859375 573.632812 C 595.34375 574.871094 594.773438 576.082031 594.140625 577.265625 C 593.507812 578.449219 592.820312 579.597656 592.074219 580.714844 C 591.328125 581.828125 590.53125 582.902344 589.679688 583.941406 C 588.828125 584.976562 587.929688 585.96875 586.980469 586.917969 C 586.03125 587.867188 585.039062 588.765625 584.003906 589.617188 C 582.964844 590.46875 581.890625 591.265625 580.773438 592.011719 C 579.660156 592.757812 578.511719 593.445312 577.328125 594.078125 C 576.144531 594.710938 574.933594 595.28125 573.695312 595.796875 C 572.453125 596.308594 571.195312 596.761719 569.910156 597.148438 C 568.625 597.539062 567.328125 597.863281 566.011719 598.125 C 564.695312 598.386719 563.371094 598.582031 562.035156 598.714844 C 560.699219 598.847656 559.363281 598.914062 558.023438 598.914062 Z M 558.023438 598.914062 " fill-opacity="1" fill-rule="nonzero"/><path fill="#1e120b" d="M 326.964844 463.894531 C 296.925781 447.5625 257.855469 446.476562 256.230469 446.4375 C 250.570312 446.039062 245.503906 451.300781 245.746094 456.917969 C 245.746094 458.542969 246.875 497.652344 263.214844 527.648438 C 277.398438 553.714844 296.414062 559.023438 309.570312 559.023438 C 314.261719 559.023438 318.855469 558.351562 323.347656 557.003906 C 327.839844 555.652344 332.046875 553.6875 335.960938 551.101562 L 339.171875 554.328125 C 339.648438 554.804688 340.167969 555.226562 340.726562 555.601562 C 341.285156 555.972656 341.875 556.289062 342.496094 556.546875 C 343.117188 556.804688 343.757812 556.996094 344.417969 557.128906 C 345.078125 557.257812 345.742188 557.324219 346.414062 557.324219 C 347.085938 557.324219 347.753906 557.257812 348.414062 557.125 C 349.074219 556.996094 349.710938 556.800781 350.332031 556.542969 C 350.953125 556.285156 351.542969 555.96875 352.101562 555.59375 C 352.664062 555.222656 353.179688 554.796875 353.65625 554.320312 C 354.128906 553.847656 354.554688 553.328125 354.925781 552.769531 C 355.300781 552.210938 355.617188 551.621094 355.871094 551 C 356.128906 550.378906 356.324219 549.738281 356.453125 549.078125 C 356.585938 548.417969 356.652344 547.753906 356.652344 547.082031 C 356.648438 546.410156 356.585938 545.742188 356.453125 545.082031 C 356.320312 544.425781 356.125 543.785156 355.871094 543.164062 C 355.613281 542.542969 355.296875 541.953125 354.921875 541.394531 C 354.546875 540.835938 354.125 540.316406 353.648438 539.84375 L 350.4375 536.628906 C 354.40625 530.597656 356.894531 524.007812 357.898438 516.859375 C 359.652344 504.292969 357.847656 480.695312 326.964844 463.894531 Z M 303.632812 489.832031 C 303.15625 489.355469 302.640625 488.929688 302.082031 488.554688 C 301.523438 488.179688 300.933594 487.863281 300.3125 487.605469 C 299.691406 487.347656 299.050781 487.152344 298.390625 487.019531 C 297.730469 486.886719 297.0625 486.820312 296.390625 486.820312 C 295.71875 486.820312 295.050781 486.882812 294.390625 487.015625 C 293.730469 487.144531 293.089844 487.339844 292.46875 487.597656 C 291.847656 487.855469 291.257812 488.167969 290.695312 488.542969 C 290.136719 488.917969 289.617188 489.339844 289.144531 489.816406 C 288.667969 490.292969 288.242188 490.808594 287.867188 491.367188 C 287.492188 491.929688 287.179688 492.519531 286.921875 493.140625 C 286.664062 493.761719 286.46875 494.402344 286.335938 495.0625 C 286.207031 495.722656 286.140625 496.386719 286.140625 497.0625 C 286.140625 497.734375 286.207031 498.402344 286.335938 499.058594 C 286.46875 499.71875 286.664062 500.359375 286.921875 500.980469 C 287.179688 501.605469 287.496094 502.195312 287.871094 502.753906 C 288.242188 503.3125 288.667969 503.828125 289.144531 504.304688 L 320.910156 536.066406 C 318.527344 537.171875 316.035156 537.910156 313.4375 538.28125 C 300.074219 540.046875 289.644531 533.378906 281.199219 517.804688 C 272.136719 501.171875 268.539062 480.375 267.121094 467.746094 C 279.726562 469.152344 300.484375 472.75 317.1875 481.820312 C 332.722656 490.265625 339.402344 500.8125 337.664062 514.042969 C 337.285156 516.640625 336.546875 519.132812 335.449219 521.515625 Z M 303.632812 489.832031 " fill-opacity="1" fill-rule="nonzero"/><path fill="#1e120b" d="M 552.660156 446.4375 C 551.019531 446.4375 511.960938 447.5625 481.925781 463.894531 C 451.042969 480.695312 449.289062 504.292969 450.992188 516.859375 C 451.996094 524.007812 454.480469 530.597656 458.453125 536.628906 L 455.238281 539.84375 C 454.765625 540.316406 454.339844 540.835938 453.964844 541.394531 C 453.589844 541.953125 453.277344 542.542969 453.019531 543.164062 C 452.761719 543.785156 452.566406 544.425781 452.433594 545.082031 C 452.304688 545.742188 452.238281 546.410156 452.238281 547.082031 C 452.238281 547.753906 452.300781 548.417969 452.433594 549.078125 C 452.5625 549.738281 452.757812 550.378906 453.015625 551 C 453.273438 551.621094 453.585938 552.210938 453.960938 552.769531 C 454.332031 553.328125 454.757812 553.847656 455.234375 554.320312 C 455.707031 554.796875 456.226562 555.222656 456.785156 555.597656 C 457.34375 555.96875 457.933594 556.285156 458.554688 556.542969 C 459.175781 556.800781 459.816406 556.996094 460.476562 557.125 C 461.132812 557.257812 461.800781 557.324219 462.472656 557.324219 C 463.144531 557.324219 463.8125 557.257812 464.46875 557.128906 C 465.128906 556.996094 465.769531 556.804688 466.390625 556.546875 C 467.011719 556.289062 467.601562 555.972656 468.164062 555.601562 C 468.722656 555.226562 469.238281 554.804688 469.714844 554.328125 L 472.925781 551.101562 C 476.839844 553.6875 481.046875 555.652344 485.539062 557 C 490.03125 558.351562 494.625 559.023438 499.316406 559.023438 C 512.472656 559.023438 531.492188 553.6875 545.683594 527.648438 C 562.015625 497.613281 563.140625 458.554688 563.140625 456.867188 C 563.410156 451.3125 558.253906 446.027344 552.660156 446.4375 Z M 527.691406 517.855469 C 519.242188 533.378906 508.761719 540.097656 495.453125 538.332031 C 492.851562 537.949219 490.363281 537.207031 487.976562 536.105469 L 519.742188 504.355469 C 520.21875 503.878906 520.640625 503.363281 521.015625 502.804688 C 521.386719 502.246094 521.703125 501.65625 521.957031 501.035156 C 522.214844 500.414062 522.410156 499.773438 522.539062 499.113281 C 522.667969 498.453125 522.734375 497.789062 522.734375 497.117188 C 522.734375 496.445312 522.667969 495.777344 522.535156 495.121094 C 522.40625 494.460938 522.210938 493.820312 521.953125 493.199219 C 521.695312 492.578125 521.378906 491.988281 521.003906 491.429688 C 520.632812 490.871094 520.207031 490.355469 519.730469 489.882812 C 519.257812 489.40625 518.738281 488.980469 518.179688 488.609375 C 517.621094 488.234375 517.03125 487.921875 516.410156 487.664062 C 515.789062 487.40625 515.148438 487.210938 514.488281 487.082031 C 513.832031 486.949219 513.164062 486.886719 512.492188 486.886719 C 511.820312 486.886719 511.15625 486.949219 510.496094 487.082031 C 509.835938 487.214844 509.195312 487.40625 508.574219 487.664062 C 507.953125 487.921875 507.363281 488.238281 506.804688 488.609375 C 506.246094 488.984375 505.730469 489.40625 505.253906 489.882812 L 473.554688 521.582031 C 472.457031 519.195312 471.71875 516.707031 471.339844 514.109375 C 469.535156 500.875 476.214844 490.332031 491.753906 481.886719 C 508.390625 472.835938 529.1875 469.230469 541.820312 467.808594 C 540.347656 480.4375 536.738281 501.222656 527.691406 517.855469 Z M 527.691406 517.855469 " fill-opacity="1" fill-rule="nonzero"/><g clip-path="url(#id1)"><path fill="#1e120b" d="M 558.023438 76.800781 L 209.914062 76.800781 C 208.234375 76.800781 206.5625 76.886719 204.898438 77.050781 C 203.230469 77.21875 201.574219 77.464844 199.929688 77.792969 C 198.285156 78.121094 196.664062 78.53125 195.058594 79.019531 C 193.457031 79.507812 191.878906 80.070312 190.332031 80.714844 C 188.785156 81.355469 187.269531 82.074219 185.792969 82.863281 C 184.316406 83.652344 182.878906 84.515625 181.484375 85.445312 C 180.09375 86.378906 178.75 87.375 177.453125 88.4375 C 176.15625 89.503906 174.917969 90.625 173.730469 91.8125 C 172.546875 92.996094 171.421875 94.238281 170.359375 95.53125 C 169.296875 96.828125 168.296875 98.171875 167.367188 99.5625 C 166.433594 100.957031 165.574219 102.394531 164.785156 103.871094 C 163.992188 105.347656 163.277344 106.859375 162.632812 108.410156 C 161.992188 109.957031 161.425781 111.53125 160.9375 113.136719 C 160.449219 114.738281 160.042969 116.363281 159.714844 118.003906 C 159.386719 119.648438 159.136719 121.304688 158.972656 122.972656 C 158.804688 124.640625 158.722656 126.3125 158.71875 127.988281 L 158.71875 639.863281 C 158.722656 641.539062 158.804688 643.210938 158.972656 644.878906 C 159.136719 646.546875 159.386719 648.199219 159.714844 649.84375 C 160.042969 651.488281 160.449219 653.109375 160.9375 654.714844 C 161.425781 656.316406 161.992188 657.894531 162.632812 659.441406 C 163.277344 660.988281 163.992188 662.5 164.785156 663.980469 C 165.574219 665.457031 166.433594 666.890625 167.367188 668.285156 C 168.296875 669.679688 169.296875 671.023438 170.359375 672.320312 C 171.421875 673.613281 172.546875 674.855469 173.730469 676.039062 C 174.917969 677.222656 176.15625 678.347656 177.453125 679.410156 C 178.75 680.476562 180.09375 681.472656 181.484375 682.402344 C 182.878906 683.335938 184.316406 684.195312 185.792969 684.988281 C 187.269531 685.777344 188.785156 686.496094 190.332031 687.136719 C 191.878906 687.777344 193.457031 688.34375 195.058594 688.832031 C 196.664062 689.320312 198.285156 689.726562 199.929688 690.054688 C 201.574219 690.382812 203.230469 690.632812 204.898438 690.796875 C 206.5625 690.964844 208.234375 691.046875 209.914062 691.050781 L 578.5 691.050781 C 579.503906 691.050781 580.507812 691 581.507812 690.902344 C 582.511719 690.804688 583.503906 690.65625 584.492188 690.460938 C 585.476562 690.261719 586.453125 690.019531 587.414062 689.726562 C 588.378906 689.433594 589.324219 689.097656 590.253906 688.710938 C 591.183594 688.328125 592.089844 687.898438 592.976562 687.421875 C 593.863281 686.949219 594.726562 686.433594 595.5625 685.875 C 596.398438 685.316406 597.207031 684.714844 597.984375 684.078125 C 598.761719 683.441406 599.507812 682.765625 600.21875 682.054688 C 600.929688 681.34375 601.605469 680.597656 602.242188 679.820312 C 602.878906 679.042969 603.480469 678.238281 604.039062 677.398438 C 604.597656 676.5625 605.113281 675.703125 605.585938 674.816406 C 606.0625 673.929688 606.492188 673.019531 606.875 672.089844 C 607.261719 671.160156 607.597656 670.214844 607.890625 669.253906 C 608.183594 668.289062 608.425781 667.316406 608.625 666.328125 C 608.820312 665.34375 608.96875 664.347656 609.066406 663.347656 C 609.164062 662.347656 609.214844 661.34375 609.214844 660.335938 L 609.214844 127.988281 C 609.210938 126.3125 609.128906 124.640625 608.960938 122.972656 C 608.796875 121.304688 608.546875 119.648438 608.21875 118.003906 C 607.890625 116.363281 607.484375 114.738281 606.996094 113.136719 C 606.507812 111.53125 605.941406 109.957031 605.300781 108.410156 C 604.65625 106.859375 603.941406 105.347656 603.152344 103.871094 C 602.359375 102.394531 601.5 100.957031 600.566406 99.5625 C 599.636719 98.171875 598.636719 96.828125 597.574219 95.53125 C 596.511719 94.238281 595.386719 92.996094 594.203125 91.8125 C 593.015625 90.625 591.777344 89.503906 590.480469 88.4375 C 589.183594 87.375 587.839844 86.378906 586.449219 85.445312 C 585.054688 84.515625 583.617188 83.652344 582.140625 82.863281 C 580.664062 82.074219 579.152344 81.355469 577.601562 80.714844 C 576.054688 80.070312 574.476562 79.507812 572.875 79.019531 C 571.269531 78.53125 569.648438 78.121094 568.003906 77.792969 C 566.359375 77.464844 564.707031 77.21875 563.039062 77.050781 C 561.371094 76.886719 559.699219 76.800781 558.023438 76.800781 Z M 578.5 670.574219 L 209.914062 670.574219 C 208.90625 670.574219 207.902344 670.527344 206.902344 670.425781 C 205.902344 670.328125 204.90625 670.179688 203.921875 669.984375 C 202.933594 669.789062 201.957031 669.542969 200.996094 669.253906 C 200.035156 668.960938 199.085938 668.621094 198.15625 668.238281 C 197.230469 667.851562 196.320312 667.421875 195.433594 666.949219 C 194.546875 666.472656 193.683594 665.957031 192.847656 665.398438 C 192.011719 664.839844 191.203125 664.242188 190.425781 663.605469 C 189.648438 662.964844 188.90625 662.289062 188.191406 661.578125 C 187.480469 660.867188 186.808594 660.125 186.167969 659.347656 C 185.53125 658.570312 184.933594 657.761719 184.375 656.925781 C 183.8125 656.089844 183.296875 655.226562 182.824219 654.339844 C 182.347656 653.453125 181.917969 652.546875 181.535156 651.617188 C 181.148438 650.6875 180.8125 649.742188 180.519531 648.777344 C 180.226562 647.816406 179.984375 646.839844 179.785156 645.855469 C 179.589844 644.867188 179.441406 643.875 179.34375 642.871094 C 179.246094 641.871094 179.195312 640.867188 179.195312 639.863281 C 179.195312 638.855469 179.246094 637.851562 179.34375 636.851562 C 179.441406 635.851562 179.589844 634.855469 179.785156 633.871094 C 179.984375 632.882812 180.226562 631.910156 180.519531 630.945312 C 180.8125 629.984375 181.148438 629.039062 181.535156 628.109375 C 181.917969 627.179688 182.347656 626.273438 182.824219 625.382812 C 183.296875 624.496094 183.8125 623.636719 184.375 622.800781 C 184.933594 621.964844 185.53125 621.15625 186.167969 620.378906 C 186.808594 619.601562 187.480469 618.855469 188.191406 618.144531 C 188.90625 617.433594 189.648438 616.757812 190.425781 616.121094 C 191.203125 615.484375 192.011719 614.886719 192.847656 614.324219 C 193.683594 613.765625 194.546875 613.25 195.433594 612.777344 C 196.320312 612.300781 197.230469 611.871094 198.15625 611.488281 C 199.085938 611.101562 200.035156 610.765625 200.996094 610.472656 C 201.957031 610.179688 202.933594 609.9375 203.921875 609.738281 C 204.90625 609.542969 205.902344 609.398438 206.902344 609.296875 C 207.902344 609.199219 208.90625 609.148438 209.914062 609.148438 L 558.023438 609.148438 C 560.773438 609.15625 563.507812 608.9375 566.222656 608.5 C 568.941406 608.058594 571.605469 607.40625 574.214844 606.535156 C 576.824219 605.664062 579.347656 604.589844 581.785156 603.3125 C 584.222656 602.035156 586.539062 600.566406 588.738281 598.914062 L 588.738281 629.625 L 240.628906 629.625 C 239.957031 629.625 239.289062 629.691406 238.628906 629.820312 C 237.972656 629.953125 237.332031 630.148438 236.710938 630.402344 C 236.089844 630.660156 235.5 630.976562 234.941406 631.351562 C 234.378906 631.722656 233.863281 632.148438 233.386719 632.625 C 232.914062 633.097656 232.488281 633.617188 232.113281 634.175781 C 231.742188 634.734375 231.425781 635.324219 231.167969 635.945312 C 230.910156 636.566406 230.71875 637.207031 230.585938 637.863281 C 230.453125 638.523438 230.390625 639.191406 230.390625 639.863281 C 230.390625 640.535156 230.453125 641.199219 230.585938 641.859375 C 230.71875 642.519531 230.910156 643.160156 231.167969 643.78125 C 231.425781 644.402344 231.742188 644.992188 232.113281 645.550781 C 232.488281 646.109375 232.914062 646.625 233.386719 647.101562 C 233.863281 647.578125 234.378906 648 234.941406 648.375 C 235.5 648.75 236.089844 649.0625 236.710938 649.320312 C 237.332031 649.578125 237.972656 649.773438 238.628906 649.902344 C 239.289062 650.035156 239.957031 650.101562 240.628906 650.101562 L 588.738281 650.101562 L 588.738281 660.335938 C 588.738281 661.007812 588.671875 661.675781 588.539062 662.335938 C 588.410156 662.992188 588.214844 663.632812 587.957031 664.253906 C 587.699219 664.875 587.386719 665.464844 587.011719 666.023438 C 586.636719 666.582031 586.214844 667.101562 585.738281 667.578125 C 585.261719 668.050781 584.746094 668.476562 584.1875 668.847656 C 583.628906 669.222656 583.039062 669.539062 582.417969 669.796875 C 581.796875 670.054688 581.15625 670.246094 580.496094 670.378906 C 579.835938 670.507812 579.171875 670.574219 578.5 670.574219 Z M 558.023438 588.675781 L 220.152344 588.675781 L 220.152344 342.976562 C 220.152344 342.304688 220.085938 341.636719 219.953125 340.976562 C 219.824219 340.320312 219.628906 339.679688 219.371094 339.058594 C 219.113281 338.4375 218.796875 337.847656 218.425781 337.289062 C 218.050781 336.726562 217.628906 336.210938 217.152344 335.734375 C 216.675781 335.261719 216.160156 334.835938 215.601562 334.460938 C 215.042969 334.089844 214.453125 333.773438 213.832031 333.515625 C 213.210938 333.257812 212.570312 333.066406 211.910156 332.933594 C 211.25 332.804688 210.585938 332.738281 209.914062 332.738281 C 209.238281 332.738281 208.574219 332.804688 207.914062 332.933594 C 207.253906 333.066406 206.617188 333.257812 205.996094 333.515625 C 205.371094 333.773438 204.78125 334.089844 204.222656 334.460938 C 203.664062 334.835938 203.148438 335.261719 202.671875 335.734375 C 202.195312 336.210938 201.773438 336.726562 201.398438 337.289062 C 201.027344 337.847656 200.710938 338.4375 200.453125 339.058594 C 200.195312 339.679688 200 340.320312 199.871094 340.976562 C 199.738281 341.636719 199.671875 342.304688 199.671875 342.976562 L 199.671875 589.710938 C 195.949219 590.5 192.359375 591.691406 188.902344 593.289062 C 185.449219 594.882812 182.210938 596.84375 179.195312 599.167969 L 179.195312 127.988281 C 179.203125 126.414062 179.328125 124.851562 179.578125 123.296875 C 179.824219 121.742188 180.1875 120.21875 180.667969 118.71875 C 181.148438 117.222656 181.742188 115.769531 182.445312 114.363281 C 183.152344 112.957031 183.957031 111.613281 184.867188 110.328125 C 185.78125 109.046875 186.785156 107.839844 187.878906 106.710938 C 188.976562 105.585938 190.152344 104.546875 191.40625 103.597656 C 192.664062 102.652344 193.984375 101.804688 195.371094 101.058594 C 196.757812 100.316406 198.191406 99.679688 199.671875 99.15625 L 199.671875 261.074219 C 199.671875 261.746094 199.738281 262.414062 199.871094 263.070312 C 200 263.730469 200.195312 264.371094 200.453125 264.992188 C 200.710938 265.613281 201.027344 266.203125 201.398438 266.761719 C 201.773438 267.320312 202.195312 267.839844 202.671875 268.3125 C 203.148438 268.789062 203.664062 269.214844 204.222656 269.585938 C 204.78125 269.960938 205.371094 270.277344 205.992188 270.535156 C 206.617188 270.789062 207.253906 270.984375 207.914062 271.117188 C 208.574219 271.246094 209.238281 271.3125 209.914062 271.3125 C 210.585938 271.3125 211.25 271.246094 211.910156 271.117188 C 212.570312 270.984375 213.210938 270.789062 213.832031 270.535156 C 214.453125 270.277344 215.042969 269.960938 215.601562 269.585938 C 216.160156 269.214844 216.675781 268.789062 217.152344 268.3125 C 217.628906 267.839844 218.050781 267.320312 218.425781 266.761719 C 218.796875 266.203125 219.113281 265.613281 219.371094 264.992188 C 219.628906 264.371094 219.824219 263.730469 219.953125 263.070312 C 220.085938 262.414062 220.152344 261.746094 220.152344 261.074219 L 220.152344 97.273438 L 558.023438 97.273438 C 559.027344 97.273438 560.03125 97.324219 561.03125 97.421875 C 562.035156 97.523438 563.027344 97.667969 564.015625 97.863281 C 565 98.0625 565.976562 98.304688 566.9375 98.597656 C 567.902344 98.890625 568.847656 99.226562 569.777344 99.613281 C 570.707031 99.996094 571.613281 100.425781 572.5 100.902344 C 573.386719 101.375 574.25 101.890625 575.085938 102.449219 C 575.921875 103.011719 576.730469 103.609375 577.507812 104.246094 C 578.285156 104.882812 579.03125 105.558594 579.742188 106.269531 C 580.453125 106.980469 581.125 107.726562 581.765625 108.503906 C 582.402344 109.28125 583 110.089844 583.5625 110.925781 C 584.121094 111.761719 584.636719 112.621094 585.109375 113.507812 C 585.585938 114.398438 586.015625 115.304688 586.398438 116.234375 C 586.785156 117.164062 587.121094 118.109375 587.414062 119.070312 C 587.707031 120.035156 587.949219 121.007812 588.148438 121.996094 C 588.34375 122.980469 588.492188 123.976562 588.589844 124.976562 C 588.6875 125.976562 588.738281 126.980469 588.738281 127.988281 L 588.738281 557.960938 C 588.738281 558.96875 588.6875 559.972656 588.589844 560.972656 C 588.492188 561.972656 588.34375 562.96875 588.148438 563.953125 C 587.949219 564.941406 587.707031 565.914062 587.414062 566.878906 C 587.121094 567.839844 586.785156 568.785156 586.398438 569.714844 C 586.015625 570.644531 585.585938 571.554688 585.109375 572.441406 C 584.636719 573.328125 584.121094 574.1875 583.5625 575.023438 C 583 575.863281 582.402344 576.667969 581.765625 577.445312 C 581.125 578.222656 580.453125 578.96875 579.742188 579.679688 C 579.03125 580.390625 578.285156 581.066406 577.507812 581.703125 C 576.730469 582.339844 575.921875 582.941406 575.085938 583.5 C 574.25 584.058594 573.386719 584.574219 572.5 585.046875 C 571.613281 585.523438 570.707031 585.953125 569.777344 586.335938 C 568.847656 586.722656 567.902344 587.058594 566.9375 587.351562 C 565.976562 587.644531 565 587.886719 564.015625 588.085938 C 563.027344 588.28125 562.035156 588.429688 561.03125 588.527344 C 560.03125 588.625 559.027344 588.675781 558.023438 588.675781 Z M 558.023438 588.675781 " fill-opacity="1" fill-rule="nonzero"/></g><path fill="#1e120b" d="M 220.152344 302.023438 C 220.152344 302.695312 220.085938 303.363281 219.953125 304.023438 C 219.824219 304.679688 219.628906 305.320312 219.371094 305.941406 C 219.113281 306.5625 218.796875 307.152344 218.425781 307.710938 C 218.050781 308.273438 217.628906 308.789062 217.152344 309.265625 C 216.675781 309.738281 216.160156 310.164062 215.601562 310.539062 C 215.042969 310.910156 214.453125 311.226562 213.832031 311.484375 C 213.210938 311.742188 212.570312 311.933594 211.910156 312.066406 C 211.25 312.195312 210.585938 312.261719 209.914062 312.261719 C 209.238281 312.261719 208.574219 312.195312 207.914062 312.066406 C 207.253906 311.933594 206.617188 311.742188 205.996094 311.484375 C 205.371094 311.226562 204.78125 310.910156 204.222656 310.539062 C 203.664062 310.164062 203.148438 309.738281 202.671875 309.265625 C 202.195312 308.789062 201.773438 308.273438 201.398438 307.710938 C 201.027344 307.152344 200.710938 306.5625 200.453125 305.941406 C 200.195312 305.320312 200 304.679688 199.871094 304.023438 C 199.738281 303.363281 199.671875 302.695312 199.671875 302.023438 C 199.671875 301.351562 199.738281 300.6875 199.871094 300.027344 C 200 299.367188 200.195312 298.726562 200.453125 298.105469 C 200.710938 297.484375 201.027344 296.894531 201.398438 296.335938 C 201.773438 295.777344 202.195312 295.261719 202.671875 294.785156 C 203.148438 294.3125 203.664062 293.886719 204.222656 293.511719 C 204.78125 293.140625 205.371094 292.824219 205.992188 292.566406 C 206.617188 292.308594 207.253906 292.117188 207.914062 291.984375 C 208.574219 291.851562 209.238281 291.789062 209.914062 291.789062 C 210.585938 291.789062 211.25 291.851562 211.910156 291.984375 C 212.570312 292.117188 213.210938 292.308594 213.832031 292.566406 C 214.453125 292.824219 215.042969 293.140625 215.601562 293.511719 C 216.160156 293.886719 216.675781 294.3125 217.152344 294.785156 C 217.628906 295.261719 218.050781 295.777344 218.425781 296.335938 C 218.796875 296.894531 219.113281 297.484375 219.371094 298.105469 C 219.628906 298.726562 219.824219 299.367188 219.953125 300.027344 C 220.085938 300.6875 220.152344 301.351562 220.152344 302.023438 Z M 220.152344 302.023438 " fill-opacity="1" fill-rule="nonzero"/><path fill="#1e120b" d="M 404.445312 127.988281 C 401.761719 127.988281 399.082031 128.054688 396.40625 128.183594 C 393.726562 128.316406 391.054688 128.511719 388.386719 128.777344 C 385.71875 129.039062 383.058594 129.367188 380.40625 129.761719 C 377.753906 130.152344 375.113281 130.613281 372.484375 131.136719 C 369.855469 131.65625 367.242188 132.246094 364.640625 132.894531 C 362.039062 133.546875 359.457031 134.261719 356.890625 135.039062 C 354.324219 135.820312 351.78125 136.660156 349.257812 137.5625 C 346.730469 138.464844 344.230469 139.429688 341.753906 140.457031 C 339.277344 141.480469 336.828125 142.566406 334.402344 143.714844 C 331.980469 144.859375 329.585938 146.066406 327.222656 147.328125 C 324.855469 148.59375 322.523438 149.914062 320.226562 151.292969 C 317.925781 152.667969 315.660156 154.101562 313.433594 155.59375 C 311.203125 157.082031 309.011719 158.625 306.859375 160.222656 C 304.707031 161.820312 302.59375 163.46875 300.519531 165.167969 C 298.449219 166.867188 296.417969 168.621094 294.433594 170.417969 C 292.445312 172.21875 290.503906 174.066406 288.609375 175.964844 C 286.710938 177.859375 284.863281 179.800781 283.0625 181.785156 C 281.265625 183.773438 279.511719 185.800781 277.8125 187.875 C 276.113281 189.945312 274.460938 192.058594 272.867188 194.210938 C 271.269531 196.363281 269.726562 198.554688 268.234375 200.785156 C 266.746094 203.015625 265.3125 205.277344 263.933594 207.578125 C 262.554688 209.875 261.234375 212.207031 259.972656 214.574219 C 258.707031 216.9375 257.503906 219.332031 256.355469 221.753906 C 255.210938 224.175781 254.125 226.628906 253.097656 229.105469 C 252.070312 231.582031 251.105469 234.082031 250.203125 236.605469 C 249.300781 239.128906 248.460938 241.671875 247.683594 244.238281 C 246.902344 246.804688 246.1875 249.386719 245.539062 251.988281 C 244.886719 254.585938 244.296875 257.203125 243.777344 259.832031 C 243.253906 262.460938 242.792969 265.101562 242.402344 267.753906 C 242.007812 270.40625 241.679688 273.066406 241.417969 275.730469 C 241.152344 278.398438 240.957031 281.074219 240.824219 283.75 C 240.695312 286.425781 240.628906 289.105469 240.628906 291.789062 C 240.628906 294.46875 240.695312 297.148438 240.824219 299.824219 C 240.957031 302.503906 241.152344 305.175781 241.417969 307.84375 C 241.679688 310.511719 242.007812 313.171875 242.402344 315.820312 C 242.792969 318.472656 243.253906 321.113281 243.777344 323.742188 C 244.296875 326.371094 244.886719 328.988281 245.539062 331.585938 C 246.1875 334.1875 246.902344 336.769531 247.683594 339.335938 C 248.460938 341.902344 249.300781 344.445312 250.203125 346.96875 C 251.105469 349.492188 252.070312 351.996094 253.097656 354.472656 C 254.125 356.949219 255.210938 359.398438 256.355469 361.820312 C 257.503906 364.246094 258.707031 366.636719 259.972656 369.003906 C 261.234375 371.367188 262.554688 373.699219 263.933594 375.996094 C 265.3125 378.296875 266.746094 380.5625 268.234375 382.789062 C 269.726562 385.019531 271.269531 387.210938 272.867188 389.363281 C 274.460938 391.515625 276.113281 393.628906 277.8125 395.699219 C 279.511719 397.773438 281.265625 399.800781 283.0625 401.789062 C 284.863281 403.773438 286.710938 405.714844 288.609375 407.613281 C 290.503906 409.507812 292.445312 411.355469 294.433594 413.15625 C 296.417969 414.957031 298.449219 416.707031 300.519531 418.40625 C 302.59375 420.105469 304.707031 421.757812 306.859375 423.351562 C 309.011719 424.949219 311.203125 426.492188 313.433594 427.980469 C 315.660156 429.472656 317.925781 430.90625 320.226562 432.285156 C 322.523438 433.660156 324.855469 434.984375 327.222656 436.246094 C 329.585938 437.511719 331.980469 438.714844 334.402344 439.859375 C 336.828125 441.007812 339.277344 442.09375 341.753906 443.117188 C 344.230469 444.144531 346.730469 445.109375 349.257812 446.011719 C 351.78125 446.914062 354.324219 447.757812 356.890625 448.535156 C 359.457031 449.3125 362.039062 450.027344 364.640625 450.679688 C 367.242188 451.328125 369.855469 451.917969 372.484375 452.441406 C 375.113281 452.964844 377.753906 453.421875 380.40625 453.816406 C 383.058594 454.207031 385.71875 454.535156 388.386719 454.796875 C 391.054688 455.0625 393.726562 455.257812 396.40625 455.390625 C 399.082031 455.523438 401.761719 455.585938 404.445312 455.585938 C 407.125 455.585938 409.804688 455.523438 412.480469 455.390625 C 415.160156 455.257812 417.832031 455.0625 420.5 454.796875 C 423.167969 454.535156 425.828125 454.207031 428.480469 453.816406 C 431.132812 453.421875 433.773438 452.964844 436.402344 452.441406 C 439.03125 451.917969 441.648438 451.328125 444.25 450.679688 C 446.847656 450.027344 449.433594 449.3125 451.996094 448.535156 C 454.5625 447.757812 457.109375 446.914062 459.632812 446.011719 C 462.15625 445.109375 464.65625 444.144531 467.132812 443.117188 C 469.609375 442.09375 472.0625 441.007812 474.484375 439.859375 C 476.90625 438.714844 479.300781 437.511719 481.667969 436.246094 C 484.03125 434.984375 486.363281 433.660156 488.664062 432.285156 C 490.960938 430.90625 493.226562 429.472656 495.457031 427.980469 C 497.683594 426.492188 499.875 424.949219 502.027344 423.351562 C 504.183594 421.757812 506.296875 420.105469 508.367188 418.40625 C 510.441406 416.707031 512.46875 414.957031 514.457031 413.15625 C 516.441406 411.355469 518.382812 409.507812 520.28125 407.613281 C 522.175781 405.714844 524.023438 403.773438 525.824219 401.789062 C 527.625 399.800781 529.375 397.773438 531.074219 395.699219 C 532.777344 393.628906 534.425781 391.515625 536.023438 389.363281 C 537.621094 387.210938 539.164062 385.019531 540.652344 382.789062 C 542.140625 380.5625 543.574219 378.296875 544.953125 375.996094 C 546.332031 373.699219 547.652344 371.367188 548.917969 369.003906 C 550.179688 366.636719 551.386719 364.246094 552.53125 361.820312 C 553.679688 359.398438 554.765625 356.949219 555.789062 354.472656 C 556.816406 351.996094 557.78125 349.492188 558.683594 346.96875 C 559.585938 344.445312 560.429688 341.902344 561.207031 339.335938 C 561.984375 336.769531 562.699219 334.1875 563.351562 331.585938 C 564.003906 328.988281 564.589844 326.371094 565.113281 323.742188 C 565.636719 321.113281 566.09375 318.472656 566.488281 315.820312 C 566.878906 313.171875 567.207031 310.511719 567.472656 307.84375 C 567.734375 305.175781 567.929688 302.503906 568.0625 299.824219 C 568.195312 297.148438 568.261719 294.46875 568.261719 291.789062 C 568.257812 289.109375 568.1875 286.429688 568.054688 283.753906 C 567.921875 281.078125 567.71875 278.40625 567.457031 275.738281 C 567.191406 273.070312 566.859375 270.414062 566.464844 267.761719 C 566.066406 265.113281 565.609375 262.472656 565.082031 259.84375 C 564.558594 257.214844 563.96875 254.601562 563.316406 252.003906 C 562.664062 249.40625 561.945312 246.824219 561.167969 244.257812 C 560.386719 241.695312 559.542969 239.152344 558.640625 236.628906 C 557.734375 234.105469 556.769531 231.605469 555.742188 229.132812 C 554.714844 226.65625 553.628906 224.207031 552.480469 221.785156 C 551.335938 219.363281 550.128906 216.972656 548.863281 214.609375 C 547.601562 212.246094 546.277344 209.914062 544.898438 207.617188 C 543.519531 205.316406 542.085938 203.054688 540.597656 200.828125 C 539.109375 198.597656 537.5625 196.410156 535.96875 194.257812 C 534.371094 192.105469 532.722656 189.992188 531.019531 187.921875 C 529.320312 185.851562 527.570312 183.820312 525.769531 181.835938 C 523.96875 179.851562 522.121094 177.910156 520.226562 176.015625 C 518.332031 174.121094 516.390625 172.273438 514.40625 170.472656 C 512.421875 168.671875 510.390625 166.921875 508.320312 165.222656 C 506.25 163.523438 504.136719 161.875 501.984375 160.277344 C 499.832031 158.679688 497.640625 157.136719 495.414062 155.648438 C 493.183594 154.160156 490.921875 152.722656 488.625 151.347656 C 486.324219 149.96875 483.996094 148.644531 481.632812 147.382812 C 479.269531 146.117188 476.875 144.910156 474.453125 143.765625 C 472.03125 142.617188 469.582031 141.53125 467.105469 140.503906 C 464.628906 139.476562 462.132812 138.511719 459.609375 137.605469 C 457.085938 136.703125 454.542969 135.859375 451.976562 135.082031 C 449.414062 134.300781 446.832031 133.585938 444.230469 132.929688 C 441.632812 132.277344 439.019531 131.6875 436.390625 131.164062 C 433.761719 130.640625 431.121094 130.179688 428.472656 129.785156 C 425.820312 129.386719 423.164062 129.058594 420.496094 128.792969 C 417.828125 128.527344 415.15625 128.328125 412.480469 128.191406 C 409.800781 128.058594 407.125 127.992188 404.445312 127.988281 Z M 344.292969 161.898438 C 344.292969 163.003906 344.34375 164.105469 344.449219 165.203125 C 344.558594 166.300781 344.71875 167.390625 344.929688 168.472656 C 345.144531 169.558594 345.410156 170.625 345.730469 171.683594 C 346.046875 172.738281 346.417969 173.777344 346.839844 174.800781 C 347.257812 175.820312 347.726562 176.816406 348.246094 177.792969 C 348.765625 178.765625 349.328125 179.714844 349.9375 180.632812 C 350.550781 181.550781 351.203125 182.4375 351.902344 183.292969 C 352.601562 184.148438 353.339844 184.96875 354.117188 185.75 C 354.894531 186.53125 355.710938 187.273438 356.5625 187.976562 C 357.414062 188.679688 358.296875 189.339844 359.210938 189.957031 C 360.128906 190.570312 361.070312 191.140625 362.042969 191.664062 C 363.015625 192.1875 364.007812 192.664062 365.027344 193.089844 C 366.046875 193.515625 367.082031 193.890625 368.136719 194.214844 C 369.191406 194.539062 370.261719 194.8125 371.339844 195.03125 C 372.421875 195.253906 373.511719 195.417969 374.609375 195.53125 C 375.707031 195.644531 376.808594 195.703125 377.914062 195.707031 L 395.164062 195.707031 C 396.027344 195.734375 396.878906 195.84375 397.71875 196.035156 C 398.5625 196.226562 399.375 196.496094 400.164062 196.84375 C 400.953125 197.191406 401.703125 197.613281 402.410156 198.105469 C 403.117188 198.597656 403.769531 199.15625 404.371094 199.773438 C 404.972656 200.394531 405.507812 201.0625 405.976562 201.785156 C 406.449219 202.507812 406.847656 203.269531 407.171875 204.070312 C 407.496094 204.867188 407.738281 205.691406 407.902344 206.539062 C 408.070312 207.382812 408.152344 208.238281 408.152344 209.101562 C 408.152344 209.960938 408.070312 210.816406 407.902344 211.664062 C 407.738281 212.511719 407.496094 213.332031 407.171875 214.132812 C 406.847656 214.929688 406.449219 215.691406 405.976562 216.414062 C 405.507812 217.136719 404.972656 217.808594 404.371094 218.425781 C 403.769531 219.046875 403.117188 219.601562 402.410156 220.09375 C 401.703125 220.585938 400.953125 221.007812 400.164062 221.355469 C 399.375 221.707031 398.5625 221.976562 397.71875 222.164062 C 396.878906 222.355469 396.027344 222.464844 395.164062 222.492188 L 279.023438 222.492188 C 282.703125 215.886719 286.878906 209.613281 291.546875 203.664062 C 296.214844 197.71875 301.316406 192.171875 306.859375 187.027344 C 312.398438 181.882812 318.308594 177.207031 324.585938 172.992188 C 330.863281 168.777344 337.433594 165.078125 344.292969 161.898438 Z M 387.601562 421.675781 C 387.644531 426.058594 388.496094 430.277344 390.160156 434.332031 C 387.457031 434.066406 384.761719 433.726562 382.078125 433.308594 C 379.394531 432.890625 376.722656 432.394531 374.066406 431.824219 C 371.410156 431.253906 368.773438 430.605469 366.152344 429.886719 C 363.53125 429.164062 360.9375 428.371094 358.363281 427.5 C 355.789062 426.628906 353.242188 425.6875 350.71875 424.675781 C 348.199219 423.660156 345.710938 422.574219 343.25 421.417969 C 340.792969 420.261719 338.371094 419.035156 335.980469 417.742188 C 333.59375 416.445312 331.242188 415.085938 328.929688 413.65625 C 326.621094 412.226562 324.351562 410.734375 322.125 409.175781 C 319.902344 407.617188 317.722656 405.996094 315.585938 404.3125 C 313.453125 402.632812 311.371094 400.890625 309.335938 399.089844 C 307.304688 397.289062 305.320312 395.429688 303.394531 393.515625 C 301.464844 391.601562 299.59375 389.632812 297.777344 387.613281 C 295.960938 385.589844 294.207031 383.519531 292.507812 381.398438 C 290.8125 379.277344 289.175781 377.109375 287.601562 374.894531 C 286.027344 372.679688 284.519531 370.421875 283.074219 368.121094 C 281.628906 365.820312 280.25 363.480469 278.9375 361.101562 C 277.625 358.722656 276.382812 356.308594 275.207031 353.859375 C 274.035156 351.410156 272.933594 348.925781 271.898438 346.414062 C 270.867188 343.902344 269.90625 341.359375 269.019531 338.792969 C 268.132812 336.226562 267.320312 333.632812 266.578125 331.019531 C 265.839844 328.40625 265.175781 325.773438 264.585938 323.121094 C 263.996094 320.46875 263.484375 317.800781 263.046875 315.121094 C 262.609375 312.4375 262.246094 309.746094 261.964844 307.046875 C 261.679688 304.34375 261.472656 301.636719 261.34375 298.921875 C 261.214844 296.207031 261.164062 293.492188 261.1875 290.777344 C 261.214844 288.058594 261.316406 285.347656 261.496094 282.636719 C 261.679688 279.925781 261.933594 277.222656 262.269531 274.523438 C 262.605469 271.828125 263.015625 269.144531 263.503906 266.472656 C 263.992188 263.800781 264.554688 261.144531 265.195312 258.503906 C 265.832031 255.863281 266.546875 253.242188 267.335938 250.640625 C 268.125 248.042969 268.988281 245.46875 269.921875 242.917969 L 395.191406 242.917969 C 396.285156 242.894531 397.378906 242.820312 398.46875 242.695312 C 399.554688 242.566406 400.636719 242.386719 401.707031 242.15625 C 402.777344 241.921875 403.832031 241.640625 404.878906 241.304688 C 405.921875 240.96875 406.945312 240.585938 407.953125 240.152344 C 408.957031 239.71875 409.941406 239.234375 410.898438 238.707031 C 411.859375 238.175781 412.789062 237.601562 413.695312 236.984375 C 414.597656 236.363281 415.46875 235.703125 416.308594 234.996094 C 417.148438 234.292969 417.953125 233.550781 418.71875 232.765625 C 419.484375 231.984375 420.214844 231.167969 420.902344 230.316406 C 421.589844 229.460938 422.234375 228.578125 422.835938 227.664062 C 423.4375 226.746094 423.996094 225.804688 424.503906 224.835938 C 425.015625 223.867188 425.480469 222.875 425.894531 221.859375 C 426.308594 220.84375 426.671875 219.8125 426.984375 218.765625 C 427.300781 217.714844 427.5625 216.652344 427.773438 215.578125 C 427.984375 214.5 428.144531 213.417969 428.25 212.328125 C 428.355469 211.238281 428.410156 210.144531 428.410156 209.050781 C 428.410156 207.953125 428.355469 206.859375 428.25 205.769531 C 428.144531 204.679688 427.984375 203.597656 427.773438 202.523438 C 427.5625 201.445312 427.300781 200.382812 426.984375 199.335938 C 426.671875 198.285156 426.308594 197.253906 425.894531 196.238281 C 425.480469 195.222656 425.015625 194.234375 424.503906 193.261719 C 423.996094 192.292969 423.4375 191.351562 422.835938 190.4375 C 422.234375 189.519531 421.589844 188.636719 420.902344 187.785156 C 420.214844 186.929688 419.484375 186.113281 418.71875 185.332031 C 417.953125 184.550781 417.148438 183.804688 416.308594 183.101562 C 415.46875 182.398438 414.597656 181.734375 413.695312 181.117188 C 412.789062 180.496094 411.859375 179.921875 410.898438 179.390625 C 409.941406 178.863281 408.957031 178.378906 407.953125 177.945312 C 406.945312 177.511719 405.921875 177.128906 404.878906 176.792969 C 403.832031 176.460938 402.777344 176.175781 401.707031 175.945312 C 400.636719 175.710938 399.554688 175.53125 398.46875 175.40625 C 397.378906 175.277344 396.285156 175.203125 395.191406 175.183594 L 377.863281 175.183594 C 376.996094 175.167969 376.140625 175.074219 375.292969 174.894531 C 374.445312 174.714844 373.621094 174.453125 372.824219 174.113281 C 372.027344 173.769531 371.273438 173.355469 370.558594 172.867188 C 369.84375 172.378906 369.179688 171.824219 368.574219 171.207031 C 367.96875 170.589844 367.425781 169.917969 366.949219 169.191406 C 366.476562 168.46875 366.074219 167.707031 365.746094 166.902344 C 365.421875 166.101562 365.175781 165.273438 365.011719 164.421875 C 364.847656 163.574219 364.765625 162.714844 364.769531 161.847656 C 364.769531 160.300781 365.03125 158.800781 365.5625 157.34375 C 366.09375 155.890625 366.855469 154.574219 367.855469 153.390625 C 379.835938 150.15625 392.03125 148.511719 404.445312 148.460938 C 483.933594 148.460938 548.859375 213.816406 547.707031 293.363281 L 362.324219 293.363281 C 344.074219 293.363281 329.230469 308.550781 329.230469 327.222656 C 329.230469 345.894531 344.074219 361.082031 362.324219 361.082031 L 427.839844 361.082031 C 434.789062 361.082031 440.445312 367.097656 440.445312 374.480469 C 440.445312 381.863281 434.789062 387.867188 427.839844 387.867188 L 420.644531 387.867188 C 402.394531 387.867188 387.550781 403.121094 387.550781 421.726562 Z M 408.078125 421.675781 C 408.078125 414.292969 413.75 408.289062 420.699219 408.289062 L 427.890625 408.289062 C 446.140625 408.289062 460.972656 393.101562 460.972656 374.429688 C 460.972656 355.757812 446.140625 340.554688 427.890625 340.554688 L 362.324219 340.554688 C 355.375 340.554688 349.707031 334.554688 349.707031 327.171875 C 349.707031 319.785156 355.375 313.785156 362.324219 313.785156 L 545.902344 313.785156 C 544.453125 322.9375 542.128906 331.859375 538.925781 340.554688 L 519.550781 340.554688 C 501.300781 340.554688 486.46875 355.746094 486.46875 374.429688 C 486.464844 376.847656 486.714844 379.242188 487.21875 381.609375 C 487.726562 383.972656 488.476562 386.261719 489.46875 388.46875 C 490.460938 390.671875 491.675781 392.75 493.113281 394.699219 C 494.546875 396.648438 496.171875 398.421875 497.984375 400.023438 C 492.375 404.910156 486.414062 409.328125 480.109375 413.28125 C 473.804688 417.234375 467.230469 420.671875 460.386719 423.589844 C 453.542969 426.511719 446.511719 428.882812 439.296875 430.699219 C 432.082031 432.519531 424.769531 433.761719 417.355469 434.433594 C 416.683594 434.226562 416.03125 433.964844 415.398438 433.652344 C 414.765625 433.339844 414.164062 432.980469 413.589844 432.570312 C 413.015625 432.160156 412.476562 431.710938 411.976562 431.214844 C 411.472656 430.71875 411.011719 430.1875 410.597656 429.621094 C 410.179688 429.050781 409.808594 428.453125 409.488281 427.828125 C 409.164062 427.199219 408.894531 426.550781 408.675781 425.878906 C 408.460938 425.210938 408.296875 424.527344 408.1875 423.828125 C 408.078125 423.132812 408.023438 422.433594 408.027344 421.726562 Z M 512.613281 385.398438 C 511.742188 384.773438 510.957031 384.054688 510.257812 383.242188 C 509.558594 382.429688 508.964844 381.546875 508.476562 380.59375 C 507.984375 379.640625 507.617188 378.644531 507.367188 377.601562 C 507.117188 376.558594 506.992188 375.5 506.996094 374.429688 C 506.996094 367.046875 512.652344 361.03125 519.601562 361.03125 L 529.671875 361.03125 C 524.816406 369.765625 519.113281 377.902344 512.5625 385.449219 Z M 512.613281 385.398438 " fill-opacity="1" fill-rule="nonzero"/></svg>