<svg xmlns="http://www.w3.org/2000/svg" xmlns:xlink="http://www.w3.org/1999/xlink" width="1024" zoomAndPan="magnify" viewBox="0 0 768 767.999994" height="1024" preserveAspectRatio="xMidYMid meet" version="1.0"><defs><clipPath id="id1"><path d="M 384 384 L 679.921875 384 L 679.921875 679.921875 L 384 679.921875 Z M 384 384 " clip-rule="nonzero"/></clipPath><clipPath id="id2"><path d="M 384 88.171875 L 679.921875 88.171875 L 679.921875 385 L 384 385 Z M 384 88.171875 " clip-rule="nonzero"/></clipPath><clipPath id="id3"><path d="M 88.171875 88.171875 L 385 88.171875 L 385 385 L 88.171875 385 Z M 88.171875 88.171875 " clip-rule="nonzero"/></clipPath><clipPath id="id4"><path d="M 88.171875 384 L 385 384 L 385 679.921875 L 88.171875 679.921875 Z M 88.171875 384 " clip-rule="nonzero"/></clipPath></defs><g clip-path="url(#id1)"><path fill="#1ea6bc" d="M 384.046875 384.046875 L 384.046875 679.921875 C 431.386719 679.921875 476.101562 668.804688 515.757812 649.046875 C 613.0625 600.609375 679.921875 500.105469 679.921875 384.046875 Z M 384.046875 384.046875 " fill-opacity="1" fill-rule="nonzero"/></g><g clip-path="url(#id2)"><path fill="#53b599" d="M 384.046875 88.171875 L 384.046875 384.046875 L 679.921875 384.046875 C 679.921875 220.648438 547.445312 88.171875 384.046875 88.171875 Z M 384.046875 88.171875 " fill-opacity="1" fill-rule="nonzero"/></g><g clip-path="url(#id3)"><path fill="#f48ca7" d="M 175.597656 174.070312 C 121.625 227.664062 88.171875 301.964844 88.171875 384.046875 L 384.046875 384.046875 L 384.046875 88.171875 C 302.730469 88.171875 229.09375 120.957031 175.597656 174.070312 Z M 175.597656 174.070312 " fill-opacity="1" fill-rule="nonzero"/></g><g clip-path="url(#id4)"><path fill="#ffc05a" d="M 88.171875 384.046875 C 88.171875 547.445312 220.648438 679.921875 384.046875 679.921875 L 384.046875 384.046875 Z M 88.171875 384.046875 " fill-opacity="1" fill-rule="nonzero"/></g><path fill="#acccc6" d="M 574.550781 488.652344 L 574.550781 584.335938 C 574.550781 592.210938 568.15625 598.652344 560.234375 598.652344 L 517.574219 598.652344 C 517.667969 598.175781 517.714844 597.699219 517.714844 597.171875 L 517.714844 561.332031 C 517.714844 559.664062 517.238281 558.039062 516.425781 556.609375 C 515.570312 555.226562 514.328125 554.078125 512.800781 553.316406 C 507.167969 550.5 500.679688 547.304688 493.519531 544.105469 L 493.519531 488.652344 Z M 574.550781 488.652344 " fill-opacity="1" fill-rule="nonzero"/><path fill="#d6eae8" d="M 574.550781 479.632812 L 574.550781 488.652344 L 493.519531 488.652344 L 493.519531 479.632812 C 493.519531 462.882812 505.023438 448.804688 520.53125 444.84375 L 520.53125 421.128906 L 547.542969 421.128906 L 547.542969 444.84375 C 563.050781 448.804688 574.550781 462.882812 574.550781 479.632812 Z M 574.550781 479.632812 " fill-opacity="1" fill-rule="nonzero"/><path fill="#acccc6" d="M 547.542969 407.621094 L 547.542969 421.128906 L 520.53125 421.128906 L 520.53125 407.621094 C 520.53125 405.140625 522.582031 403.136719 525.066406 403.136719 L 543.054688 403.136719 C 545.539062 403.136719 547.542969 405.140625 547.542969 407.621094 Z M 547.542969 407.621094 " fill-opacity="1" fill-rule="nonzero"/><path fill="#e58e1a" d="M 503.734375 582.714844 C 505.59375 586.625 503.78125 591.398438 499.675781 593.355469 C 495.574219 595.3125 490.753906 593.738281 488.84375 589.824219 C 486.984375 585.910156 488.796875 581.136719 492.902344 579.179688 C 497.003906 577.175781 501.824219 578.800781 503.734375 582.714844 Z M 503.734375 582.714844 " fill-opacity="1" fill-rule="nonzero"/><path fill="#e58e1a" d="M 465.460938 590.636719 C 468.992188 592.6875 470.183594 597.171875 467.226562 602.277344 C 464.648438 606.71875 459.78125 608.625 456.25 606.621094 C 452.71875 604.570312 451.574219 600.035156 454.484375 594.976562 C 457.300781 590.15625 461.976562 588.628906 465.460938 590.636719 Z M 465.460938 590.636719 " fill-opacity="1" fill-rule="nonzero"/><path fill="#e58e1a" d="M 449.28125 543.820312 C 453.863281 543.820312 457.539062 546.921875 457.539062 550.691406 C 457.539062 554.507812 453.863281 557.609375 449.28125 557.609375 C 444.75 557.609375 441.027344 554.507812 441.027344 550.691406 C 441.027344 546.921875 444.75 543.820312 449.28125 543.820312 Z M 449.28125 543.820312 " fill-opacity="1" fill-rule="nonzero"/><path fill="#ffc05a" d="M 517.714844 561.332031 L 517.714844 597.171875 C 517.714844 597.699219 517.667969 598.175781 517.574219 598.652344 C 517.238281 600.847656 516.09375 602.851562 514.375 604.234375 C 498.628906 616.882812 470.519531 621.128906 447.328125 622.320312 C 446.898438 616.738281 442.507812 612.347656 437.113281 612.347656 C 431.578125 612.347656 427.09375 616.929688 426.855469 622.65625 C 416.308594 622.511719 409.339844 621.890625 409.339844 621.890625 C 406.09375 607.289062 404.566406 582.234375 404.042969 571.738281 C 403.945312 570.113281 403.945312 568.492188 404.089844 566.917969 C 416.6875 569.445312 483.976562 577.035156 516.378906 556.609375 L 516.425781 556.609375 C 517.238281 558.039062 517.714844 559.664062 517.714844 561.332031 Z M 499.675781 593.355469 C 503.78125 591.398438 505.59375 586.625 503.734375 582.714844 C 501.824219 578.800781 497.003906 577.175781 492.902344 579.179688 C 488.796875 581.136719 486.984375 585.910156 488.84375 589.824219 C 490.753906 593.738281 495.574219 595.3125 499.675781 593.355469 Z M 467.226562 602.277344 C 470.183594 597.171875 468.992188 592.6875 465.460938 590.636719 C 461.976562 588.628906 457.300781 590.15625 454.484375 594.976562 C 451.574219 600.035156 452.71875 604.570312 456.25 606.621094 C 459.78125 608.625 464.648438 606.71875 467.226562 602.277344 Z M 467.226562 602.277344 " fill-opacity="1" fill-rule="nonzero"/><path fill="#f9b132" d="M 516.425781 556.609375 L 516.378906 556.609375 C 483.976562 577.035156 416.6875 569.445312 404.089844 566.917969 C 404.234375 564.816406 404.566406 562.765625 405.1875 560.714844 C 408.480469 549.355469 415.449219 539.714844 419.839844 534.371094 C 422.273438 531.460938 425.804688 529.695312 429.621094 529.457031 C 452.335938 528.167969 475.050781 535.945312 493.519531 544.105469 C 500.679688 547.304688 507.167969 550.5 512.800781 553.316406 C 514.328125 554.078125 515.570312 555.226562 516.425781 556.609375 Z M 457.539062 550.691406 C 457.539062 546.921875 453.863281 543.820312 449.28125 543.820312 C 444.75 543.820312 441.027344 546.921875 441.027344 550.691406 C 441.027344 554.507812 444.75 557.609375 449.28125 557.609375 C 453.863281 557.609375 457.539062 554.507812 457.539062 550.691406 Z M 457.539062 550.691406 " fill-opacity="1" fill-rule="nonzero"/><path fill="#ad6a6a" d="M 644.894531 299.199219 C 646.660156 307.070312 642.414062 314.230469 635.875 317 C 639.261719 320.769531 640.933594 326.066406 639.3125 331.839844 C 637.832031 337.089844 633.441406 341.242188 628.097656 342.480469 C 617.933594 344.773438 608.960938 337.136719 608.960938 327.402344 L 589.871094 318.859375 C 596.742188 311.175781 597.363281 301.011719 596.886719 294.570312 C 596.839844 293.996094 596.742188 293.421875 596.601562 292.898438 L 615.019531 298.050781 C 617.40625 290.609375 625.183594 285.644531 633.726562 287.746094 C 639.261719 289.128906 643.652344 293.664062 644.894531 299.199219 Z M 644.894531 299.199219 " fill-opacity="1" fill-rule="nonzero"/><path fill="#9e4949" d="M 596.886719 294.570312 C 597.363281 301.011719 596.742188 311.175781 589.871094 318.859375 C 587.390625 321.578125 583.523438 322.582031 579.992188 321.484375 L 565.34375 316.949219 C 563.578125 316.378906 561.621094 317 560.378906 318.382812 C 515.617188 368.300781 433.199219 346.730469 428.191406 345.34375 C 447.515625 348.972656 470.328125 316.472656 479.253906 272.570312 C 488.128906 228.953125 480.015625 190.390625 461.070312 185.761719 C 469.183594 187.671875 556.273438 209.71875 572.597656 277.199219 C 572.976562 278.726562 574.027344 279.964844 575.507812 280.539062 L 590.777344 286.359375 C 593.6875 287.507812 595.835938 289.941406 596.601562 292.898438 C 596.742188 293.421875 596.839844 293.996094 596.886719 294.570312 Z M 525.304688 311.558594 C 525.304688 308.933594 523.203125 306.785156 520.53125 306.785156 C 517.90625 306.785156 515.757812 308.933594 515.757812 311.558594 C 515.757812 314.183594 517.90625 316.328125 520.53125 316.328125 C 523.203125 316.328125 525.304688 314.183594 525.304688 311.558594 Z M 500.871094 329.121094 C 500.871094 326.445312 498.722656 324.347656 496.097656 324.347656 C 493.472656 324.347656 491.324219 326.445312 491.324219 329.121094 C 491.324219 331.742188 493.472656 333.890625 496.097656 333.890625 C 498.722656 333.890625 500.871094 331.742188 500.871094 329.121094 Z M 500.871094 329.121094 " fill-opacity="1" fill-rule="nonzero"/><path fill="#fec4b9" d="M 525.304688 311.558594 C 525.304688 311.871094 525.273438 312.179688 525.210938 312.488281 C 525.152344 312.796875 525.058594 313.09375 524.941406 313.382812 C 524.820312 313.671875 524.671875 313.949219 524.5 314.210938 C 524.324219 314.46875 524.128906 314.710938 523.90625 314.933594 C 523.683594 315.152344 523.441406 315.351562 523.183594 315.527344 C 522.921875 315.699219 522.648438 315.847656 522.359375 315.964844 C 522.066406 316.085938 521.769531 316.175781 521.460938 316.238281 C 521.15625 316.300781 520.84375 316.328125 520.53125 316.328125 C 520.21875 316.328125 519.90625 316.300781 519.601562 316.238281 C 519.292969 316.175781 518.996094 316.085938 518.707031 315.964844 C 518.414062 315.847656 518.140625 315.699219 517.878906 315.527344 C 517.621094 315.351562 517.378906 315.152344 517.15625 314.933594 C 516.933594 314.710938 516.738281 314.46875 516.5625 314.210938 C 516.390625 313.949219 516.242188 313.671875 516.121094 313.382812 C 516.003906 313.09375 515.910156 312.796875 515.851562 312.488281 C 515.789062 312.179688 515.757812 311.871094 515.757812 311.558594 C 515.757812 311.246094 515.789062 310.933594 515.851562 310.625 C 515.910156 310.320312 516.003906 310.019531 516.121094 309.730469 C 516.242188 309.441406 516.390625 309.167969 516.5625 308.90625 C 516.738281 308.644531 516.933594 308.40625 517.15625 308.183594 C 517.378906 307.960938 517.621094 307.765625 517.878906 307.589844 C 518.140625 307.414062 518.414062 307.269531 518.707031 307.148438 C 518.996094 307.027344 519.292969 306.9375 519.601562 306.878906 C 519.90625 306.816406 520.21875 306.785156 520.53125 306.785156 C 520.84375 306.785156 521.15625 306.816406 521.460938 306.878906 C 521.769531 306.9375 522.066406 307.027344 522.359375 307.148438 C 522.648438 307.269531 522.921875 307.414062 523.183594 307.589844 C 523.441406 307.765625 523.683594 307.960938 523.90625 308.183594 C 524.128906 308.40625 524.324219 308.644531 524.5 308.90625 C 524.671875 309.167969 524.820312 309.441406 524.941406 309.730469 C 525.058594 310.019531 525.152344 310.320312 525.210938 310.625 C 525.273438 310.933594 525.304688 311.246094 525.304688 311.558594 Z M 525.304688 311.558594 " fill-opacity="1" fill-rule="nonzero"/><path fill="#fec4b9" d="M 500.871094 329.121094 C 500.871094 329.433594 500.839844 329.742188 500.777344 330.050781 C 500.71875 330.359375 500.625 330.65625 500.507812 330.945312 C 500.386719 331.234375 500.238281 331.511719 500.066406 331.769531 C 499.890625 332.03125 499.695312 332.273438 499.472656 332.492188 C 499.25 332.714844 499.007812 332.914062 498.75 333.085938 C 498.488281 333.261719 498.214844 333.410156 497.925781 333.527344 C 497.632812 333.648438 497.335938 333.738281 497.027344 333.800781 C 496.722656 333.859375 496.410156 333.890625 496.097656 333.890625 C 495.785156 333.890625 495.472656 333.859375 495.167969 333.800781 C 494.859375 333.738281 494.5625 333.648438 494.273438 333.527344 C 493.980469 333.410156 493.707031 333.261719 493.445312 333.085938 C 493.1875 332.914062 492.945312 332.714844 492.722656 332.492188 C 492.5 332.273438 492.304688 332.03125 492.128906 331.769531 C 491.957031 331.511719 491.808594 331.234375 491.6875 330.945312 C 491.570312 330.65625 491.476562 330.359375 491.417969 330.050781 C 491.355469 329.742188 491.324219 329.433594 491.324219 329.121094 C 491.324219 328.804688 491.355469 328.496094 491.417969 328.1875 C 491.476562 327.882812 491.570312 327.582031 491.6875 327.292969 C 491.808594 327.003906 491.957031 326.730469 492.128906 326.46875 C 492.304688 326.207031 492.5 325.964844 492.722656 325.746094 C 492.945312 325.523438 493.1875 325.324219 493.445312 325.152344 C 493.707031 324.976562 493.980469 324.832031 494.273438 324.710938 C 494.5625 324.589844 494.859375 324.5 495.167969 324.4375 C 495.472656 324.378906 495.785156 324.347656 496.097656 324.347656 C 496.410156 324.347656 496.722656 324.378906 497.027344 324.4375 C 497.335938 324.5 497.632812 324.589844 497.925781 324.710938 C 498.214844 324.832031 498.488281 324.976562 498.75 325.152344 C 499.007812 325.324219 499.25 325.523438 499.472656 325.746094 C 499.695312 325.964844 499.890625 326.207031 500.066406 326.46875 C 500.238281 326.730469 500.386719 327.003906 500.507812 327.292969 C 500.625 327.582031 500.71875 327.882812 500.777344 328.1875 C 500.839844 328.496094 500.871094 328.804688 500.871094 329.121094 Z M 500.871094 329.121094 " fill-opacity="1" fill-rule="nonzero"/><path fill="#ad6a6a" d="M 461.070312 185.761719 C 480.015625 190.390625 488.128906 228.953125 479.253906 272.570312 C 470.328125 316.472656 447.515625 348.972656 428.191406 345.34375 C 428.046875 345.296875 427.953125 345.296875 427.953125 345.296875 C 408.574219 341.382812 400.175781 302.394531 409.148438 258.300781 C 418.121094 214.207031 441.074219 181.660156 460.449219 185.621094 C 460.449219 185.621094 460.640625 185.667969 461.070312 185.761719 Z M 454.675781 265.648438 C 457.203125 253.242188 454.292969 242.121094 448.136719 240.882812 C 441.980469 239.640625 434.917969 248.707031 432.390625 261.117188 C 429.859375 273.570312 432.820312 284.691406 438.976562 285.929688 C 445.132812 287.171875 452.144531 278.105469 454.675781 265.648438 Z M 454.675781 265.648438 " fill-opacity="1" fill-rule="nonzero"/><path fill="#9e4949" d="M 448.136719 240.882812 C 454.292969 242.121094 457.203125 253.242188 454.675781 265.648438 C 452.144531 278.105469 445.132812 287.171875 438.976562 285.929688 C 432.820312 284.691406 429.859375 273.570312 432.390625 261.117188 C 434.917969 248.707031 441.980469 239.640625 448.136719 240.882812 Z M 448.136719 240.882812 " fill-opacity="1" fill-rule="nonzero"/><path fill="#dfa3a5" d="M 360.472656 273.667969 L 360.472656 348.351562 C 360.472656 353.074219 356.988281 357.132812 352.3125 357.800781 L 302.921875 364.957031 L 306.640625 273.238281 C 308.695312 244.460938 334.703125 230.429688 336.324219 212.25 C 341.671875 236.683594 358.992188 248.613281 360.472656 273.667969 Z M 360.472656 273.667969 " fill-opacity="1" fill-rule="nonzero"/><path fill="#dfa3a5" d="M 336.324219 188.386719 L 336.324219 212.25 L 188.386719 212.25 L 188.386719 188.386719 C 188.386719 185.761719 190.535156 183.617188 193.160156 183.617188 L 331.554688 183.617188 C 334.179688 183.617188 336.324219 185.761719 336.324219 188.386719 Z M 336.324219 188.386719 " fill-opacity="1" fill-rule="nonzero"/><path fill="#fec4b9" d="M 252.8125 249.855469 L 252.859375 249.855469 C 290.558594 242.503906 274.8125 221.507812 255.199219 236.109375 C 248.945312 214.636719 224.941406 234.34375 253.097656 248.757812 C 253.003906 249.136719 252.90625 249.472656 252.8125 249.855469 Z M 248.277344 264.171875 C 247.800781 265.457031 247.324219 266.746094 246.75 268.035156 C 235.203125 242.359375 217.019531 250.855469 239.546875 283.257812 C 240.308594 281.78125 241.074219 280.300781 241.835938 278.773438 C 284.261719 282.636719 280.871094 258.777344 248.277344 264.171875 Z M 202.226562 336.039062 C 252.429688 344.675781 247.46875 317.425781 211.722656 324.730469 C 201.320312 284.644531 185.429688 313.464844 202.226562 336.039062 Z M 222.03125 311.082031 C 222.558594 310.414062 223.035156 309.746094 223.511719 309.027344 L 223.558594 309.027344 C 259.253906 315.472656 274.90625 289.988281 233.53125 293.851562 L 233.484375 293.851562 C 232.625 295.285156 231.71875 296.714844 230.8125 298.148438 C 222.507812 267.988281 202.273438 278.058594 222.03125 311.082031 Z M 188.386719 212.25 L 336.324219 212.25 C 334.703125 230.429688 308.695312 244.460938 306.640625 273.238281 L 302.921875 364.957031 L 159.753906 364.957031 L 159.753906 264.742188 C 159.753906 241.453125 173.070312 228.140625 188.386719 212.25 Z M 188.386719 212.25 " fill-opacity="1" fill-rule="nonzero"/><path fill="#ef9d26" d="M 321.578125 539.574219 C 339.664062 539.859375 349.164062 560.09375 331.933594 573.742188 C 324.917969 579.324219 325.875 580.613281 322.296875 586.578125 C 306.929688 612.15625 267.652344 617.453125 242.265625 605.808594 C 240.738281 605.09375 239.019531 604.855469 237.351562 605.09375 C 212.871094 608.292969 204.804688 585.148438 220.601562 570.589844 C 222.03125 569.304688 223.035156 567.632812 223.464844 565.773438 C 224.609375 560.714844 226.421875 556.179688 228.855469 552.125 C 244.9375 525.066406 286.359375 519.339844 309.410156 532.84375 C 311.652344 534.179688 313.753906 535.707031 315.613281 537.378906 C 317.238281 538.855469 319.382812 539.574219 321.578125 539.574219 Z M 280.683594 587.4375 C 280.683594 584.8125 278.582031 582.664062 275.910156 582.664062 C 273.285156 582.664062 271.136719 584.8125 271.136719 587.4375 C 271.136719 590.109375 273.285156 592.210938 275.910156 592.210938 C 278.582031 592.210938 280.683594 590.109375 280.683594 587.4375 Z M 264.742188 593.878906 C 264.742188 591.253906 262.59375 589.109375 259.96875 589.109375 C 257.347656 589.109375 255.199219 591.253906 255.199219 593.878906 C 255.199219 596.503906 257.347656 598.652344 259.96875 598.652344 C 262.59375 598.652344 264.742188 596.503906 264.742188 593.878906 Z M 255.199219 579.421875 C 255.199219 576.796875 253.050781 574.648438 250.425781 574.648438 C 247.800781 574.648438 245.652344 576.796875 245.652344 579.421875 C 245.652344 582.042969 247.800781 584.191406 250.425781 584.191406 C 253.050781 584.191406 255.199219 582.042969 255.199219 579.421875 Z M 255.199219 579.421875 " fill-opacity="1" fill-rule="nonzero"/><path fill="#ef9d26" d="M 287.027344 488.367188 L 286.980469 488.367188 C 281.730469 480.777344 275.910156 473.382812 269.609375 466.84375 C 269.609375 466.84375 288.269531 451.90625 289.03125 424.898438 C 289.128906 421.796875 290.609375 418.980469 292.898438 417.308594 C 294.234375 416.308594 295.855469 415.6875 297.625 415.640625 C 318.574219 414.875 333.175781 436.445312 329.738281 451.238281 L 329.789062 451.289062 C 311.84375 474.289062 288.554688 487.507812 287.027344 488.367188 Z M 287.027344 488.367188 " fill-opacity="1" fill-rule="nonzero"/><path fill="#f9b132" d="M 311.175781 433.257812 C 310.65625 430.679688 308.160156 428.980469 305.5625 429.53125 C 302.980469 430.046875 301.308594 432.5625 301.816406 435.144531 C 302.0625 436.371094 307.25 464.054688 287.449219 481.867188 C 285.65625 483.484375 285.433594 486.230469 286.882812 488.171875 C 288.566406 490.4375 291.859375 490.753906 293.957031 488.863281 C 317.726562 467.386719 311.472656 434.714844 311.175781 433.257812 Z M 311.175781 433.257812 " fill-opacity="1" fill-rule="nonzero"/><path fill="#e15c63" d="M 300.914062 512.179688 C 302.871094 516.140625 304.589844 520.007812 306.070312 523.679688 C 307.359375 526.878906 308.503906 529.933594 309.410156 532.84375 C 286.359375 519.339844 244.9375 525.066406 228.855469 552.125 C 228.855469 552.125 160.183594 530.21875 173.308594 481.828125 C 174.546875 477.296875 176.457031 472.523438 179.273438 467.511719 C 183.328125 460.257812 188.769531 453.722656 195.546875 448.996094 C 198.503906 446.898438 201.511719 445.273438 204.519531 443.984375 C 227.375 434.296875 250.617188 446.945312 269.609375 466.84375 C 275.910156 473.382812 281.730469 480.777344 286.980469 488.367188 L 286.980469 488.414062 C 292.324219 496.289062 297.050781 504.402344 300.914062 512.179688 Z M 300.914062 512.179688 " fill-opacity="1" fill-rule="nonzero"/><path fill="#e58e1a" d="M 300.914062 512.179688 C 297.050781 504.402344 292.324219 496.289062 286.980469 488.414062 L 286.980469 488.367188 L 287.027344 488.367188 C 288.554688 487.507812 311.84375 474.289062 329.789062 451.289062 C 331.171875 449.472656 332.554688 447.613281 333.890625 445.65625 C 336.375 442.027344 340.285156 439.976562 344.34375 439.644531 C 347.875 439.355469 351.5 440.359375 354.363281 442.792969 C 381.230469 465.414062 353.601562 525.542969 306.070312 523.679688 C 304.589844 520.007812 302.871094 516.140625 300.914062 512.179688 Z M 300.914062 512.179688 " fill-opacity="1" fill-rule="nonzero"/><path fill="#ffc05a" d="M 280.683594 587.4375 C 280.683594 587.75 280.652344 588.0625 280.589844 588.367188 C 280.527344 588.675781 280.4375 588.972656 280.320312 589.261719 C 280.199219 589.554688 280.050781 589.828125 279.878906 590.089844 C 279.703125 590.347656 279.503906 590.589844 279.285156 590.8125 C 279.0625 591.035156 278.820312 591.230469 278.5625 591.40625 C 278.300781 591.578125 278.023438 591.726562 277.734375 591.847656 C 277.445312 591.964844 277.148438 592.058594 276.839844 592.117188 C 276.535156 592.179688 276.222656 592.210938 275.910156 592.210938 C 275.597656 592.210938 275.285156 592.179688 274.980469 592.117188 C 274.671875 592.058594 274.371094 591.964844 274.082031 591.847656 C 273.792969 591.726562 273.519531 591.578125 273.257812 591.40625 C 272.996094 591.230469 272.757812 591.035156 272.535156 590.8125 C 272.3125 590.589844 272.117188 590.347656 271.941406 590.089844 C 271.765625 589.828125 271.621094 589.554688 271.5 589.261719 C 271.378906 588.972656 271.289062 588.675781 271.230469 588.367188 C 271.167969 588.0625 271.136719 587.75 271.136719 587.4375 C 271.136719 587.125 271.167969 586.8125 271.230469 586.507812 C 271.289062 586.199219 271.378906 585.902344 271.5 585.609375 C 271.621094 585.320312 271.765625 585.046875 271.941406 584.785156 C 272.117188 584.527344 272.3125 584.285156 272.535156 584.0625 C 272.757812 583.839844 272.996094 583.644531 273.257812 583.46875 C 273.519531 583.296875 273.792969 583.148438 274.082031 583.027344 C 274.371094 582.910156 274.671875 582.816406 274.980469 582.757812 C 275.285156 582.695312 275.597656 582.664062 275.910156 582.664062 C 276.222656 582.664062 276.535156 582.695312 276.839844 582.757812 C 277.148438 582.816406 277.445312 582.910156 277.734375 583.027344 C 278.023438 583.148438 278.300781 583.296875 278.5625 583.46875 C 278.820312 583.644531 279.0625 583.839844 279.285156 584.0625 C 279.503906 584.285156 279.703125 584.527344 279.878906 584.785156 C 280.050781 585.046875 280.199219 585.320312 280.320312 585.609375 C 280.4375 585.902344 280.527344 586.199219 280.589844 586.507812 C 280.652344 586.8125 280.683594 587.125 280.683594 587.4375 Z M 280.683594 587.4375 " fill-opacity="1" fill-rule="nonzero"/><path fill="#3b9b78" d="M 255.199219 236.109375 C 274.8125 221.507812 290.558594 242.503906 252.859375 249.855469 L 252.8125 249.855469 C 252.90625 249.472656 253.003906 249.136719 253.097656 248.757812 C 254.101562 244.507812 254.816406 240.308594 255.199219 236.109375 Z M 255.199219 236.109375 " fill-opacity="1" fill-rule="nonzero"/><path fill="#ffc05a" d="M 264.742188 593.878906 C 264.742188 594.191406 264.710938 594.503906 264.652344 594.8125 C 264.589844 595.117188 264.5 595.417969 264.378906 595.707031 C 264.257812 595.996094 264.113281 596.269531 263.9375 596.53125 C 263.765625 596.792969 263.566406 597.03125 263.34375 597.253906 C 263.125 597.476562 262.882812 597.671875 262.621094 597.847656 C 262.359375 598.023438 262.085938 598.167969 261.796875 598.289062 C 261.507812 598.410156 261.207031 598.5 260.902344 598.558594 C 260.59375 598.621094 260.285156 598.652344 259.96875 598.652344 C 259.65625 598.652344 259.347656 598.621094 259.039062 598.558594 C 258.730469 598.5 258.433594 598.410156 258.144531 598.289062 C 257.855469 598.167969 257.578125 598.023438 257.320312 597.847656 C 257.058594 597.671875 256.816406 597.476562 256.597656 597.253906 C 256.375 597.03125 256.175781 596.792969 256.003906 596.53125 C 255.828125 596.269531 255.679688 595.996094 255.5625 595.707031 C 255.441406 595.417969 255.351562 595.117188 255.289062 594.8125 C 255.230469 594.503906 255.199219 594.191406 255.199219 593.878906 C 255.199219 593.566406 255.230469 593.257812 255.289062 592.949219 C 255.351562 592.640625 255.441406 592.34375 255.5625 592.054688 C 255.679688 591.765625 255.828125 591.488281 256.003906 591.230469 C 256.175781 590.96875 256.375 590.726562 256.597656 590.503906 C 256.816406 590.285156 257.058594 590.085938 257.320312 589.910156 C 257.578125 589.738281 257.855469 589.589844 258.144531 589.472656 C 258.433594 589.351562 258.730469 589.261719 259.039062 589.199219 C 259.347656 589.136719 259.65625 589.109375 259.96875 589.109375 C 260.285156 589.109375 260.59375 589.136719 260.902344 589.199219 C 261.207031 589.261719 261.507812 589.351562 261.796875 589.472656 C 262.085938 589.589844 262.359375 589.738281 262.621094 589.910156 C 262.882812 590.085938 263.125 590.285156 263.34375 590.503906 C 263.566406 590.726562 263.765625 590.96875 263.9375 591.226562 C 264.113281 591.488281 264.257812 591.765625 264.378906 592.054688 C 264.5 592.34375 264.589844 592.640625 264.652344 592.949219 C 264.710938 593.257812 264.742188 593.566406 264.742188 593.878906 Z M 264.742188 593.878906 " fill-opacity="1" fill-rule="nonzero"/><path fill="#3b9b78" d="M 248.277344 264.171875 C 280.871094 258.777344 284.261719 282.636719 241.835938 278.773438 C 243.601562 275.242188 245.273438 271.664062 246.75 268.035156 C 247.324219 266.746094 247.800781 265.457031 248.277344 264.171875 Z M 248.277344 264.171875 " fill-opacity="1" fill-rule="nonzero"/><path fill="#3b9b78" d="M 255.199219 236.109375 C 254.816406 240.308594 254.101562 244.507812 253.097656 248.757812 C 224.941406 234.34375 248.945312 214.636719 255.199219 236.109375 Z M 255.199219 236.109375 " fill-opacity="1" fill-rule="nonzero"/><path fill="#ffc05a" d="M 255.199219 579.421875 C 255.199219 579.734375 255.167969 580.042969 255.105469 580.351562 C 255.046875 580.660156 254.953125 580.957031 254.835938 581.246094 C 254.714844 581.535156 254.566406 581.8125 254.394531 582.070312 C 254.21875 582.332031 254.023438 582.574219 253.800781 582.792969 C 253.578125 583.015625 253.339844 583.214844 253.078125 583.386719 C 252.816406 583.5625 252.542969 583.710938 252.253906 583.828125 C 251.964844 583.949219 251.664062 584.039062 251.355469 584.101562 C 251.050781 584.160156 250.738281 584.191406 250.425781 584.191406 C 250.113281 584.191406 249.800781 584.160156 249.496094 584.101562 C 249.1875 584.039062 248.890625 583.949219 248.601562 583.828125 C 248.308594 583.710938 248.035156 583.5625 247.773438 583.386719 C 247.515625 583.214844 247.273438 583.015625 247.050781 582.792969 C 246.832031 582.574219 246.632812 582.332031 246.457031 582.070312 C 246.285156 581.8125 246.136719 581.535156 246.015625 581.246094 C 245.898438 580.957031 245.808594 580.660156 245.746094 580.351562 C 245.683594 580.042969 245.652344 579.734375 245.652344 579.421875 C 245.652344 579.105469 245.683594 578.796875 245.746094 578.488281 C 245.808594 578.183594 245.898438 577.882812 246.015625 577.59375 C 246.136719 577.304688 246.285156 577.03125 246.457031 576.769531 C 246.632812 576.507812 246.832031 576.265625 247.050781 576.046875 C 247.273438 575.824219 247.515625 575.625 247.773438 575.453125 C 248.035156 575.277344 248.308594 575.132812 248.601562 575.011719 C 248.890625 574.890625 249.1875 574.800781 249.496094 574.738281 C 249.800781 574.679688 250.113281 574.648438 250.425781 574.648438 C 250.738281 574.648438 251.050781 574.679688 251.355469 574.738281 C 251.664062 574.800781 251.964844 574.890625 252.253906 575.011719 C 252.542969 575.132812 252.816406 575.277344 253.078125 575.453125 C 253.339844 575.625 253.578125 575.824219 253.800781 576.046875 C 254.023438 576.265625 254.21875 576.507812 254.394531 576.769531 C 254.566406 577.03125 254.714844 577.304688 254.835938 577.59375 C 254.953125 577.882812 255.046875 578.183594 255.105469 578.488281 C 255.167969 578.796875 255.199219 579.105469 255.199219 579.421875 Z M 255.199219 579.421875 " fill-opacity="1" fill-rule="nonzero"/><path fill="#3b9b78" d="M 233.53125 293.851562 C 274.90625 289.988281 259.253906 315.472656 223.558594 309.027344 L 223.511719 309.027344 L 223.511719 308.980469 C 225.992188 305.542969 228.425781 301.917969 230.8125 298.195312 L 230.8125 298.148438 C 231.71875 296.714844 232.625 295.285156 233.484375 293.851562 Z M 233.53125 293.851562 " fill-opacity="1" fill-rule="nonzero"/><path fill="#3b9b78" d="M 246.75 268.035156 C 245.273438 271.664062 243.601562 275.242188 241.835938 278.773438 C 241.074219 280.300781 240.308594 281.78125 239.546875 283.257812 C 217.019531 250.855469 235.203125 242.359375 246.75 268.035156 Z M 246.75 268.035156 " fill-opacity="1" fill-rule="nonzero"/><path fill="#3b9b78" d="M 230.8125 298.148438 L 230.8125 298.195312 C 228.425781 301.917969 225.992188 305.542969 223.511719 308.980469 L 223.511719 309.027344 C 223.035156 309.746094 222.558594 310.414062 222.03125 311.082031 C 202.273438 278.058594 222.507812 267.988281 230.8125 298.148438 Z M 230.8125 298.148438 " fill-opacity="1" fill-rule="nonzero"/><path fill="#3b9b78" d="M 211.722656 324.730469 C 247.46875 317.425781 252.429688 344.675781 202.226562 336.039062 C 204.996094 332.890625 208.238281 329.121094 211.722656 324.730469 Z M 211.722656 324.730469 " fill-opacity="1" fill-rule="nonzero"/><path fill="#3b9b78" d="M 182.421875 436.96875 C 180.800781 417.5 206.285156 420.746094 204.519531 443.984375 C 201.511719 445.273438 198.503906 446.898438 195.546875 448.996094 C 188.769531 453.722656 183.328125 460.257812 179.273438 467.511719 C 176.457031 472.523438 174.546875 477.296875 173.308594 481.828125 C 149.78125 489.609375 140.238281 463.839844 161.996094 458.589844 C 150.164062 448.664062 165.289062 423.417969 182.421875 436.96875 Z M 182.421875 436.96875 " fill-opacity="1" fill-rule="nonzero"/><path fill="#3b9b78" d="M 211.722656 324.730469 C 208.238281 329.121094 204.996094 332.890625 202.226562 336.039062 C 185.429688 313.464844 201.320312 284.644531 211.722656 324.730469 Z M 211.722656 324.730469 " fill-opacity="1" fill-rule="nonzero"/><path fill="#f9b132" d="M 208.667969 507.835938 C 208.074219 507.835938 207.46875 507.722656 206.875 507.484375 C 204.4375 506.492188 203.261719 503.714844 204.25 501.277344 C 204.617188 500.363281 213.476562 478.878906 229.992188 470.722656 C 232.359375 469.550781 235.210938 470.523438 236.382812 472.890625 C 237.550781 475.253906 236.582031 478.117188 234.214844 479.28125 C 220.980469 485.820312 213.167969 504.671875 213.089844 504.863281 C 212.335938 506.714844 210.550781 507.835938 208.667969 507.835938 Z M 208.667969 507.835938 " fill-opacity="1" fill-rule="nonzero"/><path fill="#f9b132" d="M 237.492188 525.734375 C 236.890625 525.734375 236.28125 525.617188 235.691406 525.375 C 233.25 524.378906 232.082031 521.601562 233.074219 519.160156 C 233.402344 518.355469 241.273438 499.367188 255.890625 492.109375 C 258.257812 490.929688 261.121094 491.898438 262.285156 494.261719 C 263.460938 496.617188 262.496094 499.484375 260.132812 500.65625 C 248.773438 506.296875 241.976562 522.601562 241.90625 522.769531 C 241.152344 524.617188 239.375 525.734375 237.492188 525.734375 Z M 237.492188 525.734375 " fill-opacity="1" fill-rule="nonzero"/><path fill="#ef9d26" d="M 292.902344 422.082031 C 291.363281 422.082031 289.847656 421.335938 288.929688 419.957031 L 284.441406 413.230469 C 282.980469 411.035156 283.574219 408.074219 285.765625 406.609375 C 287.949219 405.144531 290.917969 405.738281 292.382812 407.933594 L 296.867188 414.660156 C 298.328125 416.855469 297.738281 419.816406 295.546875 421.28125 C 294.730469 421.820312 293.808594 422.082031 292.902344 422.082031 Z M 292.902344 422.082031 " fill-opacity="1" fill-rule="nonzero"/><path fill="#ef9d26" d="M 344.335938 444.414062 C 341.800781 444.414062 339.683594 442.414062 339.574219 439.851562 L 339.097656 428.972656 C 338.984375 426.339844 341.019531 424.109375 343.65625 423.996094 C 346.257812 423.75 348.519531 425.914062 348.632812 428.550781 L 349.109375 439.433594 C 349.222656 442.066406 347.1875 444.296875 344.550781 444.410156 C 344.480469 444.414062 344.410156 444.414062 344.335938 444.414062 Z M 344.335938 444.414062 " fill-opacity="1" fill-rule="nonzero"/><path fill="#f9b132" d="M 352.742188 459.398438 C 352.6875 456.800781 350.566406 454.738281 347.96875 454.738281 C 347.949219 454.738281 347.929688 454.738281 347.914062 454.738281 C 345.292969 454.769531 343.183594 456.929688 343.199219 459.546875 C 343.203125 460.675781 342.84375 486.480469 303.410156 505.753906 C 301.144531 506.859375 300.0625 509.484375 300.988281 511.828125 C 302.023438 514.445312 305.074219 515.5625 307.601562 514.328125 C 352.84375 492.207031 352.769531 460.769531 352.742188 459.398438 Z M 352.742188 459.398438 " fill-opacity="1" fill-rule="nonzero"/><path fill="#ad6a6a" d="M 233.527344 298.625 C 232.699219 298.625 231.847656 298.40625 231.085938 297.949219 C 228.824219 296.597656 228.085938 293.667969 229.4375 291.40625 C 231.457031 288.027344 233.421875 284.550781 235.351562 280.992188 C 236.0625 279.609375 236.820312 278.136719 237.574219 276.636719 C 239.480469 272.820312 241.039062 269.417969 242.335938 266.230469 C 242.925781 264.90625 243.363281 263.710938 243.800781 262.519531 C 245.621094 257.898438 247.082031 253.292969 248.179688 248.738281 L 248.472656 247.601562 C 249.449219 243.472656 250.097656 239.550781 250.449219 235.675781 C 250.6875 233.054688 252.984375 231.113281 255.636719 231.355469 C 258.261719 231.59375 260.195312 233.917969 259.957031 236.542969 C 259.558594 240.867188 258.839844 245.222656 257.746094 249.855469 L 257.445312 251.007812 C 256.257812 255.957031 254.664062 260.988281 252.722656 265.917969 C 252.25 267.210938 251.734375 268.589844 251.117188 269.976562 C 249.78125 273.257812 248.125 276.875 246.113281 280.90625 C 245.335938 282.457031 244.566406 283.957031 243.792969 285.445312 C 241.761719 289.214844 239.722656 292.808594 237.632812 296.296875 C 236.734375 297.792969 235.152344 298.625 233.527344 298.625 Z M 233.527344 298.625 " fill-opacity="1" fill-rule="nonzero"/><path fill="#ad6a6a" d="M 230.808594 302.921875 C 229.933594 302.921875 229.050781 302.679688 228.257812 302.179688 C 226.03125 300.769531 225.371094 297.824219 226.78125 295.59375 C 227.667969 294.195312 228.550781 292.804688 229.390625 291.398438 C 230.746094 289.132812 233.675781 288.402344 235.9375 289.757812 C 238.199219 291.109375 238.933594 294.039062 237.578125 296.300781 C 236.695312 297.769531 235.769531 299.234375 234.84375 300.699219 C 233.933594 302.136719 232.386719 302.921875 230.808594 302.921875 Z M 230.808594 302.921875 " fill-opacity="1" fill-rule="nonzero"/><path fill="#ad6a6a" d="M 193.160156 350.640625 C 191.9375 350.640625 190.714844 350.175781 189.785156 349.242188 C 187.921875 347.378906 187.921875 344.363281 189.785156 342.496094 C 189.820312 342.460938 193.339844 338.929688 198.636719 332.890625 C 201.117188 330.074219 204.40625 326.265625 207.984375 321.761719 C 211.445312 317.441406 214.859375 312.921875 218.136719 308.3125 C 218.613281 307.703125 218.96875 307.214844 219.300781 306.734375 C 219.402344 306.542969 219.511719 306.355469 219.640625 306.183594 C 221.921875 303.03125 224.261719 299.570312 226.792969 295.625 C 228.214844 293.398438 231.171875 292.746094 233.382812 294.175781 C 235.605469 295.597656 236.253906 298.546875 234.824219 300.769531 C 232.300781 304.703125 229.953125 308.183594 227.664062 311.382812 C 227.601562 311.480469 227.539062 311.585938 227.472656 311.6875 C 226.921875 312.507812 226.378906 313.277344 225.773438 314.039062 C 222.53125 318.605469 219.011719 323.273438 215.445312 327.714844 C 211.757812 332.371094 208.355469 336.292969 205.804688 339.1875 C 200.28125 345.476562 196.683594 349.089844 196.527344 349.238281 C 195.601562 350.175781 194.382812 350.640625 193.160156 350.640625 Z M 193.160156 350.640625 " fill-opacity="1" fill-rule="nonzero"/></svg>