<svg xmlns="http://www.w3.org/2000/svg" xmlns:xlink="http://www.w3.org/1999/xlink" width="1024" zoomAndPan="magnify" viewBox="0 0 768 767.999994" height="1024" preserveAspectRatio="xMidYMid meet" version="1.0"><path fill="#7fb496" d="M 583.386719 568.472656 C 581.777344 582.605469 579.257812 592.742188 575.914062 600.710938 C 577.394531 601.917969 578.648438 602.953125 579.550781 603.613281 C 582.203125 605.5625 600.996094 618.6875 593.644531 620.550781 C 590.582031 621.328125 585.128906 616.417969 582.777344 614.9375 C 579.234375 612.710938 575.761719 610.386719 572.277344 608.074219 C 567.5625 616.246094 561.679688 622.179688 554.769531 629.152344 C 557.753906 632.464844 565.199219 640.714844 562.496094 643.578125 C 560.570312 645.613281 554.671875 641.277344 548.835938 635.210938 C 546.882812 637.257812 544.863281 639.429688 542.777344 641.804688 C 538.011719 647.21875 532.273438 651.960938 525.542969 655.953125 C 530 664.265625 537.082031 678.070312 534.449219 680.070312 C 532.011719 681.917969 523.984375 671.480469 517.664062 660.054688 C 508.433594 664.289062 497.648438 667.328125 485.238281 669.054688 C 486.394531 675.644531 487.734375 685.101562 484.765625 687.269531 C 479.875 690.84375 477.890625 673.695312 477.453125 671.097656 C 477.398438 670.761719 477.320312 670.378906 477.234375 669.960938 C 466.34375 670.929688 454.320312 670.960938 441.105469 669.976562 C 440.78125 675.105469 439.492188 679.457031 437.089844 680.09375 C 434.886719 680.6875 432.96875 675.382812 432.191406 669.175781 C 427.050781 668.636719 421.757812 667.964844 416.28125 667.136719 C 410.816406 666.308594 405.664062 665.378906 400.746094 664.371094 C 400.246094 665.789062 399.789062 667.027344 399.496094 667.929688 C 398.4375 671.230469 393.789062 686.066406 389.765625 678.703125 C 388.015625 675.503906 390.972656 667.679688 392.714844 662.597656 C 379.007812 659.339844 367.417969 655.363281 357.210938 650.824219 C 351.566406 660.695312 343.082031 670.683594 339.035156 668.566406 C 334.949219 666.425781 344.390625 654.960938 345.847656 652.660156 C 346.632812 651.417969 347.722656 649.296875 349.019531 646.917969 C 338.6875 641.648438 329.738281 635.757812 321.242188 629.449219 C 316.984375 635.402344 311.164062 640.40625 308.757812 638.113281 C 306.496094 635.96875 309.640625 629.359375 313.964844 623.871094 C 308.121094 619.289062 302.371094 614.523438 296.375 609.648438 C 295.738281 609.125 295.09375 608.578125 294.453125 608.011719 C 290.5 612.105469 286.042969 615.761719 284.132812 617.695312 C 281.945312 619.90625 268.992188 634.296875 266.925781 628.414062 C 265.214844 623.539062 280.753906 609.972656 283.621094 606.828125 C 284.746094 605.597656 286.21875 603.625 287.902344 601.5625 C 282.144531 595.300781 276.339844 587.5 270.613281 578.6875 C 265.269531 584.09375 258.175781 589.003906 254.933594 588.789062 C 247.324219 588.28125 257.46875 579.027344 259.414062 577.121094 C 260.882812 575.683594 263.117188 573.085938 265.648438 570.773438 C 261.679688 564.222656 257.769531 557.257812 253.953125 550.050781 C 249.148438 553.535156 243.652344 556.449219 241.207031 558.164062 C 235.433594 562.207031 229.554688 566.023438 223.621094 569.8125 C 219.527344 572.425781 214.617188 576.550781 209.429688 575.304688 C 211.539062 566.277344 227.21875 558.46875 233.886719 553.632812 C 236.804688 551.515625 243.183594 545.539062 249.511719 541.457031 C 244.980469 532.511719 240.613281 523.316406 236.488281 514.191406 C 229.324219 519.894531 218.859375 525.28125 215.273438 524.378906 C 207.46875 522.414062 221.503906 513.625 223.710938 512.105469 C 225.695312 510.742188 229.105469 507.824219 232.699219 505.679688 C 228.027344 495.03125 223.71875 484.617188 219.894531 474.96875 C 210.527344 477.007812 196.980469 476.035156 197.359375 472.667969 C 197.796875 468.769531 207.851562 466.230469 216.449219 466.140625 C 215.457031 463.5625 214.5 461.046875 213.589844 458.621094 C 210.476562 450.320312 208.085938 442.054688 206.25 433.820312 C 203.453125 434.25 200.660156 434.394531 198.800781 434.675781 C 192.769531 435.609375 186.789062 436.816406 180.722656 437.457031 C 178.78125 437.65625 173.441406 438.949219 171.828125 437.429688 C 166.710938 432.613281 185.917969 429.117188 188.332031 428.582031 C 191.195312 427.945312 198.160156 425.625 204.457031 424.808594 C 202.199219 411.921875 201.21875 399.109375 200.992188 386.367188 C 192.589844 388.800781 180.242188 389.222656 178.917969 385.84375 C 177.269531 381.640625 191.492188 377.261719 200.949219 377.835938 C 201.027344 366.710938 201.589844 355.640625 202.285156 344.621094 C 192.53125 346.269531 177.328125 344.449219 177.34375 340.441406 C 177.355469 336.304688 193.113281 334.5625 202.828125 336.386719 C 203.167969 331.324219 203.523438 326.273438 203.851562 321.238281 C 204.496094 311.371094 205.5625 302.972656 206.941406 295.523438 C 203.5625 295.863281 199.699219 295.277344 197.296875 295.207031 C 194.195312 295.121094 175.363281 296.558594 174.164062 291.84375 C 173.261719 288.269531 197.8125 284.34375 208.589844 287.667969 C 211.332031 275.90625 214.878906 266.417969 218.636719 256.605469 C 214.125 255.515625 209.503906 253.550781 207.066406 252.839844 C 203.59375 251.828125 193.347656 250.109375 191.671875 246.335938 C 188.878906 240.046875 200.589844 243.355469 203.445312 243.949219 C 206.777344 244.636719 215.457031 245.59375 221.9375 247.941406 C 224.042969 242.316406 226.164062 236.367188 228.199219 229.648438 C 229.765625 224.492188 231.675781 219.285156 233.8125 214.089844 C 229.21875 212.617188 224.097656 208.460938 221.496094 206.835938 C 219.039062 205.296875 204.527344 197.242188 213.226562 195.15625 C 217.273438 194.183594 230.539062 200.574219 237.027344 206.621094 C 241.707031 196.328125 247.1875 186.191406 252.871094 176.679688 C 252.515625 176.523438 252.152344 176.328125 251.761719 176.054688 C 247.910156 173.300781 244.429688 168.980469 241.253906 165.488281 C 238.933594 162.933594 229.511719 150.777344 239.734375 154.511719 C 242.476562 155.515625 252.453125 163.449219 256.976562 169.953125 C 262.285156 161.453125 267.613281 153.605469 272.472656 146.757812 C 266.253906 139.789062 259.898438 124.59375 263.414062 123.328125 C 267.460938 121.875 274.472656 131.410156 277.679688 139.660156 C 288.015625 126.710938 297.722656 125.734375 310.863281 125.089844 C 310.746094 123.960938 310.679688 122.875 310.613281 121.949219 C 310.347656 118.199219 308.417969 108.652344 310.820312 105.699219 C 316.367188 98.875 317.902344 112.75 318.308594 116.402344 C 318.535156 118.4375 319.269531 121.5625 319.523438 124.625 C 322.925781 124.390625 326.554688 124.046875 330.460938 123.441406 C 337.726562 122.324219 342.582031 120.5625 345.820312 118.621094 C 343.765625 113.382812 344.761719 106.105469 344.699219 100.765625 C 344.652344 96.570312 343.351562 86.527344 346.28125 83.128906 C 351.492188 77.101562 351.792969 91.496094 352.050781 94.585938 C 352.304688 97.726562 353.738281 105.632812 353.644531 112.363281 C 360.785156 107.484375 369.671875 105.703125 377.976562 108.582031 C 380.535156 109.472656 382.941406 110.628906 385.332031 111.996094 C 385.671875 110.472656 385.976562 109.164062 386.140625 108.226562 C 386.691406 105.058594 388.046875 88.707031 392.984375 88.855469 C 395.378906 88.929688 395.71875 104.832031 393.613281 117.441406 C 400.339844 122.230469 408.082031 128.191406 419.488281 134.484375 C 423.3125 130.066406 427.964844 126.027344 429.832031 124.027344 C 432.226562 121.480469 448.382812 103.582031 449.671875 110.882812 C 450.214844 113.96875 443.609375 119.832031 441.878906 121.898438 C 438.292969 126.199219 434.542969 130.355469 430.949219 134.640625 C 430.082031 135.671875 429.015625 137.167969 427.800781 138.785156 C 429.976562 139.839844 432.25 140.894531 434.671875 141.957031 C 442.269531 145.285156 448.511719 149.105469 453.816406 153.359375 C 458.917969 148.726562 464.710938 144.945312 467.472656 145.066406 C 475.511719 145.425781 464.324219 155.601562 462.371094 157.535156 C 461.855469 158.046875 461.230469 158.71875 460.527344 159.472656 C 466.429688 165.554688 471.003906 172.355469 475.074219 179.75 C 488.164062 171.285156 506.023438 163.722656 506.980469 166.050781 C 508.96875 170.871094 483.6875 184.71875 480.539062 186.855469 C 480.140625 187.117188 479.703125 187.445312 479.238281 187.792969 C 483.15625 195.769531 486.886719 204.335938 491.324219 213.371094 C 493.191406 212.378906 494.960938 211.503906 496.34375 210.726562 C 498.769531 209.355469 518.101562 199.609375 515.140625 207.664062 C 514.464844 209.496094 504.574219 216.390625 495.394531 221.339844 C 499.570312 229.203125 504.464844 237.375 510.597656 245.785156 C 514.792969 244.289062 519.066406 243.199219 521.835938 242.140625 C 529.015625 239.390625 543.933594 230.988281 551.496094 234.417969 C 549.929688 241.875 532.960938 246.203125 527.339844 248.539062 C 525.597656 249.261719 521.007812 251.640625 515.921875 253.738281 C 521.074219 262.472656 525.4375 273.390625 529.179688 285.667969 C 537.925781 284.765625 546.183594 285.453125 546.085938 287.664062 C 545.910156 291.515625 534.191406 293.273438 531.554688 293.890625 C 531.554688 293.890625 531.550781 293.890625 531.546875 293.890625 C 534.117188 303.34375 536.371094 313.4375 538.386719 323.835938 C 543.648438 322.433594 548.742188 321.539062 551.144531 320.859375 C 558.945312 318.667969 575.0625 311.308594 582.5625 316.585938 C 577.65625 324.34375 559.921875 326.507812 552.121094 328.894531 C 549.644531 329.652344 545.0625 331.675781 540.152344 333.367188 C 541.832031 342.835938 543.332031 352.46875 544.707031 362.03125 C 546.660156 362.101562 548.328125 362.164062 549.507812 362.121094 C 556.804688 361.847656 564.09375 361.761719 571.394531 361.640625 C 576.945312 361.550781 583.453125 360.597656 588.371094 363.875 C 585.214844 370.777344 563.824219 369.355469 557.941406 369.722656 C 553.929688 369.972656 549.90625 370.1875 545.882812 370.371094 C 547.421875 381.578125 548.808594 392.59375 550.117188 403.019531 C 552.660156 402.539062 554.847656 402.144531 556.289062 401.757812 C 562.699219 400.054688 569.125 398.449219 575.578125 396.917969 C 581.585938 395.496094 589.734375 392 595.710938 394.855469 C 592.863281 399.648438 586.625 400.808594 581.792969 402.359375 C 574.71875 404.636719 567.660156 406.882812 560.511719 408.890625 C 558.511719 409.449219 555.144531 410.742188 551.265625 412.089844 C 552.746094 423.761719 554.164062 434.484375 555.644531 443.636719 C 556.347656 443.363281 556.972656 443.109375 557.46875 442.894531 C 561.105469 441.28125 577.835938 432.644531 581.613281 436.742188 C 585.386719 440.835938 568.667969 446.542969 566.328125 447.617188 C 564.351562 448.53125 560.960938 450.597656 557.214844 452.574219 C 558.191406 457.628906 559.210938 461.96875 560.308594 465.441406 C 561.746094 470 563.257812 474.234375 564.796875 478.246094 C 564.878906 478.222656 564.96875 478.203125 565.046875 478.183594 C 569.082031 477.167969 590.707031 469.195312 593.9375 473.210938 C 597.503906 477.65625 574.199219 483.964844 571.988281 484.597656 C 570.980469 484.886719 569.5625 485.390625 567.886719 485.976562 C 572.347656 496.800781 576.75 506.3125 579.90625 516.902344 C 588.183594 519.265625 595.601562 523.101562 594.660156 525.683594 C 594.078125 527.28125 588.734375 527.566406 582.386719 526.867188 C 584.261719 536.210938 585.066406 546.761719 584.179688 559.796875 C 584.550781 559.976562 584.882812 560.140625 585.171875 560.273438 C 587.765625 561.472656 600.949219 566.914062 592.894531 569.433594 C 591.042969 570.011719 587.503906 569.558594 583.386719 568.472656 " fill-opacity="1" fill-rule="nonzero"/><path fill="#f46a61" d="M 496.375 621.339844 C 455.773438 641.316406 423.289062 624.753906 352.457031 588.210938 C 281.628906 551.671875 273.507812 456.1875 268.089844 436.699219 C 262.675781 417.214844 259.066406 325.136719 258.617188 288.597656 C 258.167969 252.058594 269.894531 218.929688 297.417969 181.90625 C 313.027344 160.902344 333.136719 150.558594 347.621094 145.539062 C 359.636719 141.378906 372.515625 141.378906 384.566406 145.417969 C 437.988281 163.324219 449.257812 215.8125 473.367188 270.082031 C 499.988281 330.007812 493.667969 405.519531 494.121094 444.003906 C 494.574219 482.492188 507.203125 473.726562 524.796875 521.464844 C 542.394531 569.214844 536.980469 601.367188 496.375 621.339844 " fill-opacity="1" fill-rule="nonzero"/><path fill="#2e2e30" d="M 377.035156 145.628906 C 387.003906 149.371094 395.453125 156.308594 403.492188 163.089844 C 410.785156 169.238281 418.03125 175.464844 424.980469 182.003906 C 441.375 197.4375 455.941406 215.355469 463.96875 236.65625 C 464.824219 238.933594 468.085938 238.066406 467.625 235.652344 C 465.515625 224.652344 461.90625 215.808594 455.558594 206.449219 C 449.492188 197.488281 442.273438 189.347656 434.566406 181.78125 C 426.710938 174.0625 418.296875 166.933594 409.859375 159.867188 C 401.394531 152.777344 392.695312 145.570312 382.578125 140.941406 C 361.695312 131.390625 341.125 138.652344 322.859375 150.457031 C 303.554688 162.925781 283.820312 178.554688 271.722656 198.371094 C 257.996094 220.855469 246.082031 249.871094 249.9375 276.53125 C 250.265625 278.808594 253.8125 278.167969 253.851562 276 C 254.261719 252.871094 263.359375 229.800781 274.410156 209.78125 C 285.0625 190.480469 301.320312 176.890625 318.417969 163.46875 C 335.175781 150.3125 355.03125 137.371094 377.035156 145.628906 Z M 548.460938 538.527344 C 543.417969 528.84375 537.90625 519.378906 532.625 509.824219 C 527.640625 500.808594 522.664062 491.796875 517.679688 482.78125 C 512.746094 473.859375 507.066406 464.976562 503.738281 455.296875 C 497.273438 436.457031 502.769531 415.675781 503.554688 396.332031 C 504.429688 374.988281 502.691406 353.636719 498.914062 332.621094 C 496.992188 321.910156 494.871094 311.1875 491.835938 300.726562 C 488.609375 289.574219 483.894531 280.199219 478.082031 270.253906 C 477.046875 268.480469 474.292969 269.660156 474.796875 271.640625 C 477.074219 280.589844 478.8125 289.484375 481.46875 298.375 C 484.109375 307.203125 486.605469 316.070312 488.617188 325.066406 C 492.554688 342.660156 494.226562 360.742188 494.632812 378.746094 C 495.058594 397.414062 492.253906 415.757812 492.078125 434.347656 C 491.921875 451.554688 498.234375 465.300781 506.457031 480.011719 C 516.058594 497.207031 525.675781 514.402344 535.289062 531.597656 C 539.308594 538.792969 544.347656 546.136719 546.101562 554.289062 C 548.230469 564.199219 543.957031 574.277344 539.820312 583.058594 C 532.839844 597.894531 523.140625 611.667969 507.753906 618.558594 C 493.695312 624.851562 477.570312 625.164062 462.507812 623.605469 C 423.238281 619.539062 382.703125 605.96875 347.496094 588.394531 C 345.367188 587.332031 343.539062 590.375 345.617188 591.617188 C 378.066406 610.988281 413.097656 625.4375 450.554688 631.621094 C 482.167969 636.84375 516.191406 633.894531 536.46875 606.105469 C 545.636719 593.535156 554.464844 576.082031 554.71875 560.246094 C 554.847656 552.449219 552.003906 545.324219 548.460938 538.527344 Z M 318.140625 571.175781 C 319.140625 572.667969 317.242188 574.144531 315.859375 573.457031 C 307.269531 569.195312 300.367188 560.394531 294.625 552.921875 C 288.457031 544.890625 283.21875 536.328125 279.09375 527.082031 C 270.496094 507.777344 265.046875 487.316406 260.890625 466.644531 C 250.757812 416.230469 244.660156 364.714844 249.625 313.332031 C 249.839844 311.0625 253.324219 310.988281 253.21875 313.332031 C 250.914062 363.160156 258.605469 413.601562 268.679688 462.277344 C 272.78125 482.117188 277.8125 502.039062 285.914062 520.664062 C 289.929688 529.886719 294.449219 539.09375 299.835938 547.59375 C 305.210938 556.089844 312.625 562.914062 318.140625 571.175781 " fill-opacity="1" fill-rule="nonzero"/><path fill="#ffffff" d="M 490.125 557.246094 C 489.429688 556.875 488.675781 556.578125 487.894531 556.382812 C 486.039062 555.246094 483.683594 554.949219 481.582031 555.445312 C 479.652344 555.902344 477.554688 557.191406 476.488281 558.972656 C 474.972656 560.898438 474.46875 563.539062 475.0625 566.128906 C 475.261719 566.992188 475.644531 567.941406 476.105469 568.6875 C 477.332031 570.683594 479.105469 571.804688 481.238281 572.558594 C 485.664062 574.105469 490.59375 572.1875 493 568.234375 C 494.074219 566.472656 494.355469 564.019531 493.808594 562.046875 C 493.300781 560.179688 491.859375 558.164062 490.125 557.246094 Z M 509.570312 522.992188 C 508.007812 521.5625 506.09375 520.65625 503.933594 520.65625 C 501.890625 520.65625 499.746094 521.546875 498.296875 522.992188 C 496.921875 524.375 495.878906 526.644531 495.964844 528.628906 C 496.058594 530.691406 496.734375 532.832031 498.296875 534.265625 C 499.859375 535.699219 501.777344 536.605469 503.933594 536.605469 C 505.980469 536.605469 508.121094 535.714844 509.570312 534.265625 C 510.953125 532.882812 511.996094 530.613281 511.90625 528.628906 C 511.808594 526.566406 511.132812 524.429688 509.570312 522.992188 Z M 475.019531 465.242188 C 476.265625 463.910156 475.480469 461.164062 473.40625 461.34375 C 468.996094 461.734375 466.25 464.179688 465.835938 468.820312 C 465.417969 473.519531 467.097656 476.894531 463.226562 480.664062 C 460.261719 483.550781 455.953125 484.851562 452.242188 486.4375 C 447.378906 488.515625 443.183594 490.929688 442.203125 496.515625 C 441.214844 502.167969 445.96875 509.371094 442.738281 514.398438 C 440.207031 518.328125 433.601562 519.289062 429.566406 520.96875 C 425.800781 522.535156 422.199219 524.664062 420.222656 528.378906 C 417.65625 533.203125 419.265625 538.25 421.355469 542.902344 C 425.207031 551.476562 425.65625 559.78125 419.507812 567.527344 C 418.128906 569.257812 420.183594 571.292969 421.914062 569.9375 C 431.601562 562.339844 431.878906 551.203125 427.527344 540.578125 C 423.9375 531.816406 427.96875 529.34375 435.40625 526.660156 C 439.476562 525.1875 443.859375 523.820312 447.066406 520.765625 C 450.25 517.738281 451.445312 513.734375 451.183594 509.40625 C 451.023438 506.703125 450.140625 504.109375 449.828125 501.4375 C 449.125 495.417969 453.335938 494.210938 458.246094 492.15625 C 463.382812 490.007812 468.597656 487.410156 471.679688 482.535156 C 472.933594 480.554688 473.714844 478.367188 474.003906 476.042969 C 474.351562 473.214844 472.863281 467.539062 475.019531 465.242188 Z M 357.058594 418.160156 C 355.902344 417.488281 354.652344 417.148438 353.308594 417.148438 C 353.25 417.152344 353.191406 417.164062 353.128906 417.167969 C 352.132812 417.128906 351.207031 417.335938 350.351562 417.792969 C 349.449219 418.082031 348.679688 418.578125 348.027344 419.285156 C 347.648438 419.769531 347.273438 420.257812 346.894531 420.746094 C 346.242188 421.867188 345.914062 423.085938 345.910156 424.386719 C 345.902344 424.449219 345.894531 424.511719 345.886719 424.574219 C 345.890625 425.914062 346.226562 427.164062 346.898438 428.324219 C 347.367188 429.183594 348.003906 429.878906 348.8125 430.40625 C 350.648438 431.820312 353.003906 432.398438 355.28125 431.730469 C 357.703125 431.027344 359.636719 429.394531 360.359375 426.910156 C 360.398438 426.792969 360.429688 426.671875 360.46875 426.546875 C 361.132812 424.269531 360.558594 421.90625 359.140625 420.074219 C 358.617188 419.265625 357.921875 418.625 357.058594 418.160156 Z M 315.023438 270.113281 C 317.890625 269.734375 320.574219 268.695312 323.359375 267.960938 C 326.449219 267.144531 329.53125 267.3125 332.550781 266.375 C 334.148438 265.878906 335.066406 263.570312 333.609375 262.34375 C 328.957031 258.433594 323.730469 260.96875 318.414062 262.570312 C 310.085938 265.078125 301.175781 263.34375 296.308594 255.441406 C 293.890625 251.511719 293.25 247.003906 288.484375 245.199219 C 283.328125 243.25 277.71875 246.074219 273.316406 248.621094 C 271.585938 249.625 273.109375 252.148438 274.875 251.285156 C 279.269531 249.125 285.265625 246.675781 289.289062 251.238281 C 290.804688 252.945312 291.160156 256.722656 292.347656 258.859375 C 294.585938 262.902344 298.179688 266.082031 302.339844 268.058594 C 306.296875 269.945312 310.683594 270.683594 315.023438 270.113281 Z M 350.3125 470.28125 C 344.058594 469.527344 336.875 468.34375 334.554688 461.53125 C 332.460938 455.359375 334.164062 448.992188 329.117188 443.882812 C 325.230469 439.953125 319.804688 439.5625 314.652344 438.8125 C 310.738281 438.234375 307.375 437.675781 305.675781 433.625 C 304.214844 430.144531 304.863281 425.71875 304.460938 422.050781 C 304.199219 419.675781 300.816406 418.105469 299.496094 420.703125 C 295.972656 427.625 295.207031 437.238281 301.339844 443.042969 C 303.984375 445.554688 307.59375 446.695312 311.09375 447.324219 C 315.453125 448.109375 321.648438 447.507812 323.863281 452.246094 C 325.683594 456.132812 324.421875 461.511719 325.898438 465.675781 C 327.082031 469.011719 329.300781 471.773438 332.058594 473.925781 C 337.84375 478.4375 346.445312 480.246094 352.0625 474.5 C 353.691406 472.832031 352.351562 470.523438 350.3125 470.28125 Z M 404.316406 224.570312 C 386.328125 226.265625 384.835938 245.292969 385.394531 259.585938 C 385.511719 262.636719 386.230469 264.421875 383.863281 266.460938 C 381.398438 268.589844 379.234375 267.230469 376.195312 267.566406 C 373.597656 267.855469 371.285156 268.726562 369.25 270.375 C 364.484375 274.226562 362.628906 280.890625 364.976562 286.550781 C 366.867188 291.113281 374.402344 289.09375 372.46875 284.484375 C 371.179688 281.421875 371.664062 278 374.625 276.132812 C 377.449219 274.351562 380.980469 275.636719 384.164062 275.246094 C 388.628906 274.699219 391.746094 271.832031 392.609375 267.410156 C 395.027344 255.070312 386.28125 231.46875 404.699219 227.410156 C 406.265625 227.0625 405.953125 224.417969 404.316406 224.570312 Z M 426.199219 348.035156 C 436.507812 348.035156 436.488281 364.035156 426.199219 364.035156 C 415.890625 364.035156 415.910156 348.035156 426.199219 348.035156 " fill-opacity="1" fill-rule="nonzero"/><path fill="#f6b737" d="M 469.777344 578.484375 C 468.164062 577.585938 466.390625 577.03125 464.5625 576.832031 C 462.503906 576.617188 460.113281 577.871094 458.300781 577.613281 C 456.160156 577.308594 453.285156 573.394531 449.625 573.167969 C 443.8125 572.804688 440.078125 576.863281 439.863281 581.351562 C 436.21875 586.171875 438.734375 593.199219 442.453125 597.785156 C 447.464844 603.96875 455.6875 609.101562 463.746094 605.722656 C 467.195312 604.277344 469.96875 601.492188 471.304688 598.234375 C 471.464844 598.125 471.628906 598.03125 471.777344 597.914062 C 478.753906 592.582031 477.144531 582.585938 469.777344 578.484375 Z M 431.121094 279.886719 C 430.816406 274.5625 426.816406 269.832031 421.214844 269.84375 C 418.632812 269.855469 415.90625 271.019531 413.960938 272.886719 C 413.578125 273.160156 412.335938 274.160156 412.515625 274.007812 C 412.242188 274.242188 412.007812 274.472656 411.769531 274.742188 C 411.695312 274.820312 411.632812 274.910156 411.5625 274.996094 C 410.667969 275.375 409.832031 275.9375 409.132812 276.703125 C 406.339844 279.746094 405.800781 285.039062 409.132812 288.011719 C 413.085938 291.546875 418.582031 293.457031 423.691406 291.304688 C 428.230469 289.386719 431.410156 284.945312 431.121094 279.886719 Z M 363.820312 505.878906 C 357.648438 508.339844 348.035156 512.808594 346.066406 519.816406 C 343.105469 530.347656 355.101562 543.320312 365.15625 544.183594 C 377.917969 545.289062 383.570312 534.136719 385.316406 523.09375 C 386.699219 514.355469 373.0625 501.632812 363.820312 505.878906 Z M 450.578125 424.519531 C 426.851562 412.535156 405.4375 456.722656 432.730469 464.878906 C 456.582031 472.003906 469.964844 421.195312 450.578125 424.519531 Z M 380.914062 341.359375 C 380.121094 328.355469 377.890625 313.371094 366.097656 305.917969 C 354.246094 298.425781 345.144531 289.191406 330.136719 292.660156 C 297.566406 299.734375 289.730469 322.992188 286.980469 353.699219 C 285.832031 366.550781 287.449219 376.800781 296.148438 386.589844 C 305.144531 396.722656 324.910156 392.558594 336.609375 390.824219 C 349.488281 388.917969 353.039062 383.011719 362.273438 374.898438 C 374.761719 363.929688 382.007812 359.257812 380.914062 341.359375 Z M 328.347656 229.773438 C 326.511719 226.296875 324.878906 217.945312 325.617188 214.375 C 326.96875 207.8125 335.121094 197.703125 339.25 192.332031 C 342.695312 187.851562 347.203125 183.757812 353.183594 184.179688 C 363.84375 181.789062 366.496094 190.984375 372.363281 196.453125 C 377.96875 201.679688 384.859375 200.929688 383.039062 210.679688 C 379.910156 227.457031 362.664062 239.503906 346.847656 238.183594 C 338.945312 237.519531 332.148438 236.972656 328.347656 229.773438 " fill-opacity="1" fill-rule="nonzero"/></svg>