<svg xmlns="http://www.w3.org/2000/svg" xmlns:xlink="http://www.w3.org/1999/xlink" width="500" zoomAndPan="magnify" viewBox="0 0 375 374.999991" height="500" preserveAspectRatio="xMidYMid meet" version="1.0"><defs><g/><clipPath id="id1"><path d="M 138.261719 107.464844 L 236.511719 107.464844 L 236.511719 205.714844 L 138.261719 205.714844 Z M 138.261719 107.464844 " clip-rule="nonzero"/></clipPath></defs><g clip-path="url(#id1)"><path fill="#000000" d="M 196.679688 115.246094 L 203.445312 121.042969 L 201.214844 126.621094 L 194.546875 123.957031 C 194.128906 123.789062 193.660156 123.800781 193.25 123.992188 C 192.839844 124.179688 192.527344 124.53125 192.386719 124.957031 L 190.746094 129.871094 C 190.488281 130.644531 190.839844 131.488281 191.570312 131.851562 L 193.9375 133.039062 L 193.9375 138.574219 C 193.9375 139.246094 194.347656 139.847656 194.96875 140.097656 L 201.503906 142.710938 L 201.113281 143.488281 L 195.574219 143.488281 C 194.957031 143.488281 194.390625 143.839844 194.113281 144.394531 L 192.359375 147.902344 C 189.25 143.988281 187.386719 139.039062 187.386719 133.664062 C 187.386719 126.125 191.046875 119.425781 196.679688 115.246094 Z M 214.234375 111.074219 L 210.445312 119.917969 C 210.238281 120.402344 210.277344 120.957031 210.546875 121.40625 L 215.460938 129.59375 C 215.753906 130.085938 216.289062 130.386719 216.863281 130.386719 L 220.136719 130.386719 L 220.136719 134.625 L 217.34375 137.417969 C 217.007812 137.753906 216.835938 138.21875 216.867188 138.691406 C 216.902344 139.167969 217.140625 139.601562 217.519531 139.886719 L 223.125 144.089844 L 221.859375 147.882812 C 221.664062 148.472656 221.816406 149.121094 222.257812 149.558594 L 224.417969 151.722656 C 220.527344 154.769531 215.628906 156.589844 210.3125 156.589844 C 204.304688 156.589844 198.828125 154.261719 194.738281 150.46875 L 196.589844 146.761719 L 202.125 146.761719 C 202.746094 146.761719 203.3125 146.414062 203.589844 145.859375 L 205.226562 142.582031 C 205.433594 142.175781 205.457031 141.695312 205.292969 141.269531 C 205.132812 140.839844 204.796875 140.5 204.371094 140.332031 L 197.214844 137.46875 L 197.214844 132.027344 C 197.214844 131.40625 196.863281 130.839844 196.308594 130.5625 L 194.304688 129.558594 L 194.941406 127.640625 L 201.519531 130.273438 C 202.355469 130.605469 203.308594 130.199219 203.648438 129.359375 L 206.921875 121.171875 C 207.183594 120.519531 207 119.777344 206.46875 119.320312 L 199.578125 113.414062 C 202.78125 111.707031 206.4375 110.738281 210.3125 110.738281 C 211.652344 110.738281 212.960938 110.855469 214.234375 111.074219 Z M 233.238281 133.664062 C 233.238281 139.8125 230.804688 145.402344 226.851562 149.523438 L 225.285156 147.960938 L 226.605469 144.007812 C 226.828125 143.335938 226.597656 142.601562 226.035156 142.179688 L 220.996094 138.398438 L 222.933594 136.457031 C 223.242188 136.152344 223.414062 135.734375 223.414062 135.300781 L 223.414062 128.75 C 223.414062 127.847656 222.679688 127.113281 221.777344 127.113281 L 217.789062 127.113281 L 213.785156 120.4375 L 217.453125 111.878906 C 226.609375 114.886719 233.238281 123.515625 233.238281 133.664062 Z M 168.3125 197.527344 L 160.613281 197.527344 C 161.703125 196.097656 162.421875 194.410156 162.699219 192.613281 L 166.230469 192.613281 C 166.503906 194.410156 167.222656 196.097656 168.3125 197.527344 Z M 175.925781 201.621094 C 175.925781 202.070312 175.558594 202.4375 175.105469 202.4375 L 153.820312 202.4375 C 153.367188 202.4375 153 202.070312 153 201.621094 C 153 201.167969 153.367188 200.800781 153.820312 200.800781 L 175.105469 200.800781 C 175.558594 200.800781 175.925781 201.167969 175.925781 201.621094 Z M 141.539062 186.0625 L 187.386719 186.0625 C 187.386719 187.867188 185.917969 189.339844 184.113281 189.339844 L 144.8125 189.339844 C 143.007812 189.339844 141.539062 187.867188 141.539062 186.0625 Z M 144.8125 156.589844 L 184.113281 156.589844 C 185.917969 156.589844 187.386719 158.058594 187.386719 159.863281 L 187.386719 182.789062 L 141.539062 182.789062 L 141.539062 159.863281 C 141.539062 158.058594 143.007812 156.589844 144.8125 156.589844 Z M 236.511719 133.664062 C 236.511719 119.21875 224.761719 107.464844 210.3125 107.464844 C 195.867188 107.464844 184.113281 119.21875 184.113281 133.664062 C 184.113281 147.558594 194.988281 158.960938 208.675781 159.8125 L 208.675781 187.699219 C 208.675781 188.605469 207.941406 189.339844 207.039062 189.339844 L 197.214844 189.339844 C 194.503906 189.339844 192.300781 191.542969 192.300781 194.25 C 192.300781 196.960938 194.503906 199.164062 197.214844 199.164062 L 202.125 199.164062 C 203.027344 199.164062 203.761719 199.898438 203.761719 200.800781 C 203.761719 201.703125 203.027344 202.4375 202.125 202.4375 L 185.75 202.4375 C 184.847656 202.4375 184.113281 201.703125 184.113281 200.800781 L 184.113281 192.613281 C 187.726562 192.613281 190.664062 189.675781 190.664062 186.0625 L 190.664062 159.863281 C 190.664062 156.253906 187.726562 153.3125 184.113281 153.3125 L 144.8125 153.3125 C 141.203125 153.3125 138.261719 156.253906 138.261719 159.863281 L 138.261719 186.0625 C 138.261719 189.675781 141.203125 192.613281 144.8125 192.613281 L 159.367188 192.613281 C 158.953125 194.492188 157.832031 196.15625 156.191406 197.25 L 155.78125 197.527344 L 153.820312 197.527344 C 151.5625 197.527344 149.726562 199.363281 149.726562 201.621094 C 149.726562 203.878906 151.5625 205.714844 153.820312 205.714844 L 175.105469 205.714844 C 177.363281 205.714844 179.199219 203.878906 179.199219 201.621094 C 179.199219 199.363281 177.363281 197.527344 175.105469 197.527344 L 173.148438 197.527344 L 172.734375 197.25 C 171.09375 196.15625 169.976562 194.492188 169.558594 192.613281 L 180.839844 192.613281 L 180.839844 200.800781 C 180.839844 203.511719 183.042969 205.714844 185.75 205.714844 L 202.125 205.714844 C 204.835938 205.714844 207.039062 203.511719 207.039062 200.800781 C 207.039062 198.09375 204.835938 195.886719 202.125 195.886719 L 197.214844 195.886719 C 196.3125 195.886719 195.574219 195.152344 195.574219 194.25 C 195.574219 193.347656 196.3125 192.613281 197.214844 192.613281 L 207.039062 192.613281 C 209.746094 192.613281 211.949219 190.410156 211.949219 187.699219 L 211.949219 159.8125 C 225.636719 158.960938 236.511719 147.558594 236.511719 133.664062 " fill-opacity="1" fill-rule="nonzero"/></g><path fill="#000000" d="M 164.464844 161.5 C 168.976562 161.5 172.652344 165.175781 172.652344 169.6875 C 172.652344 174.203125 168.976562 177.875 164.464844 177.875 C 159.949219 177.875 156.277344 174.203125 156.277344 169.6875 C 156.277344 165.175781 159.949219 161.5 164.464844 161.5 Z M 164.464844 181.152344 C 170.785156 181.152344 175.925781 176.007812 175.925781 169.6875 C 175.925781 163.367188 170.785156 158.226562 164.464844 158.226562 C 158.144531 158.226562 153 163.367188 153 169.6875 C 153 176.007812 158.144531 181.152344 164.464844 181.152344 " fill-opacity="1" fill-rule="nonzero"/><path fill="#000000" d="M 162.824219 167.667969 L 166.191406 169.6875 L 162.824219 171.710938 Z M 160.382812 176.027344 C 160.632812 176.167969 160.910156 176.238281 161.1875 176.238281 C 161.480469 176.238281 161.773438 176.160156 162.03125 176.003906 L 170.21875 171.09375 C 170.710938 170.796875 171.011719 170.265625 171.011719 169.6875 C 171.011719 169.113281 170.710938 168.582031 170.21875 168.285156 L 162.03125 163.371094 C 161.523438 163.066406 160.894531 163.0625 160.382812 163.351562 C 159.867188 163.640625 159.550781 164.1875 159.550781 164.777344 L 159.550781 174.601562 C 159.550781 175.191406 159.867188 175.734375 160.382812 176.027344 " fill-opacity="1" fill-rule="nonzero"/><g fill="#000000" fill-opacity="1"><g transform="translate(90.19078, 243.286362)"><g><path d="M 14.203125 -27.296875 C 15.523438 -27.296875 16.78125 -26.898438 17.96875 -26.109375 C 19.164062 -25.316406 20.128906 -24.25 20.859375 -22.90625 C 21.585938 -21.570312 21.953125 -20.113281 21.953125 -18.53125 C 21.953125 -16.96875 21.585938 -15.507812 20.859375 -14.15625 C 20.128906 -12.800781 19.164062 -11.726562 17.96875 -10.9375 C 16.78125 -10.144531 15.523438 -9.75 14.203125 -9.75 L 7.40625 -9.75 L 7.40625 -2.375 C 7.40625 -1.675781 7.195312 -1.101562 6.78125 -0.65625 C 6.363281 -0.21875 5.816406 0 5.140625 0 C 4.492188 0 3.960938 -0.222656 3.546875 -0.671875 C 3.128906 -1.128906 2.921875 -1.695312 2.921875 -2.375 L 2.921875 -24.921875 C 2.921875 -25.597656 3.148438 -26.160156 3.609375 -26.609375 C 4.066406 -27.066406 4.628906 -27.296875 5.296875 -27.296875 Z M 14.203125 -14.203125 C 14.691406 -14.203125 15.175781 -14.40625 15.65625 -14.8125 C 16.132812 -15.226562 16.523438 -15.769531 16.828125 -16.4375 C 17.128906 -17.101562 17.28125 -17.800781 17.28125 -18.53125 C 17.28125 -19.25 17.128906 -19.941406 16.828125 -20.609375 C 16.523438 -21.273438 16.132812 -21.804688 15.65625 -22.203125 C 15.175781 -22.609375 14.691406 -22.8125 14.203125 -22.8125 L 7.40625 -22.8125 L 7.40625 -14.203125 Z M 14.203125 -14.203125 "/></g></g></g><g fill="#000000" fill-opacity="1"><g transform="translate(114.487804, 243.286362)"><g><path d="M 21.25 -10.921875 C 21.226562 -10.296875 20.984375 -9.785156 20.515625 -9.390625 C 20.046875 -9.003906 19.5 -8.8125 18.875 -8.8125 L 6 -8.8125 C 6.3125 -7.28125 7.023438 -6.078125 8.140625 -5.203125 C 9.265625 -4.335938 10.53125 -3.90625 11.9375 -3.90625 C 13 -3.90625 13.828125 -4 14.421875 -4.1875 C 15.023438 -4.382812 15.5 -4.59375 15.84375 -4.8125 C 16.195312 -5.03125 16.441406 -5.179688 16.578125 -5.265625 C 17.046875 -5.492188 17.488281 -5.609375 17.90625 -5.609375 C 18.445312 -5.609375 18.910156 -5.414062 19.296875 -5.03125 C 19.691406 -4.644531 19.890625 -4.191406 19.890625 -3.671875 C 19.890625 -2.960938 19.523438 -2.320312 18.796875 -1.75 C 18.066406 -1.15625 17.09375 -0.648438 15.875 -0.234375 C 14.65625 0.179688 13.421875 0.390625 12.171875 0.390625 C 9.984375 0.390625 8.078125 -0.0625 6.453125 -0.96875 C 4.828125 -1.882812 3.570312 -3.140625 2.6875 -4.734375 C 1.800781 -6.335938 1.359375 -8.140625 1.359375 -10.140625 C 1.359375 -12.378906 1.828125 -14.34375 2.765625 -16.03125 C 3.703125 -17.71875 4.9375 -19.007812 6.46875 -19.90625 C 8.007812 -20.800781 9.648438 -21.25 11.390625 -21.25 C 13.109375 -21.25 14.726562 -20.78125 16.25 -19.84375 C 17.769531 -18.914062 18.984375 -17.65625 19.890625 -16.0625 C 20.796875 -14.476562 21.25 -12.765625 21.25 -10.921875 Z M 11.390625 -16.96875 C 8.367188 -16.96875 6.585938 -15.550781 6.046875 -12.71875 L 16.265625 -12.71875 L 16.265625 -12.984375 C 16.160156 -14.078125 15.625 -15.015625 14.65625 -15.796875 C 13.695312 -16.578125 12.609375 -16.96875 11.390625 -16.96875 Z M 11.390625 -16.96875 "/></g></g></g><g fill="#000000" fill-opacity="1"><g transform="translate(137.887828, 243.286362)"><g><path d="M 19.421875 -28.859375 C 20.097656 -28.859375 20.65625 -28.632812 21.09375 -28.1875 C 21.539062 -27.75 21.765625 -27.179688 21.765625 -26.484375 L 21.765625 -2.375 C 21.765625 -1.695312 21.539062 -1.128906 21.09375 -0.671875 C 20.65625 -0.222656 20.097656 0 19.421875 0 C 18.742188 0 18.191406 -0.21875 17.765625 -0.65625 C 17.335938 -1.101562 17.109375 -1.664062 17.078125 -2.34375 C 16.429688 -1.582031 15.554688 -0.9375 14.453125 -0.40625 C 13.347656 0.125 12.179688 0.390625 10.953125 0.390625 C 9.160156 0.390625 7.535156 -0.0664062 6.078125 -0.984375 C 4.628906 -1.910156 3.476562 -3.191406 2.625 -4.828125 C 1.78125 -6.472656 1.359375 -8.332031 1.359375 -10.40625 C 1.359375 -12.488281 1.773438 -14.351562 2.609375 -16 C 3.441406 -17.65625 4.578125 -18.941406 6.015625 -19.859375 C 7.460938 -20.785156 9.054688 -21.25 10.796875 -21.25 C 12.046875 -21.25 13.21875 -21.019531 14.3125 -20.5625 C 15.40625 -20.113281 16.328125 -19.539062 17.078125 -18.84375 L 17.078125 -26.484375 C 17.078125 -27.160156 17.296875 -27.722656 17.734375 -28.171875 C 18.179688 -28.628906 18.742188 -28.859375 19.421875 -28.859375 Z M 11.546875 -3.90625 C 13.234375 -3.90625 14.609375 -4.519531 15.671875 -5.75 C 16.742188 -6.988281 17.28125 -8.539062 17.28125 -10.40625 C 17.28125 -12.28125 16.742188 -13.84375 15.671875 -15.09375 C 14.609375 -16.34375 13.234375 -16.96875 11.546875 -16.96875 C 9.878906 -16.96875 8.507812 -16.34375 7.4375 -15.09375 C 6.375 -13.84375 5.84375 -12.28125 5.84375 -10.40625 C 5.84375 -8.539062 6.367188 -6.988281 7.421875 -5.75 C 8.484375 -4.519531 9.859375 -3.90625 11.546875 -3.90625 Z M 11.546875 -3.90625 "/></g></g></g><g fill="#000000" fill-opacity="1"><g transform="translate(162.964848, 243.286362)"><g><path d="M 19.421875 -21.25 C 20.097656 -21.25 20.65625 -21.023438 21.09375 -20.578125 C 21.539062 -20.140625 21.765625 -19.570312 21.765625 -18.875 L 21.765625 -2.375 C 21.765625 -1.695312 21.539062 -1.128906 21.09375 -0.671875 C 20.65625 -0.222656 20.097656 0 19.421875 0 C 18.742188 0 18.191406 -0.21875 17.765625 -0.65625 C 17.335938 -1.101562 17.109375 -1.664062 17.078125 -2.34375 C 16.429688 -1.582031 15.554688 -0.9375 14.453125 -0.40625 C 13.347656 0.125 12.179688 0.390625 10.953125 0.390625 C 9.160156 0.390625 7.535156 -0.0664062 6.078125 -0.984375 C 4.628906 -1.910156 3.476562 -3.191406 2.625 -4.828125 C 1.78125 -6.472656 1.359375 -8.332031 1.359375 -10.40625 C 1.359375 -12.488281 1.773438 -14.351562 2.609375 -16 C 3.441406 -17.65625 4.578125 -18.941406 6.015625 -19.859375 C 7.460938 -20.785156 9.054688 -21.25 10.796875 -21.25 C 12.046875 -21.25 13.21875 -21.019531 14.3125 -20.5625 C 15.40625 -20.113281 16.328125 -19.539062 17.078125 -18.84375 L 17.078125 -18.875 C 17.078125 -19.550781 17.296875 -20.113281 17.734375 -20.5625 C 18.179688 -21.019531 18.742188 -21.25 19.421875 -21.25 Z M 11.546875 -3.90625 C 13.234375 -3.90625 14.609375 -4.519531 15.671875 -5.75 C 16.742188 -6.988281 17.28125 -8.539062 17.28125 -10.40625 C 17.28125 -12.28125 16.742188 -13.84375 15.671875 -15.09375 C 14.609375 -16.34375 13.234375 -16.96875 11.546875 -16.96875 C 9.878906 -16.96875 8.507812 -16.34375 7.4375 -15.09375 C 6.375 -13.84375 5.84375 -12.28125 5.84375 -10.40625 C 5.84375 -8.539062 6.367188 -6.988281 7.421875 -5.75 C 8.484375 -4.519531 9.859375 -3.90625 11.546875 -3.90625 Z M 11.546875 -3.90625 "/></g></g></g><g fill="#000000" fill-opacity="1"><g transform="translate(188.041867, 243.286362)"><g><path d="M 18.015625 -20.859375 C 18.691406 -20.859375 19.25 -20.628906 19.6875 -20.171875 C 20.132812 -19.722656 20.359375 -19.160156 20.359375 -18.484375 L 20.359375 -8.578125 C 20.359375 -5.773438 19.582031 -3.578125 18.03125 -1.984375 C 16.488281 -0.398438 14.285156 0.390625 11.421875 0.390625 C 8.566406 0.390625 6.367188 -0.398438 4.828125 -1.984375 C 3.296875 -3.578125 2.53125 -5.773438 2.53125 -8.578125 L 2.53125 -18.484375 C 2.53125 -19.160156 2.75 -19.722656 3.1875 -20.171875 C 3.632812 -20.628906 4.195312 -20.859375 4.875 -20.859375 C 5.550781 -20.859375 6.109375 -20.628906 6.546875 -20.171875 C 6.992188 -19.722656 7.21875 -19.160156 7.21875 -18.484375 L 7.21875 -8.578125 C 7.21875 -6.992188 7.566406 -5.816406 8.265625 -5.046875 C 8.972656 -4.285156 10.023438 -3.90625 11.421875 -3.90625 C 12.859375 -3.90625 13.925781 -4.285156 14.625 -5.046875 C 15.320312 -5.816406 15.671875 -6.992188 15.671875 -8.578125 L 15.671875 -18.484375 C 15.671875 -19.160156 15.890625 -19.722656 16.328125 -20.171875 C 16.773438 -20.628906 17.335938 -20.859375 18.015625 -20.859375 Z M 18.015625 -20.859375 "/></g></g></g><g fill="#000000" fill-opacity="1"><g transform="translate(211.714896, 243.286362)"><g><path d="M 22.578125 -10.40625 C 22.578125 -8.332031 22.109375 -6.46875 21.171875 -4.8125 C 20.234375 -3.164062 18.953125 -1.882812 17.328125 -0.96875 C 15.703125 -0.0625 13.914062 0.390625 11.96875 0.390625 C 10 0.390625 8.207031 -0.0625 6.59375 -0.96875 C 4.976562 -1.882812 3.703125 -3.164062 2.765625 -4.8125 C 1.828125 -6.46875 1.359375 -8.332031 1.359375 -10.40625 C 1.359375 -12.488281 1.828125 -14.351562 2.765625 -16 C 3.703125 -17.65625 4.976562 -18.941406 6.59375 -19.859375 C 8.207031 -20.785156 10 -21.25 11.96875 -21.25 C 13.914062 -21.25 15.703125 -20.785156 17.328125 -19.859375 C 18.953125 -18.941406 20.234375 -17.65625 21.171875 -16 C 22.109375 -14.351562 22.578125 -12.488281 22.578125 -10.40625 Z M 17.90625 -10.40625 C 17.90625 -11.6875 17.632812 -12.828125 17.09375 -13.828125 C 16.5625 -14.828125 15.847656 -15.597656 14.953125 -16.140625 C 14.054688 -16.691406 13.0625 -16.96875 11.96875 -16.96875 C 10.875 -16.96875 9.878906 -16.691406 8.984375 -16.140625 C 8.085938 -15.597656 7.375 -14.828125 6.84375 -13.828125 C 6.3125 -12.828125 6.046875 -11.6875 6.046875 -10.40625 C 6.046875 -9.132812 6.3125 -8.003906 6.84375 -7.015625 C 7.375 -6.023438 8.085938 -5.257812 8.984375 -4.71875 C 9.878906 -4.175781 10.875 -3.90625 11.96875 -3.90625 C 13.0625 -3.90625 14.054688 -4.175781 14.953125 -4.71875 C 15.847656 -5.257812 16.5625 -6.023438 17.09375 -7.015625 C 17.632812 -8.003906 17.90625 -9.132812 17.90625 -10.40625 Z M 17.90625 -10.40625 "/></g></g></g><g fill="#000000" fill-opacity="1"><g transform="translate(236.440908, 243.286362)"><g><path d="M 19.8125 -21.25 C 20.488281 -21.25 21.046875 -21.023438 21.484375 -20.578125 C 21.929688 -20.140625 22.15625 -19.570312 22.15625 -18.875 L 22.15625 -1.515625 C 22.15625 1.648438 21.171875 3.992188 19.203125 5.515625 C 17.242188 7.035156 14.753906 7.796875 11.734375 7.796875 C 10.953125 7.796875 9.878906 7.664062 8.515625 7.40625 C 7.148438 7.144531 6.179688 6.882812 5.609375 6.625 C 4.335938 6.082031 3.703125 5.332031 3.703125 4.375 C 3.703125 4.1875 3.742188 3.976562 3.828125 3.75 C 3.984375 3.175781 4.25 2.738281 4.625 2.4375 C 5 2.132812 5.40625 1.984375 5.84375 1.984375 C 6.101562 1.984375 6.351562 2.023438 6.59375 2.109375 C 6.695312 2.128906 7.335938 2.367188 8.515625 2.828125 C 9.703125 3.285156 10.773438 3.515625 11.734375 3.515625 C 13.660156 3.515625 15.097656 3.128906 16.046875 2.359375 C 16.992188 1.585938 17.46875 0.503906 17.46875 -0.890625 L 17.46875 -2.765625 C 16.894531 -1.960938 16.03125 -1.234375 14.875 -0.578125 C 13.71875 0.0664062 12.476562 0.390625 11.15625 0.390625 C 9.332031 0.390625 7.671875 -0.0664062 6.171875 -0.984375 C 4.679688 -1.910156 3.503906 -3.191406 2.640625 -4.828125 C 1.785156 -6.472656 1.359375 -8.332031 1.359375 -10.40625 C 1.359375 -12.488281 1.78125 -14.351562 2.625 -16 C 3.476562 -17.65625 4.640625 -18.941406 6.109375 -19.859375 C 7.578125 -20.785156 9.207031 -21.25 11 -21.25 C 12.320312 -21.25 13.554688 -20.972656 14.703125 -20.421875 C 15.847656 -19.878906 16.769531 -19.222656 17.46875 -18.453125 L 17.46875 -18.875 C 17.46875 -19.550781 17.6875 -20.113281 18.125 -20.5625 C 18.570312 -21.019531 19.132812 -21.25 19.8125 -21.25 Z M 11.734375 -3.90625 C 13.484375 -3.90625 14.910156 -4.519531 16.015625 -5.75 C 17.117188 -6.988281 17.671875 -8.539062 17.671875 -10.40625 C 17.671875 -12.28125 17.117188 -13.84375 16.015625 -15.09375 C 14.910156 -16.34375 13.484375 -16.96875 11.734375 -16.96875 C 9.992188 -16.96875 8.578125 -16.34375 7.484375 -15.09375 C 6.390625 -13.84375 5.84375 -12.28125 5.84375 -10.40625 C 5.84375 -8.539062 6.390625 -6.988281 7.484375 -5.75 C 8.578125 -4.519531 9.992188 -3.90625 11.734375 -3.90625 Z M 11.734375 -3.90625 "/></g></g></g><g fill="#000000" fill-opacity="1"><g transform="translate(261.907925, 243.286362)"><g><path d="M 18.015625 -20.859375 C 18.691406 -20.859375 19.25 -20.628906 19.6875 -20.171875 C 20.132812 -19.722656 20.359375 -19.160156 20.359375 -18.484375 L 20.359375 -1.90625 C 20.359375 1.46875 19.445312 3.925781 17.625 5.46875 C 15.800781 7.019531 13.367188 7.796875 10.328125 7.796875 C 9.453125 7.796875 8.550781 7.722656 7.625 7.578125 C 6.695312 7.441406 5.945312 7.253906 5.375 7.015625 C 4.101562 6.472656 3.46875 5.722656 3.46875 4.765625 C 3.46875 4.578125 3.507812 4.367188 3.59375 4.140625 C 3.75 3.566406 4.015625 3.128906 4.390625 2.828125 C 4.765625 2.523438 5.171875 2.375 5.609375 2.375 C 5.867188 2.375 6.117188 2.414062 6.359375 2.5 C 6.535156 2.570312 6.851562 2.695312 7.3125 2.875 C 7.769531 3.0625 8.25 3.210938 8.75 3.328125 C 9.257812 3.453125 9.785156 3.515625 10.328125 3.515625 C 12.179688 3.515625 13.539062 3.113281 14.40625 2.3125 C 15.28125 1.519531 15.71875 0.164062 15.71875 -1.75 L 15.71875 -2.140625 C 14.363281 -0.453125 12.257812 0.390625 9.40625 0.390625 C 8.050781 0.390625 6.851562 0.0703125 5.8125 -0.5625 C 4.769531 -1.195312 3.960938 -2.078125 3.390625 -3.203125 C 2.816406 -4.335938 2.53125 -5.632812 2.53125 -7.09375 L 2.53125 -18.484375 C 2.53125 -19.160156 2.75 -19.722656 3.1875 -20.171875 C 3.632812 -20.628906 4.195312 -20.859375 4.875 -20.859375 C 5.550781 -20.859375 6.109375 -20.628906 6.546875 -20.171875 C 6.992188 -19.722656 7.21875 -19.160156 7.21875 -18.484375 L 7.21875 -8.5 C 7.21875 -6.863281 7.570312 -5.6875 8.28125 -4.96875 C 9 -4.257812 10.046875 -3.90625 11.421875 -3.90625 C 12.773438 -3.90625 13.820312 -4.300781 14.5625 -5.09375 C 15.300781 -5.882812 15.671875 -7.019531 15.671875 -8.5 L 15.671875 -18.484375 C 15.671875 -19.160156 15.890625 -19.722656 16.328125 -20.171875 C 16.773438 -20.628906 17.335938 -20.859375 18.015625 -20.859375 Z M 18.015625 -20.859375 "/></g></g></g></svg>