<svg xmlns="http://www.w3.org/2000/svg" xmlns:xlink="http://www.w3.org/1999/xlink" width="1024" zoomAndPan="magnify" viewBox="0 0 768 767.999994" height="1024" preserveAspectRatio="xMidYMid meet" version="1.0"><defs><clipPath id="id1"><path d="M 76.898438 97.535156 L 690.949219 97.535156 L 690.949219 670.511719 L 76.898438 670.511719 Z M 76.898438 97.535156 " clip-rule="nonzero"/></clipPath></defs><path fill="#f9ae8f" d="M 610.996094 496.097656 C 591.953125 507.523438 570.636719 513.539062 548.683594 516.253906 C 541.710938 479.484375 527.050781 441.175781 514.699219 412.734375 C 524.210938 400.25 533.355469 387.492188 542.023438 374.402344 C 547.464844 366.191406 553.128906 357.496094 558.714844 348.425781 C 579.4375 358.984375 598.808594 371.265625 616.132812 385.46875 C 658.996094 420.617188 661.496094 465.785156 610.996094 496.097656 Z M 519.652344 605.035156 C 481.324219 636.503906 420.167969 612.507812 385.316406 588.089844 C 378.925781 583.613281 372.820312 578.804688 366.929688 573.757812 C 383.957031 557.667969 399.808594 540.972656 414.0625 526.046875 C 447.652344 531 480.375 533.53125 510.414062 533.53125 C 519.960938 533.53125 529.957031 533.097656 540.105469 532.121094 C 544.3125 560.554688 540.835938 587.648438 519.652344 605.035156 Z M 208.164062 606.890625 C 192.402344 573.6875 209.777344 521.644531 231.855469 474.992188 C 248.019531 482.113281 264.855469 488.605469 282.117188 494.464844 C 298.988281 523.210938 318.5625 550.558594 341.128906 573.324219 C 285.171875 619.792969 228.695312 650.160156 208.164062 606.890625 Z M 172.269531 423.386719 C 136.3125 399.398438 99.6875 362.667969 146.679688 328.984375 C 162.800781 317.429688 181.9375 309.648438 202.242188 304.433594 C 210.753906 332.964844 220.257812 358.097656 225.960938 373.363281 C 231.5625 388.355469 237.90625 404.355469 245.042969 420.773438 C 241.332031 427.726562 237.734375 434.667969 234.253906 441.582031 C 232.507812 445.050781 230.300781 449.449219 227.808594 454.5625 C 208.410156 445.410156 189.785156 435.078125 172.269531 423.386719 Z M 235.378906 147.691406 C 294.523438 147.691406 345.425781 182.492188 387.769531 230.507812 C 370.832031 245.703125 354.839844 262.273438 339.777344 279.785156 C 319.546875 279.160156 299.460938 279.496094 279.742188 280.789062 C 259.96875 282.082031 237.578125 283.328125 215.308594 286.550781 C 197.632812 228.15625 182.175781 147.691406 235.378906 147.691406 Z M 506.472656 394.40625 C 493.851562 367.054688 480.332031 339.855469 465.042969 313.757812 C 490.707031 320.378906 515.839844 328.8125 539.546875 339.3125 C 528.621094 359.316406 516.988281 378.304688 506.472656 394.40625 Z M 398.089844 242.664062 C 410.226562 257.507812 421.601562 273.363281 432.214844 289.660156 C 408.515625 285.238281 384.546875 282.320312 360.667969 280.777344 C 361.230469 280.199219 361.78125 279.609375 362.34375 279.027344 C 373.300781 267.667969 385.253906 255.09375 398.089844 242.664062 Z M 256.289062 400.3125 C 248.074219 379.886719 240.59375 359.511719 233.476562 339.859375 C 230.71875 332.25 225.394531 318.003906 219.722656 300.597656 C 248.910156 295.183594 279.390625 294.128906 306.121094 294.128906 C 313.140625 294.128906 320.285156 294.257812 327.507812 294.496094 C 300.5625 327.84375 276.832031 364.019531 256.289062 400.3125 Z M 269.660156 472.125 C 259.375 468.3125 249.242188 464.203125 239.28125 459.808594 C 243.464844 451.515625 247.691406 443.496094 251.804688 435.898438 C 257.320312 447.925781 263.269531 460.074219 269.660156 472.125 Z M 293.785156 480.488281 C 282.199219 459.691406 271.996094 437.929688 262.75 416.011719 C 267.160156 408.101562 271.175781 400.972656 274.5 394.875 C 294.273438 358.59375 319.265625 325.890625 346.996094 295.414062 C 378.695312 297.386719 411.691406 301.710938 444.226562 308.808594 C 464.941406 343.050781 482.359375 378.246094 496.410156 409.445312 C 486.558594 423.824219 478.519531 434.476562 474.292969 439.339844 C 466.007812 448.859375 441.886719 476.589844 411.179688 507.945312 C 371.828125 501.738281 332.050781 492.878906 293.785156 480.488281 Z M 306.71875 502.3125 C 336.082031 511.082031 366.257812 518.058594 396.015625 523.167969 C 382.734375 536.269531 368.605469 549.589844 354.25 562.136719 C 336.171875 544.4375 320.515625 524.144531 306.71875 502.3125 Z M 509.375 439.203125 C 517.855469 459.316406 530.65625 488.292969 537.308594 517.375 C 517.707031 518.832031 497.828125 517.976562 478.816406 516.261719 C 462.433594 514.785156 445.761719 512.914062 428.957031 510.582031 C 455.167969 483.757812 480.550781 455.910156 503.957031 426.527344 C 505.832031 430.859375 507.648438 435.097656 509.375 439.203125 Z M 531.628906 170.722656 C 608.125 170.722656 585.042969 251.417969 547.238281 324.828125 C 517.148438 311.457031 485.386719 301.230469 452.894531 293.910156 C 439.871094 273.515625 425.574219 253.988281 409.511719 235.835938 C 408.886719 235.125 408.242188 234.398438 407.585938 233.667969 C 443.378906 200.507812 485.441406 170.722656 531.628906 170.722656 Z M 611.859375 360.410156 C 597.582031 350.769531 582.617188 342.078125 567.140625 334.265625 C 586.773438 300.042969 603.054688 261.605469 600.527344 224.066406 C 595.878906 155.058594 529.378906 143.878906 475.652344 170.160156 C 447.628906 183.871094 421.472656 201.652344 397.164062 222.308594 C 355.667969 178.195312 278.535156 109.296875 221.691406 130.417969 C 171.464844 149.078125 180.375 224.808594 197.988281 289.507812 C 170.796875 294.925781 144.863281 304.164062 125.3125 321.0625 C 80.421875 359.863281 119.339844 407.113281 156.894531 433.5 C 175.976562 446.90625 197.46875 459.035156 220.539062 469.847656 C 192.257812 530.933594 148.804688 645.914062 232.863281 645.917969 C 275.414062 645.917969 317.109375 618.40625 354.0625 585.558594 C 387.488281 615.121094 426.980469 634.390625 473.382812 634.390625 C 544.390625 634.390625 558.296875 586.210938 551.03125 530.839844 C 589.566406 525.550781 628.664062 511.515625 652.015625 480.980469 C 688.058594 433.859375 653.226562 388.335938 611.859375 360.410156 " fill-opacity="1" fill-rule="nonzero"/><path fill="#f46a61" d="M 441.714844 396.117188 C 438.605469 423.324219 414.375 443.820312 388.6875 450.042969 C 360.265625 456.921875 333.648438 434.664062 327.503906 407.609375 C 322.769531 386.757812 329.90625 366.390625 344.660156 352.492188 C 356.828125 331.140625 390.050781 327.96875 410.726562 337.542969 C 432.546875 347.648438 444.386719 372.710938 441.714844 396.117188 " fill-opacity="1" fill-rule="nonzero"/><g clip-path="url(#id1)"><path fill="#2e2e30" d="M 612.183594 413.507812 C 602.851562 412.59375 595.460938 414.167969 586.796875 409.039062 C 578.707031 404.242188 574.488281 397.179688 570.664062 388.867188 C 569.9375 387.289062 567.429688 388.113281 567.46875 389.734375 C 567.707031 400.089844 575.277344 409.019531 583.78125 414.203125 C 591.523438 418.929688 605.054688 423.019531 613.164062 417.125 C 614.761719 415.96875 614.15625 413.699219 612.183594 413.507812 Z M 437.898438 445.742188 C 426.304688 449.992188 416.355469 457.316406 404.238281 460.699219 C 391.371094 464.289062 378.6875 464.199219 365.480469 464.199219 C 363.125 464.199219 362.628906 467.683594 364.921875 468.3125 C 378.167969 471.953125 392.839844 470.503906 405.972656 467.011719 C 417.855469 463.847656 432.304688 458.515625 439.921875 448.375 C 440.847656 447.144531 439.304688 445.226562 437.898438 445.742188 Z M 306.027344 99.769531 C 297.890625 96.769531 284.34375 95.828125 278.191406 103.214844 C 277.476562 104.074219 277.875 105.640625 279.171875 105.585938 C 283.519531 105.398438 287.601562 103.71875 291.996094 103.636719 C 297.367188 103.542969 302.902344 104.914062 307.605469 107.511719 C 315.171875 111.703125 318.308594 123.507812 326.867188 125.15625 C 328.546875 125.476562 329.585938 123.941406 328.945312 122.449219 C 324.824219 112.832031 315.9375 103.414062 306.027344 99.769531 Z M 235.359375 163.625 C 222.40625 165.503906 213.488281 182.023438 210.550781 193.40625 C 207.882812 203.753906 206.863281 223.910156 217.703125 230.226562 C 219.15625 231.070312 221.042969 229.988281 221.042969 228.304688 C 221.039062 223.324219 218.386719 218.761719 217.46875 213.875 C 216.324219 207.785156 216.621094 201.488281 218.070312 195.480469 C 219.445312 189.753906 221.820312 184.304688 225.269531 179.519531 C 228.734375 174.714844 233.621094 171.449219 237.277344 166.917969 C 238.5625 165.324219 237.34375 163.335938 235.359375 163.625 Z M 684.347656 420.425781 C 683.269531 418.273438 680.027344 419.800781 680.570312 422.019531 C 684.441406 437.855469 686.121094 453.34375 682.113281 469.375 C 680.273438 476.761719 677.421875 483.832031 673.660156 490.445312 C 669.792969 497.25 664.300781 502.9375 660.421875 509.683594 C 659.472656 511.332031 661.335938 513.039062 662.9375 512.203125 C 677.257812 504.730469 685.347656 484.859375 688.710938 469.972656 C 692.386719 453.726562 691.945312 435.523438 684.347656 420.425781 Z M 613.710938 168.144531 C 600.738281 150.59375 580.242188 139.097656 558.527344 137.296875 C 556.671875 137.144531 556.316406 140.085938 558.089844 140.519531 C 578.699219 145.589844 598.886719 155.617188 610.808594 173.882812 C 617.414062 184.003906 620.511719 195.625 621.617188 207.574219 C 622.667969 219.003906 619.914062 231.488281 622.285156 242.601562 C 622.699219 244.535156 625.320312 244.210938 625.890625 242.601562 C 630.078125 230.785156 628.601562 214.167969 626.90625 201.914062 C 625.222656 189.722656 621.058594 178.078125 613.710938 168.144531 Z M 530.488281 636.035156 C 517.449219 642.328125 505.214844 649.1875 490.816406 652.015625 C 476.179688 654.882812 460.855469 654.40625 446.34375 651.09375 C 443.703125 650.488281 442.671875 654.28125 445.230469 655.132812 C 472.789062 664.324219 511.65625 661.128906 532.660156 638.851562 C 534.097656 637.324219 532.296875 635.160156 530.488281 636.035156 Z M 408.824219 648.917969 C 400.246094 643.71875 390.765625 640.40625 382.394531 634.746094 C 373.410156 628.675781 366.480469 620.824219 358.257812 613.929688 C 357.050781 612.917969 355.367188 614.160156 356.082031 615.613281 C 364.523438 632.816406 388.730469 650.441406 407.953125 652.117188 C 409.726562 652.269531 410.183594 649.746094 408.824219 648.917969 Z M 215.671875 663.585938 C 191.84375 664.5625 174.480469 651.871094 167.777344 628.753906 C 160.753906 604.5 167.28125 579.644531 165.292969 555.035156 C 165.125 552.957031 161.925781 552.195312 161.425781 554.507812 C 158.175781 569.628906 157.304688 586.074219 157.148438 601.515625 C 157.019531 614.667969 158.457031 627.835938 163.730469 639.996094 C 171.8125 658.652344 195.324219 679.050781 216.539062 666.785156 C 217.972656 665.957031 217.398438 663.519531 215.671875 663.585938 Z M 112.402344 421.816406 C 113.640625 422.921875 112.628906 425.003906 111.085938 425.007812 C 96.171875 425.039062 85.457031 408.210938 80.960938 395.828125 C 73.867188 376.253906 77.414062 355.410156 81.429688 335.617188 C 81.941406 333.089844 86.191406 333.664062 85.9375 336.226562 C 84.21875 353.535156 81.675781 372.3125 86.625 389.300781 C 88.761719 396.652344 92.421875 403.714844 97.503906 409.46875 C 101.84375 414.390625 107.550781 417.511719 112.402344 421.816406 " fill-opacity="1" fill-rule="nonzero"/></g><path fill="#f6b737" d="M 295.832031 346.351562 C 288.847656 342.390625 280.722656 339.546875 272.78125 342.210938 C 269.46875 343.320312 265.628906 345.773438 263.601562 348.949219 C 258.097656 356.085938 257.476562 367.554688 260.984375 376.535156 C 267.6875 393.695312 283.449219 395 297.175781 384.671875 C 303.835938 379.664062 309.386719 372.574219 309.140625 363.835938 C 308.90625 355.402344 302.625 350.210938 295.832031 346.351562 Z M 632.609375 359.789062 C 609.167969 329.050781 564.0625 365.152344 584.042969 391.574219 C 602.5 415.980469 654.308594 388.234375 632.609375 359.789062 Z M 309.9375 167.5 C 296.136719 178.726562 273.492188 182.109375 264.976562 162.609375 C 260.476562 152.304688 263.214844 142.074219 269.753906 134.738281 C 277.472656 118.878906 294.902344 111.429688 311.136719 123.585938 C 326.800781 135.3125 324.355469 155.769531 309.9375 167.5 " fill-opacity="1" fill-rule="nonzero"/><path fill="#ffffff" d="M 288.769531 349.074219 C 287.140625 348.996094 286.007812 351.378906 287.359375 352.476562 C 290.5 355.023438 293.71875 356.671875 295.632812 360.476562 C 297.296875 363.792969 296.902344 367.652344 298.421875 370.894531 C 298.789062 371.671875 299.890625 371.683594 300.441406 371.15625 C 303.929688 367.820312 302.152344 361.5 300.179688 357.816406 C 297.953125 353.675781 293.726562 349.300781 288.769531 349.074219 Z M 606.832031 359.449219 C 607.699219 358.726562 607.242188 357.09375 606.152344 356.878906 C 587.886719 353.210938 577.546875 390.273438 600.554688 390.3125 C 601.925781 390.3125 602.410156 388.71875 601.605469 387.769531 C 600.011719 385.882812 598 384.667969 596.28125 382.9375 C 592.960938 379.585938 593.261719 374.710938 595.285156 370.695312 C 597.96875 365.339844 602.484375 363.097656 606.832031 359.449219 Z M 284.246094 127.992188 C 276.839844 132.882812 270.300781 139.070312 270.65625 148.699219 C 270.871094 154.480469 274.757812 163.96875 281.933594 162.433594 C 283.042969 162.199219 283.351562 160.917969 282.917969 160.023438 C 280.617188 155.28125 276.410156 153.132812 276.613281 147.066406 C 276.835938 140.730469 281.429688 134.300781 285.898438 130.132812 C 287.015625 129.089844 285.546875 127.132812 284.246094 127.992188 Z M 409.300781 426.65625 C 403.675781 427.269531 398.484375 429.929688 392.910156 431.066406 C 386.066406 432.46875 379.109375 432.839844 372.152344 432.367188 C 370.117188 432.230469 369.667969 435.507812 371.667969 435.9375 C 383.421875 438.445312 401.324219 438.988281 410.660156 429.929688 C 411.761719 428.859375 411.003906 426.46875 409.300781 426.65625 Z M 361.886719 351.359375 C 353.539062 361.960938 348.457031 374.710938 346.539062 388.023438 C 345.539062 394.980469 344.726562 402.617188 346.886719 409.4375 C 348.972656 416.050781 354.1875 420.730469 357.855469 426.421875 C 358.714844 427.746094 357.300781 429.097656 355.976562 428.867188 C 339.316406 425.988281 336.886719 404.378906 338.65625 390.9375 C 340.796875 374.691406 346.269531 358.75 359.867188 348.742188 C 361.535156 347.515625 362.9375 350.023438 361.886719 351.359375 " fill-opacity="1" fill-rule="nonzero"/></svg>