<svg xmlns="http://www.w3.org/2000/svg" xmlns:xlink="http://www.w3.org/1999/xlink" width="1024" zoomAndPan="magnify" viewBox="0 0 768 767.999994" height="1024" preserveAspectRatio="xMidYMid meet" version="1.0"><defs><clipPath id="id1"><path d="M 110 641 L 482 641 L 482 691.050781 L 110 691.050781 Z M 110 641 " clip-rule="nonzero"/></clipPath><clipPath id="id2"><path d="M 266 76.800781 L 326 76.800781 L 326 153 L 266 153 Z M 266 76.800781 " clip-rule="nonzero"/></clipPath><clipPath id="id3"><path d="M 235 588 L 608 588 L 608 691.050781 L 235 691.050781 Z M 235 588 " clip-rule="nonzero"/></clipPath></defs><path fill="#eaa97d" d="M 471.011719 686.125 L 120.347656 686.125 C 117.542969 686.125 115.277344 683.859375 115.277344 681.058594 L 115.277344 651.941406 C 115.277344 649.140625 117.542969 646.871094 120.347656 646.871094 L 471.007812 646.871094 C 473.808594 646.871094 476.078125 649.140625 476.078125 651.941406 L 476.078125 681.058594 C 476.082031 683.855469 473.808594 686.125 471.011719 686.125 Z M 471.011719 686.125 " fill-opacity="1" fill-rule="nonzero"/><path fill="#eaa97d" d="M 469.125 248.332031 C 469.125 253.933594 464.585938 258.472656 458.984375 258.472656 L 133.3125 258.472656 C 127.710938 258.472656 123.171875 253.933594 123.171875 248.332031 L 123.171875 212.136719 C 123.171875 206.535156 127.710938 201.996094 133.3125 201.996094 L 458.984375 201.996094 C 464.585938 201.996094 469.125 206.535156 469.125 212.136719 Z M 469.125 248.332031 " fill-opacity="1" fill-rule="nonzero"/><path fill="#a4c9ff" d="M 295.675781 258.472656 L 147.414062 258.472656 L 171.132812 625.585938 L 420.222656 625.585938 L 443.945312 258.472656 Z M 295.675781 258.472656 " fill-opacity="1" fill-rule="nonzero"/><path fill="#4671c6" d="M 196.996094 587.863281 L 178.234375 297.507812 C 177.859375 291.664062 182.496094 286.714844 188.355469 286.714844 L 403.003906 286.714844 C 408.863281 286.714844 413.503906 291.664062 413.125 297.507812 L 394.359375 587.863281 C 394.015625 593.199219 389.585938 597.347656 384.242188 597.347656 L 207.117188 597.347656 C 201.769531 597.347656 197.339844 593.195312 196.996094 587.863281 Z M 196.996094 587.863281 " fill-opacity="1" fill-rule="nonzero"/><path fill="#f9cfcf" d="M 153.902344 625.640625 L 437.453125 625.640625 C 443.054688 625.640625 447.597656 630.179688 447.597656 635.78125 L 447.597656 646.820312 L 143.761719 646.820312 L 143.761719 635.78125 C 143.761719 630.175781 148.300781 625.640625 153.902344 625.640625 Z M 153.902344 625.640625 " fill-opacity="1" fill-rule="nonzero"/><path fill="#f9cfcf" d="M 285.527344 147.28125 L 306.710938 147.28125 L 306.710938 201.996094 L 285.527344 201.996094 Z M 285.527344 147.28125 " fill-opacity="1" fill-rule="nonzero"/><path fill="#4671c6" d="M 310.789062 147.28125 L 281.453125 147.28125 C 275.90625 147.28125 271.410156 142.78125 271.410156 137.238281 L 271.410156 96.097656 C 271.410156 88.300781 277.734375 81.976562 285.53125 81.976562 L 306.714844 81.976562 C 314.511719 81.976562 320.835938 88.300781 320.835938 96.097656 L 320.835938 137.238281 C 320.832031 142.785156 316.335938 147.28125 310.789062 147.28125 Z M 310.789062 147.28125 " fill-opacity="1" fill-rule="nonzero"/><path fill="#6bdddd" d="M 399.894531 444.28125 C 398.789062 441.863281 395.929688 440.792969 393.511719 441.902344 L 391.222656 442.949219 C 393.726562 434.179688 395.023438 425.144531 395.019531 415.953125 C 395.019531 413.292969 392.863281 411.136719 390.203125 411.136719 C 387.542969 411.136719 385.386719 413.292969 385.386719 415.953125 C 385.390625 424.328125 384.199219 432.554688 381.890625 440.542969 L 380.21875 437.582031 C 378.910156 435.265625 375.972656 434.453125 373.660156 435.753906 C 371.339844 437.058594 370.523438 440 371.828125 442.3125 L 377.53125 452.421875 C 375.042969 457.980469 372.039062 463.195312 368.574219 468.019531 L 368.15625 465.066406 C 367.785156 462.429688 365.332031 460.597656 362.714844 460.964844 C 360.078125 461.339844 358.246094 463.773438 358.617188 466.40625 L 360.25 477.988281 C 355.328125 483.074219 349.824219 487.527344 343.878906 491.292969 L 344.589844 488.359375 C 345.214844 485.773438 343.625 483.167969 341.039062 482.542969 C 338.464844 481.921875 335.851562 483.507812 335.226562 486.09375 L 332.492188 497.402344 C 324.214844 501.097656 315.335938 503.535156 306.113281 504.574219 L 308.242188 501.695312 C 309.824219 499.558594 309.375 496.542969 307.234375 494.960938 C 305.097656 493.378906 302.078125 493.832031 300.5 495.96875 L 296.09375 501.917969 L 291.6875 495.96875 C 290.109375 493.832031 287.089844 493.378906 284.949219 494.960938 C 282.8125 496.542969 282.363281 499.558594 283.945312 501.695312 L 286.105469 504.621094 C 277.335938 503.632812 268.769531 501.355469 260.546875 497.777344 C 260.308594 497.675781 260.085938 497.550781 259.851562 497.441406 L 257.085938 486.019531 C 256.460938 483.433594 253.863281 481.84375 251.273438 482.472656 C 248.6875 483.097656 247.097656 485.699219 247.722656 488.285156 L 248.46875 491.363281 C 242.421875 487.542969 236.945312 483.015625 232.058594 477.957031 L 233.695312 466.332031 C 234.0625 463.699219 232.226562 461.261719 229.59375 460.890625 C 226.949219 460.523438 224.523438 462.359375 224.152344 464.992188 L 223.734375 467.976562 C 220.230469 463.097656 217.21875 457.882812 214.753906 452.382812 L 220.480469 442.238281 C 221.789062 439.921875 220.96875 436.984375 218.652344 435.679688 C 216.335938 434.371094 213.398438 435.1875 212.089844 437.507812 L 210.410156 440.484375 C 208.160156 432.621094 206.925781 424.382812 206.914062 415.941406 C 206.910156 413.285156 204.753906 411.132812 202.097656 411.132812 C 202.09375 411.132812 202.09375 411.132812 202.089844 411.132812 C 199.429688 411.132812 197.273438 413.296875 197.28125 415.957031 C 197.292969 425.210938 198.636719 434.242188 201.082031 442.867188 L 198.796875 441.824219 C 196.378906 440.71875 193.523438 441.785156 192.414062 444.203125 C 191.308594 446.621094 192.371094 449.480469 194.792969 450.585938 L 205.636719 455.542969 C 208.496094 462.078125 212.039062 468.265625 216.214844 474.023438 L 213.355469 473.863281 C 210.703125 473.71875 208.425781 475.753906 208.28125 478.410156 C 208.136719 481.066406 210.167969 483.339844 212.828125 483.484375 L 224.640625 484.132812 C 230.234375 490.011719 236.539062 495.257812 243.53125 499.652344 L 240.953125 500.511719 C 238.429688 501.355469 237.066406 504.082031 237.910156 506.609375 C 238.582031 508.625 240.460938 509.902344 242.476562 509.902344 C 242.984375 509.902344 243.5 509.820312 244.003906 509.652344 L 255.222656 505.90625 C 255.722656 506.136719 256.199219 506.398438 256.703125 506.617188 C 265.550781 510.464844 274.757812 512.945312 284.183594 514.089844 L 282.46875 515.597656 C 280.472656 517.359375 280.277344 520.402344 282.039062 522.398438 C 282.992188 523.480469 284.320312 524.03125 285.65625 524.03125 C 286.785156 524.03125 287.921875 523.636719 288.835938 522.828125 L 296.09375 516.4375 L 303.347656 522.828125 C 304.265625 523.636719 305.398438 524.03125 306.53125 524.03125 C 307.867188 524.03125 309.195312 523.476562 310.148438 522.398438 C 311.90625 520.402344 311.710938 517.359375 309.71875 515.597656 L 307.972656 514.0625 C 318.125 512.835938 327.90625 510.089844 337.007812 505.953125 L 348.308594 509.726562 C 348.816406 509.894531 349.332031 509.972656 349.835938 509.972656 C 351.851562 509.972656 353.730469 508.699219 354.40625 506.679688 C 355.246094 504.160156 353.882812 501.429688 351.363281 500.585938 L 348.636719 499.675781 C 355.558594 495.335938 361.9375 490.15625 367.613281 484.210938 L 379.484375 483.558594 C 382.140625 483.414062 384.175781 481.140625 384.027344 478.484375 C 383.882812 475.828125 381.65625 473.804688 378.953125 473.9375 L 376.09375 474.09375 C 380.226562 468.410156 383.785156 462.226562 386.683594 455.613281 L 397.519531 450.660156 C 399.9375 449.558594 401 446.699219 399.894531 444.28125 Z M 399.894531 444.28125 " fill-opacity="1" fill-rule="nonzero"/><path fill="#4671c6" d="M 369.621094 408.714844 C 369.621094 409.914062 369.59375 411.117188 369.535156 412.320312 C 369.476562 413.519531 369.386719 414.71875 369.269531 415.917969 C 369.152344 417.113281 369.003906 418.308594 368.828125 419.496094 C 368.648438 420.6875 368.445312 421.871094 368.210938 423.050781 C 367.976562 424.230469 367.710938 425.40625 367.417969 426.570312 C 367.128906 427.738281 366.804688 428.898438 366.457031 430.046875 C 366.109375 431.199219 365.730469 432.339844 365.324219 433.472656 C 364.921875 434.605469 364.488281 435.730469 364.027344 436.839844 C 363.566406 437.953125 363.078125 439.050781 362.566406 440.136719 C 362.050781 441.226562 361.511719 442.300781 360.941406 443.359375 C 360.375 444.421875 359.785156 445.46875 359.164062 446.5 C 358.546875 447.53125 357.902344 448.546875 357.234375 449.546875 C 356.566406 450.546875 355.875 451.53125 355.15625 452.496094 C 354.441406 453.460938 353.699219 454.410156 352.9375 455.339844 C 352.175781 456.269531 351.390625 457.179688 350.582031 458.074219 C 349.773438 458.964844 348.945312 459.835938 348.09375 460.683594 C 347.242188 461.535156 346.371094 462.363281 345.480469 463.171875 C 344.589844 463.980469 343.679688 464.765625 342.75 465.527344 C 341.820312 466.292969 340.871094 467.03125 339.90625 467.75 C 338.9375 468.464844 337.957031 469.15625 336.953125 469.824219 C 335.953125 470.492188 334.9375 471.136719 333.90625 471.753906 C 332.875 472.375 331.828125 472.964844 330.769531 473.535156 C 329.707031 474.101562 328.632812 474.640625 327.546875 475.15625 C 326.457031 475.671875 325.359375 476.15625 324.246094 476.617188 C 323.136719 477.078125 322.015625 477.511719 320.882812 477.917969 C 319.75 478.320312 318.605469 478.699219 317.457031 479.046875 C 316.304688 479.398438 315.144531 479.71875 313.976562 480.011719 C 312.8125 480.300781 311.636719 480.566406 310.457031 480.800781 C 309.277344 481.035156 308.09375 481.242188 306.902344 481.417969 C 305.714844 481.59375 304.519531 481.742188 303.324219 481.859375 C 302.125 481.976562 300.925781 482.066406 299.726562 482.125 C 298.523438 482.183594 297.320312 482.210938 296.117188 482.210938 C 294.914062 482.210938 293.714844 482.183594 292.511719 482.125 C 291.308594 482.066406 290.109375 481.976562 288.914062 481.859375 C 287.714844 481.742188 286.523438 481.59375 285.332031 481.417969 C 284.144531 481.242188 282.957031 481.035156 281.777344 480.800781 C 280.597656 480.566406 279.425781 480.300781 278.257812 480.011719 C 277.089844 479.71875 275.933594 479.398438 274.78125 479.046875 C 273.628906 478.699219 272.488281 478.320312 271.355469 477.917969 C 270.222656 477.511719 269.101562 477.078125 267.988281 476.617188 C 266.878906 476.15625 265.777344 475.671875 264.691406 475.15625 C 263.605469 474.640625 262.53125 474.101562 261.46875 473.535156 C 260.40625 472.964844 259.363281 472.375 258.328125 471.753906 C 257.296875 471.136719 256.28125 470.492188 255.28125 469.824219 C 254.28125 469.15625 253.296875 468.464844 252.332031 467.75 C 251.367188 467.03125 250.417969 466.292969 249.488281 465.527344 C 248.558594 464.765625 247.648438 463.980469 246.757812 463.171875 C 245.863281 462.363281 244.992188 461.535156 244.144531 460.683594 C 243.292969 459.835938 242.464844 458.964844 241.65625 458.074219 C 240.847656 457.179688 240.0625 456.269531 239.300781 455.339844 C 238.535156 454.410156 237.796875 453.460938 237.078125 452.496094 C 236.363281 451.53125 235.671875 450.546875 235.003906 449.546875 C 234.335938 448.546875 233.691406 447.53125 233.070312 446.5 C 232.453125 445.46875 231.859375 444.421875 231.292969 443.359375 C 230.726562 442.300781 230.1875 441.226562 229.671875 440.136719 C 229.15625 439.050781 228.671875 437.953125 228.210938 436.839844 C 227.75 435.730469 227.316406 434.605469 226.910156 433.472656 C 226.507812 432.339844 226.128906 431.199219 225.78125 430.046875 C 225.429688 428.898438 225.109375 427.738281 224.816406 426.570312 C 224.523438 425.40625 224.261719 424.230469 224.027344 423.050781 C 223.792969 421.871094 223.585938 420.6875 223.410156 419.496094 C 223.234375 418.308594 223.085938 417.113281 222.96875 415.917969 C 222.851562 414.71875 222.761719 413.519531 222.703125 412.320312 C 222.644531 411.117188 222.613281 409.914062 222.613281 408.714844 C 222.613281 407.511719 222.644531 406.308594 222.703125 405.105469 C 222.761719 403.90625 222.851562 402.707031 222.96875 401.507812 C 223.085938 400.3125 223.234375 399.117188 223.410156 397.929688 C 223.585938 396.738281 223.792969 395.554688 224.027344 394.375 C 224.261719 393.195312 224.523438 392.019531 224.816406 390.855469 C 225.109375 389.6875 225.429688 388.527344 225.78125 387.378906 C 226.128906 386.226562 226.507812 385.085938 226.910156 383.953125 C 227.316406 382.820312 227.75 381.695312 228.210938 380.585938 C 228.671875 379.472656 229.15625 378.375 229.671875 377.289062 C 230.1875 376.199219 230.726562 375.125 231.292969 374.066406 C 231.859375 373.003906 232.453125 371.957031 233.070312 370.925781 C 233.691406 369.894531 234.335938 368.878906 235.003906 367.878906 C 235.671875 366.878906 236.363281 365.894531 237.078125 364.929688 C 237.796875 363.964844 238.535156 363.015625 239.300781 362.085938 C 240.0625 361.15625 240.847656 360.246094 241.65625 359.355469 C 242.464844 358.460938 243.292969 357.589844 244.144531 356.742188 C 244.992188 355.890625 245.863281 355.0625 246.757812 354.253906 C 247.648438 353.445312 248.558594 352.660156 249.488281 351.898438 C 250.417969 351.132812 251.367188 350.394531 252.332031 349.675781 C 253.296875 348.960938 254.28125 348.269531 255.28125 347.601562 C 256.28125 346.933594 257.296875 346.289062 258.328125 345.671875 C 259.363281 345.050781 260.40625 344.460938 261.46875 343.890625 C 262.53125 343.324219 263.605469 342.785156 264.691406 342.269531 C 265.777344 341.753906 266.878906 341.269531 267.988281 340.808594 C 269.101562 340.347656 270.222656 339.914062 271.355469 339.511719 C 272.488281 339.105469 273.628906 338.726562 274.78125 338.378906 C 275.933594 338.027344 277.089844 337.707031 278.257812 337.417969 C 279.425781 337.125 280.597656 336.859375 281.777344 336.625 C 282.957031 336.390625 284.144531 336.183594 285.332031 336.007812 C 286.523438 335.832031 287.714844 335.683594 288.914062 335.566406 C 290.109375 335.449219 291.308594 335.359375 292.511719 335.300781 C 293.714844 335.242188 294.914062 335.214844 296.117188 335.214844 C 297.320312 335.214844 298.523438 335.242188 299.726562 335.300781 C 300.925781 335.359375 302.125 335.449219 303.324219 335.566406 C 304.519531 335.683594 305.714844 335.832031 306.902344 336.007812 C 308.09375 336.183594 309.277344 336.390625 310.457031 336.625 C 311.636719 336.859375 312.8125 337.125 313.976562 337.417969 C 315.144531 337.707031 316.304688 338.027344 317.457031 338.378906 C 318.605469 338.726562 319.75 339.105469 320.882812 339.511719 C 322.015625 339.914062 323.136719 340.347656 324.246094 340.808594 C 325.359375 341.269531 326.457031 341.753906 327.546875 342.269531 C 328.632812 342.785156 329.707031 343.324219 330.769531 343.890625 C 331.828125 344.460938 332.875 345.050781 333.90625 345.671875 C 334.9375 346.289062 335.953125 346.933594 336.953125 347.601562 C 337.957031 348.269531 338.9375 348.960938 339.90625 349.675781 C 340.871094 350.394531 341.820312 351.132812 342.75 351.898438 C 343.679688 352.660156 344.589844 353.445312 345.480469 354.253906 C 346.371094 355.0625 347.242188 355.890625 348.09375 356.742188 C 348.945312 357.589844 349.773438 358.460938 350.582031 359.355469 C 351.390625 360.246094 352.175781 361.15625 352.9375 362.085938 C 353.699219 363.015625 354.441406 363.964844 355.15625 364.929688 C 355.875 365.894531 356.566406 366.878906 357.234375 367.878906 C 357.902344 368.878906 358.546875 369.894531 359.164062 370.925781 C 359.785156 371.957031 360.375 373.003906 360.941406 374.066406 C 361.511719 375.125 362.050781 376.199219 362.566406 377.289062 C 363.078125 378.375 363.566406 379.472656 364.027344 380.585938 C 364.488281 381.695312 364.921875 382.820312 365.324219 383.953125 C 365.730469 385.085938 366.109375 386.226562 366.457031 387.378906 C 366.804688 388.527344 367.128906 389.6875 367.417969 390.855469 C 367.710938 392.019531 367.976562 393.195312 368.210938 394.375 C 368.445312 395.554688 368.648438 396.738281 368.828125 397.929688 C 369.003906 399.117188 369.152344 400.3125 369.269531 401.507812 C 369.386719 402.707031 369.476562 403.90625 369.535156 405.105469 C 369.59375 406.308594 369.621094 407.511719 369.621094 408.714844 Z M 369.621094 408.714844 " fill-opacity="1" fill-rule="nonzero"/><path fill="#e0ebfc" d="M 296.03125 482.367188 C 292.445312 482.367188 288 480.773438 283.507812 475.109375 C 270.550781 458.769531 264.726562 417.128906 270.246094 380.308594 C 274.09375 354.644531 282.359375 338.308594 292.925781 335.488281 C 296.8125 334.449219 302.703125 334.792969 308.671875 342.316406 C 321.628906 358.65625 327.453125 400.296875 321.933594 437.117188 C 318.082031 462.78125 309.820312 479.113281 299.257812 481.9375 C 298.292969 482.191406 297.207031 482.367188 296.03125 482.367188 Z M 296.066406 342.683594 C 295.667969 342.683594 295.273438 342.738281 294.882812 342.839844 C 289.011719 344.410156 281.441406 356.953125 277.769531 381.4375 C 272.699219 415.261719 278.054688 455.996094 289.46875 470.382812 C 292.203125 473.832031 294.839844 475.25 297.292969 474.589844 C 303.167969 473.023438 310.738281 460.480469 314.410156 435.992188 C 319.480469 402.171875 314.125 361.4375 302.710938 347.046875 C 300.410156 344.144531 298.183594 342.683594 296.066406 342.683594 Z M 296.066406 342.683594 " fill-opacity="1" fill-rule="nonzero"/><path fill="#e0ebfc" d="M 296.175781 482.339844 C 288.890625 482.339844 281.628906 480.191406 274.917969 475.964844 C 249.214844 459.761719 237.292969 416.613281 248.34375 379.78125 C 254.640625 358.777344 267.199219 343.378906 282.796875 337.53125 C 294.261719 333.238281 306.542969 334.632812 317.378906 341.460938 C 343.078125 357.664062 355 400.8125 343.957031 437.644531 C 337.65625 458.652344 325.097656 474.046875 309.5 479.894531 C 305.132812 481.527344 300.652344 482.339844 296.175781 482.339844 Z M 296.183594 342.667969 C 292.601562 342.667969 289.011719 343.328125 285.46875 344.65625 C 272.113281 349.660156 261.238281 363.257812 255.628906 381.960938 C 245.496094 415.746094 255.96875 455.027344 278.972656 469.53125 C 287.875 475.140625 297.503906 476.261719 306.828125 472.773438 C 320.183594 467.769531 331.058594 454.171875 336.667969 435.464844 C 346.800781 401.679688 336.328125 362.398438 313.324219 347.898438 C 307.804688 344.421875 302.007812 342.667969 296.183594 342.667969 Z M 296.183594 342.667969 " fill-opacity="1" fill-rule="nonzero"/><path fill="#e0ebfc" d="M 295.96875 482.296875 C 286.113281 482.296875 276.175781 480.328125 266.761719 476.230469 C 255.898438 471.507812 246.601562 464.472656 239.125 455.316406 C 237.8125 453.710938 238.03125 451.347656 239.617188 450.007812 C 260.21875 432.597656 295.367188 426.664062 325.082031 435.570312 C 335.882812 438.808594 345.15625 443.65625 352.648438 449.980469 C 354.230469 451.320312 354.453125 453.683594 353.136719 455.289062 C 338.875 472.765625 317.636719 482.296875 295.96875 482.296875 Z M 247.546875 453.4375 C 253.777344 460.226562 261.242188 465.542969 269.792969 469.261719 C 295.597656 480.484375 325.839844 473.921875 344.707031 453.414062 C 338.601562 448.945312 331.140625 445.328125 322.902344 442.859375 C 296.917969 435.066406 266.605469 439.453125 247.546875 453.4375 Z M 247.546875 453.4375 " fill-opacity="1" fill-rule="nonzero"/><path fill="#e0ebfc" d="M 296.261719 390.867188 C 286.519531 390.867188 276.652344 389.503906 267.210938 386.675781 C 255.324219 383.109375 244.960938 377.386719 237.253906 370.132812 C 235.855469 368.8125 235.660156 366.660156 236.792969 365.113281 C 257.257812 337.226562 293.726562 327.386719 325.480469 341.195312 C 337.417969 346.386719 347.785156 354.671875 355.464844 365.148438 C 356.601562 366.699219 356.402344 368.855469 355 370.167969 C 340.785156 383.527344 318.867188 390.867188 296.261719 390.867188 Z M 245.050781 366.867188 C 251.589844 372.25 259.933594 376.550781 269.398438 379.390625 C 296.507812 387.523438 328.542969 382.238281 347.207031 366.898438 C 340.582031 358.796875 332.085938 352.359375 322.445312 348.167969 C 295.042969 336.253906 263.722656 343.972656 245.050781 366.867188 Z M 245.050781 366.867188 " fill-opacity="1" fill-rule="nonzero"/><path fill="#e0ebfc" d="M 296.101562 482.378906 C 286.132812 482.378906 276.179688 480.328125 266.761719 476.230469 C 248.726562 468.390625 234.820312 453.996094 227.613281 435.695312 C 220.40625 417.398438 220.757812 397.390625 228.597656 379.355469 C 236.4375 361.320312 250.835938 347.417969 269.136719 340.210938 C 287.4375 333 307.445312 333.351562 325.480469 341.195312 C 343.515625 349.039062 357.421875 363.429688 364.628906 381.730469 C 371.835938 400.027344 371.484375 420.039062 363.644531 438.070312 C 355.800781 456.105469 341.40625 470.007812 323.105469 477.214844 C 314.363281 480.660156 305.226562 482.378906 296.101562 482.378906 Z M 296.136719 342.65625 C 287.953125 342.65625 279.765625 344.199219 271.921875 347.285156 C 255.511719 353.75 242.605469 366.214844 235.574219 382.386719 C 228.542969 398.558594 228.226562 416.5 234.691406 432.90625 C 241.152344 449.316406 253.621094 462.222656 269.792969 469.253906 C 285.96875 476.289062 303.910156 476.601562 320.316406 470.136719 C 336.726562 463.671875 349.632812 451.207031 356.667969 435.035156 C 363.699219 418.863281 364.011719 400.921875 357.550781 384.511719 C 351.085938 368.105469 338.621094 355.199219 322.445312 348.164062 C 314.003906 344.496094 305.074219 342.65625 296.136719 342.65625 Z M 296.136719 342.65625 " fill-opacity="1" fill-rule="nonzero"/><g clip-path="url(#id1)"><path fill="#3762cc" d="M 471.011719 691.195312 L 120.347656 691.195312 C 114.753906 691.195312 110.207031 686.648438 110.207031 681.058594 L 110.207031 651.941406 C 110.207031 646.347656 114.753906 641.800781 120.347656 641.800781 L 471.007812 641.800781 C 476.601562 641.800781 481.148438 646.347656 481.148438 651.941406 L 481.148438 681.058594 C 481.152344 686.648438 476.605469 691.195312 471.011719 691.195312 Z M 120.347656 651.9375 L 120.347656 681.054688 L 471.015625 681.054688 L 471.007812 651.9375 Z M 120.347656 651.9375 " fill-opacity="1" fill-rule="nonzero"/></g><path fill="#3762cc" d="M 458.984375 263.542969 L 133.3125 263.542969 C 124.921875 263.542969 118.101562 256.722656 118.101562 248.332031 L 118.101562 212.136719 C 118.101562 203.746094 124.921875 196.925781 133.3125 196.925781 L 458.984375 196.925781 C 467.375 196.925781 474.195312 203.746094 474.195312 212.136719 L 474.195312 248.332031 C 474.195312 256.722656 467.375 263.542969 458.984375 263.542969 Z M 133.3125 207.066406 C 130.515625 207.066406 128.242188 209.339844 128.242188 212.136719 L 128.242188 248.332031 C 128.242188 251.128906 130.515625 253.402344 133.3125 253.402344 L 458.984375 253.402344 C 461.78125 253.402344 464.054688 251.128906 464.054688 248.332031 L 464.054688 212.136719 C 464.054688 209.339844 461.78125 207.066406 458.984375 207.066406 Z M 133.3125 207.066406 " fill-opacity="1" fill-rule="nonzero"/><path fill="#3762cc" d="M 420.21875 630.65625 L 171.132812 630.65625 C 168.460938 630.65625 166.246094 628.582031 166.074219 625.914062 L 142.351562 258.800781 C 142.261719 257.402344 142.753906 256.03125 143.714844 255.007812 C 144.671875 253.984375 146.011719 253.402344 147.414062 253.402344 L 443.945312 253.402344 C 445.347656 253.402344 446.6875 253.984375 447.644531 255.007812 C 448.601562 256.027344 449.09375 257.402344 449.003906 258.800781 L 425.285156 625.914062 C 425.109375 628.582031 422.894531 630.65625 420.21875 630.65625 Z M 175.886719 620.515625 L 415.46875 620.515625 L 438.535156 263.542969 L 152.820312 263.542969 Z M 175.886719 620.515625 " fill-opacity="1" fill-rule="nonzero"/><path fill="#3762cc" d="M 447.597656 651.886719 L 143.761719 651.886719 C 140.960938 651.886719 138.691406 649.617188 138.691406 646.816406 L 138.691406 635.777344 C 138.691406 627.390625 145.511719 620.566406 153.902344 620.566406 L 437.457031 620.566406 C 445.847656 620.566406 452.667969 627.390625 452.667969 635.777344 L 452.667969 646.816406 C 452.667969 649.617188 450.398438 651.886719 447.597656 651.886719 Z M 148.832031 641.746094 L 442.527344 641.746094 L 442.527344 635.777344 C 442.527344 632.980469 440.253906 630.707031 437.457031 630.707031 L 153.902344 630.707031 C 151.105469 630.707031 148.832031 632.980469 148.832031 635.777344 Z M 148.832031 641.746094 " fill-opacity="1" fill-rule="nonzero"/><path fill="#3762cc" d="M 306.710938 207.066406 L 285.527344 207.066406 C 282.730469 207.066406 280.457031 204.792969 280.457031 201.996094 L 280.457031 147.28125 C 280.457031 144.484375 282.730469 142.210938 285.527344 142.210938 L 306.710938 142.210938 C 309.507812 142.210938 311.78125 144.484375 311.78125 147.28125 L 311.78125 201.996094 C 311.78125 204.796875 309.507812 207.066406 306.710938 207.066406 Z M 290.597656 196.925781 L 301.640625 196.925781 L 301.640625 152.351562 L 290.597656 152.351562 Z M 290.597656 196.925781 " fill-opacity="1" fill-rule="nonzero"/><g clip-path="url(#id2)"><path fill="#3762cc" d="M 310.789062 152.351562 L 281.453125 152.351562 C 273.117188 152.351562 266.339844 145.574219 266.339844 137.242188 L 266.339844 96.097656 C 266.339844 85.515625 274.949219 76.90625 285.527344 76.90625 L 306.710938 76.90625 C 317.292969 76.90625 325.898438 85.515625 325.898438 96.097656 L 325.898438 137.238281 C 325.898438 145.570312 319.121094 152.351562 310.789062 152.351562 Z M 285.527344 87.046875 C 280.539062 87.046875 276.480469 91.109375 276.480469 96.097656 L 276.480469 137.238281 C 276.480469 139.980469 278.710938 142.210938 281.453125 142.210938 L 310.789062 142.210938 C 313.53125 142.210938 315.757812 139.980469 315.757812 137.238281 L 315.757812 96.097656 C 315.757812 91.109375 311.699219 87.046875 306.710938 87.046875 Z M 285.527344 87.046875 " fill-opacity="1" fill-rule="nonzero"/></g><path fill="#f9a7a7" d="M 299.25 511.585938 L 643.238281 511.585938 C 648.28125 511.585938 652.367188 515.671875 652.367188 520.710938 L 652.367188 584.597656 C 652.367188 589.636719 648.28125 593.722656 643.238281 593.722656 L 299.25 593.722656 C 294.210938 593.722656 290.121094 589.636719 290.121094 584.597656 L 290.121094 520.710938 C 290.121094 515.671875 294.210938 511.585938 299.25 511.585938 Z M 299.25 511.585938 " fill-opacity="1" fill-rule="nonzero"/><path fill="#6bdddd" d="M 628.914062 593.722656 L 603.558594 593.722656 L 603.558594 511.585938 L 628.914062 511.585938 Z M 628.914062 593.722656 " fill-opacity="1" fill-rule="nonzero"/><path fill="#e0ebfc" d="M 289.4375 609.125 C 272.425781 609.125 258.636719 622.914062 258.636719 639.925781 C 258.636719 656.933594 272.425781 670.726562 289.4375 670.726562 L 583.914062 670.726562 L 583.914062 609.125 Z M 289.4375 609.125 " fill-opacity="1" fill-rule="nonzero"/><path fill="#3762cc" d="M 583.917969 675.796875 L 289.4375 675.796875 C 269.660156 675.796875 253.566406 659.703125 253.566406 639.925781 C 253.566406 620.144531 269.660156 604.054688 289.4375 604.054688 L 583.914062 604.054688 C 586.714844 604.054688 588.984375 606.324219 588.984375 609.125 L 588.984375 670.726562 C 588.988281 673.523438 586.714844 675.796875 583.917969 675.796875 Z M 289.4375 614.195312 C 275.25 614.195312 263.707031 625.734375 263.707031 639.925781 C 263.707031 654.113281 275.25 665.65625 289.4375 665.65625 L 578.84375 665.65625 L 578.84375 614.195312 Z M 289.4375 614.195312 " fill-opacity="1" fill-rule="nonzero"/><path fill="#6bdddd" d="M 593.15625 670.726562 L 289.4375 670.726562 C 272.425781 670.726562 258.636719 656.933594 258.636719 639.925781 C 258.636719 622.914062 272.425781 609.125 289.4375 609.125 L 593.15625 609.125 C 598.257812 609.125 602.398438 605.675781 602.398438 601.421875 C 602.398438 597.171875 598.257812 593.722656 593.15625 593.722656 L 296.78125 593.722656 C 295.128906 593.722656 293.496094 593.792969 291.878906 593.910156 L 291.878906 593.722656 L 286.300781 593.722656 C 260.816406 593.722656 240.15625 614.382812 240.15625 639.867188 C 240.15625 665.351562 260.816406 686.011719 286.300781 686.011719 L 291.878906 686.011719 C 293.113281 686.078125 294.347656 686.125 295.601562 686.125 L 593.15625 686.125 C 598.257812 686.125 602.398438 682.679688 602.398438 678.425781 C 602.398438 674.175781 598.257812 670.726562 593.15625 670.726562 Z M 593.15625 670.726562 " fill-opacity="1" fill-rule="nonzero"/><path fill="#3762cc" d="M 583.917969 675.796875 L 289.4375 675.796875 C 269.660156 675.796875 253.566406 659.703125 253.566406 639.925781 C 253.566406 620.144531 269.660156 604.054688 289.4375 604.054688 L 583.914062 604.054688 C 586.714844 604.054688 588.984375 606.324219 588.984375 609.125 L 588.984375 670.726562 C 588.988281 673.523438 586.714844 675.796875 583.917969 675.796875 Z M 289.4375 614.195312 C 275.25 614.195312 263.707031 625.734375 263.707031 639.925781 C 263.707031 654.113281 275.25 665.65625 289.4375 665.65625 L 578.84375 665.65625 L 578.84375 614.195312 Z M 289.4375 614.195312 " fill-opacity="1" fill-rule="nonzero"/><g clip-path="url(#id3)"><path fill="#3762cc" d="M 593.15625 691.195312 L 295.597656 691.195312 C 294.300781 691.195312 293.011719 691.152344 291.738281 691.082031 L 286.300781 691.082031 C 258.058594 691.082031 235.082031 668.105469 235.082031 639.867188 C 235.082031 611.628906 258.058594 588.652344 286.300781 588.652344 L 291.878906 588.652344 C 292.238281 588.652344 292.585938 588.691406 292.925781 588.761719 C 294.261719 588.6875 295.53125 588.652344 296.78125 588.652344 L 593.15625 588.652344 C 601.046875 588.652344 607.46875 594.382812 607.46875 601.425781 C 607.46875 608.46875 601.050781 614.195312 593.15625 614.195312 L 289.4375 614.195312 C 275.25 614.195312 263.707031 625.738281 263.707031 639.925781 C 263.707031 654.117188 275.25 665.660156 289.4375 665.660156 L 593.15625 665.660156 C 601.046875 665.660156 607.46875 671.386719 607.46875 678.429688 C 607.46875 685.472656 601.050781 691.195312 593.15625 691.195312 Z M 286.300781 598.792969 C 263.652344 598.792969 245.226562 617.21875 245.226562 639.867188 C 245.226562 662.515625 263.652344 680.941406 286.300781 680.941406 L 291.878906 680.941406 C 291.976562 680.941406 292.070312 680.941406 292.164062 680.949219 C 293.300781 681.011719 294.441406 681.054688 295.597656 681.054688 L 593.15625 681.054688 C 595.542969 681.054688 597.328125 679.667969 597.328125 678.425781 C 597.328125 677.183594 595.542969 675.792969 593.15625 675.792969 L 289.4375 675.792969 C 269.65625 675.792969 253.566406 659.699219 253.566406 639.921875 C 253.566406 620.144531 269.660156 604.050781 289.4375 604.050781 L 593.15625 604.050781 C 595.542969 604.050781 597.328125 602.660156 597.328125 601.417969 C 597.328125 600.175781 595.542969 598.789062 593.15625 598.789062 L 296.78125 598.789062 C 295.347656 598.789062 293.863281 598.84375 292.238281 598.960938 C 291.660156 599.003906 291.074219 598.941406 290.523438 598.789062 L 286.300781 598.789062 Z M 286.300781 598.792969 " fill-opacity="1" fill-rule="nonzero"/></g><path fill="#3762cc" d="M 643.238281 598.792969 L 299.253906 598.792969 C 291.421875 598.792969 285.054688 592.425781 285.054688 584.597656 L 285.054688 520.710938 C 285.054688 512.882812 291.421875 506.515625 299.253906 506.515625 L 643.242188 506.515625 C 651.070312 506.515625 657.441406 512.882812 657.441406 520.710938 L 657.441406 584.597656 C 657.4375 592.421875 651.066406 598.792969 643.238281 598.792969 Z M 299.253906 516.65625 C 297.015625 516.65625 295.195312 518.476562 295.195312 520.710938 L 295.195312 584.597656 C 295.195312 586.832031 297.015625 588.652344 299.253906 588.652344 L 643.242188 588.652344 C 645.480469 588.652344 647.300781 586.832031 647.300781 584.597656 L 647.300781 520.710938 C 647.300781 518.476562 645.480469 516.65625 643.242188 516.65625 Z M 299.253906 516.65625 " fill-opacity="1" fill-rule="nonzero"/><path fill="#f9cfcf" d="M 353.320312 541.757812 L 571.347656 541.757812 C 575.546875 541.757812 578.953125 545.164062 578.953125 549.363281 L 578.953125 559.503906 C 578.953125 563.707031 575.546875 567.109375 571.347656 567.109375 L 353.320312 567.109375 C 349.117188 567.109375 345.710938 563.707031 345.710938 559.503906 L 345.710938 549.363281 C 345.710938 545.164062 349.117188 541.757812 353.320312 541.757812 Z M 353.320312 541.757812 " fill-opacity="1" fill-rule="nonzero"/></svg>