<svg xmlns="http://www.w3.org/2000/svg" xmlns:xlink="http://www.w3.org/1999/xlink" width="1024" zoomAndPan="magnify" viewBox="0 0 768 767.999994" height="1024" preserveAspectRatio="xMidYMid meet" version="1.0"><defs><clipPath id="id1"><path d="M 159 76.800781 L 608.976562 76.800781 L 608.976562 691.050781 L 159 691.050781 Z M 159 76.800781 " clip-rule="nonzero"/></clipPath><clipPath id="id2"><path d="M 159 76.800781 L 208 76.800781 L 208 656 L 159 656 Z M 159 76.800781 " clip-rule="nonzero"/></clipPath><clipPath id="id3"><path d="M 177 654 L 608.976562 654 L 608.976562 685 L 177 685 Z M 177 654 " clip-rule="nonzero"/></clipPath></defs><g clip-path="url(#id1)"><path fill="#c8ab37" d="M 190.597656 76.8125 L 586.257812 76.8125 C 598.710938 76.8125 608.734375 86.835938 608.734375 99.28125 L 608.734375 668.601562 C 608.734375 681.050781 598.710938 691.074219 586.257812 691.074219 L 190.597656 691.074219 C 178.148438 691.074219 159.21875 668.910156 159.21875 656.460938 L 159.21875 109 C 159.21875 96.546875 178.148438 76.8125 190.597656 76.8125 Z M 190.597656 76.8125 " fill-opacity="1" fill-rule="evenodd"/></g><g clip-path="url(#id2)"><path fill="#786721" d="M 190.597656 76.8125 C 178.148438 76.8125 159.21875 96.546875 159.21875 109 L 159.21875 655.78125 C 166.839844 648.078125 197.742188 644.402344 207.699219 646.472656 L 207.699219 76.8125 Z M 190.597656 76.8125 " fill-opacity="1" fill-rule="evenodd"/></g><g clip-path="url(#id3)"><path fill="#ffffff" d="M 185.050781 654.726562 C 173.523438 666.285156 177.308594 675.859375 185.050781 684.917969 L 601.734375 684.917969 C 606.046875 680.828125 608.734375 675.042969 608.734375 668.601562 L 608.734375 654.726562 Z M 185.050781 654.726562 " fill-opacity="1" fill-rule="evenodd"/></g><path fill="#ffffff" d="M 359.792969 173.988281 L 386.988281 183.878906 L 386.484375 183.878906 L 386.484375 422.410156 L 386.988281 422.410156 L 359.792969 432.296875 L 451.261719 432.296875 L 424.070312 422.410156 L 423.566406 422.410156 L 423.566406 183.878906 L 424.070312 183.878906 L 451.261719 173.988281 Z M 285.859375 177.699219 C 285.859375 177.699219 286.089844 177.808594 286.320312 177.925781 C 286.027344 177.765625 285.859375 177.699219 285.859375 177.699219 Z M 286.320312 177.925781 C 289.488281 179.628906 308.421875 192.59375 311.816406 260.503906 C 315.527344 334.660156 377.714844 316.117188 377.714844 316.117188 C 377.714844 316.117188 332.625 322.371094 336.539062 260.503906 C 340 205.796875 290.980469 180.226562 286.320312 177.925781 Z M 524.191406 177.699219 C 524.191406 177.699219 524.019531 177.765625 523.726562 177.925781 C 523.960938 177.808594 524.191406 177.699219 524.191406 177.699219 Z M 523.726562 177.925781 C 519.066406 180.230469 470.050781 205.800781 473.511719 260.503906 C 477.425781 322.371094 432.332031 316.117188 432.332031 316.117188 C 432.332031 316.117188 494.523438 334.660156 498.230469 260.503906 C 501.628906 192.601562 520.558594 179.632812 523.726562 177.925781 Z M 523.726562 177.925781 " fill-opacity="1" fill-rule="evenodd"/><path fill="#ffffff" d="M 242.160156 540.886719 L 242.160156 500.199219 L 252.988281 500.199219 C 257.023438 500.199219 259.660156 500.394531 260.898438 500.785156 C 262.875 501.414062 264.507812 502.753906 265.789062 504.808594 C 267.078125 506.867188 267.722656 509.511719 267.722656 512.742188 C 267.722656 515.6875 267.164062 518.15625 266.050781 520.148438 C 264.941406 522.136719 263.558594 523.53125 261.894531 524.332031 C 260.226562 525.136719 257.359375 525.535156 253.292969 525.535156 L 248.875 525.535156 L 248.875 540.886719 Z M 248.875 507.085938 L 248.875 518.632812 L 252.597656 518.632812 C 255.097656 518.632812 256.792969 518.457031 257.691406 518.109375 C 258.589844 517.753906 259.324219 517.117188 259.894531 516.203125 C 260.46875 515.289062 260.753906 514.164062 260.753906 512.832031 C 260.753906 511.480469 260.460938 510.34375 259.867188 509.417969 C 259.273438 508.492188 258.542969 507.871094 257.671875 507.554688 C 256.804688 507.242188 254.96875 507.085938 252.152344 507.085938 Z M 248.875 507.085938 " fill-opacity="1" fill-rule="nonzero"/><path fill="#ffffff" d="M 271.554688 527.648438 L 278.128906 526.871094 C 278.871094 532.070312 281.292969 534.667969 285.398438 534.667969 C 287.433594 534.667969 289.035156 534.136719 290.203125 533.074219 C 291.371094 532.011719 291.953125 530.691406 291.953125 529.117188 C 291.953125 528.191406 291.75 527.40625 291.339844 526.761719 C 290.933594 526.117188 290.3125 525.582031 289.476562 525.167969 C 288.644531 524.75 286.632812 524.050781 283.433594 523.066406 C 280.5625 522.203125 278.460938 521.261719 277.128906 520.242188 C 275.796875 519.222656 274.738281 517.886719 273.949219 516.230469 C 273.164062 514.574219 272.773438 512.792969 272.773438 510.886719 C 272.773438 508.664062 273.277344 506.667969 274.285156 504.890625 C 275.296875 503.113281 276.6875 501.773438 278.460938 500.867188 C 280.238281 499.960938 282.429688 499.507812 285.042969 499.507812 C 288.960938 499.507812 292.023438 500.574219 294.230469 502.703125 C 296.429688 504.832031 297.597656 507.871094 297.730469 511.828125 L 290.976562 512.191406 C 290.683594 510.007812 290.042969 508.480469 289.058594 507.609375 C 288.082031 506.738281 286.6875 506.304688 284.875 506.304688 C 283.058594 506.304688 281.664062 506.6875 280.679688 507.449219 C 279.703125 508.207031 279.214844 509.148438 279.214844 510.273438 C 279.214844 511.386719 279.65625 512.324219 280.546875 513.082031 C 281.433594 513.839844 283.476562 514.671875 286.675781 515.578125 C 290.066406 516.554688 292.511719 517.585938 294.019531 518.671875 C 295.527344 519.753906 296.679688 521.152344 297.472656 522.867188 C 298.269531 524.574219 298.671875 526.652344 298.671875 529.089844 C 298.671875 532.625 297.582031 535.597656 295.40625 538 C 293.234375 540.40625 289.835938 541.605469 285.210938 541.605469 C 277.03125 541.605469 272.476562 536.957031 271.554688 527.648438 Z M 271.554688 527.648438 " fill-opacity="1" fill-rule="nonzero"/><path fill="#ffffff" d="M 313.097656 540.886719 L 313.097656 523.761719 L 300.890625 500.199219 L 308.773438 500.199219 L 316.625 516.296875 L 324.34375 500.199219 L 332.085938 500.199219 L 319.816406 523.820312 L 319.816406 540.886719 Z M 313.097656 540.886719 " fill-opacity="1" fill-rule="nonzero"/><path fill="#ffffff" d="M 356.792969 525.925781 L 363.3125 528.449219 C 362.292969 533.003906 360.601562 536.332031 358.230469 538.429688 C 355.863281 540.53125 352.949219 541.578125 349.488281 541.578125 C 345.140625 541.578125 341.617188 539.90625 338.914062 536.558594 C 335.804688 532.695312 334.25 527.476562 334.25 520.90625 C 334.25 513.96875 335.8125 508.535156 338.941406 504.613281 C 341.660156 501.210938 345.316406 499.507812 349.90625 499.507812 C 353.644531 499.507812 356.769531 500.785156 359.289062 503.335938 C 361.082031 505.148438 362.394531 507.839844 363.226562 511.410156 L 356.570312 513.355469 C 356.140625 511.152344 355.292969 509.464844 354.023438 508.289062 C 352.757812 507.113281 351.265625 506.527344 349.542969 506.527344 C 347.082031 506.527344 345.074219 507.601562 343.519531 509.75 C 341.964844 511.894531 341.191406 515.4375 341.191406 520.375 C 341.191406 525.503906 341.945312 529.152344 343.464844 531.316406 C 344.980469 533.480469 346.953125 534.5625 349.382812 534.5625 C 351.152344 534.5625 352.6875 533.875 353.984375 532.496094 C 355.28125 531.113281 356.214844 528.925781 356.792969 525.925781 Z M 356.792969 525.925781 " fill-opacity="1" fill-rule="nonzero"/><path fill="#ffffff" d="M 369.082031 540.886719 L 369.082031 500.199219 L 375.796875 500.199219 L 375.796875 516.214844 L 389.007812 516.214844 L 389.007812 500.199219 L 395.753906 500.199219 L 395.753906 540.886719 L 389.007812 540.886719 L 389.007812 523.101562 L 375.796875 523.101562 L 375.796875 540.886719 Z M 369.082031 540.886719 " fill-opacity="1" fill-rule="nonzero"/><path fill="#ffffff" d="M 401.359375 520.792969 C 401.359375 515.949219 402.074219 511.957031 403.507812 508.820312 C 404.941406 505.683594 406.816406 503.351562 409.125 501.816406 C 411.441406 500.277344 414.246094 499.507812 417.539062 499.507812 C 422.3125 499.507812 426.203125 501.332031 429.210938 504.976562 C 432.21875 508.621094 433.726562 513.8125 433.726562 520.542969 C 433.726562 527.355469 432.132812 532.671875 428.949219 536.5 C 426.15625 539.886719 422.363281 541.578125 417.574219 541.578125 C 412.742188 541.578125 408.929688 539.90625 406.136719 536.558594 C 402.953125 532.730469 401.359375 527.472656 401.359375 520.792969 Z M 408.296875 520.515625 C 408.296875 525.195312 409.1875 528.707031 410.964844 531.046875 C 412.742188 533.390625 414.941406 534.5625 417.574219 534.5625 C 420.214844 534.5625 422.40625 533.402344 424.148438 531.082031 C 425.886719 528.757812 426.761719 525.191406 426.761719 520.375 C 426.761719 515.660156 425.910156 512.175781 424.214844 509.917969 C 422.523438 507.65625 420.308594 506.527344 417.574219 506.527344 C 414.832031 506.527344 412.597656 507.667969 410.875 509.945312 C 409.15625 512.21875 408.296875 515.742188 408.296875 520.515625 Z M 408.296875 520.515625 " fill-opacity="1" fill-rule="nonzero"/><path fill="#ffffff" d="M 439.191406 540.886719 L 439.191406 500.535156 L 445.90625 500.535156 L 445.90625 534.03125 L 462.671875 534.03125 L 462.671875 540.886719 Z M 439.191406 540.886719 " fill-opacity="1" fill-rule="nonzero"/><path fill="#ffffff" d="M 466.195312 520.792969 C 466.195312 515.949219 466.910156 511.957031 468.34375 508.820312 C 469.777344 505.683594 471.648438 503.351562 473.960938 501.816406 C 476.277344 500.277344 479.082031 499.507812 482.375 499.507812 C 487.148438 499.507812 491.039062 501.332031 494.046875 504.976562 C 497.054688 508.621094 498.5625 513.8125 498.5625 520.542969 C 498.5625 527.355469 496.96875 532.671875 493.78125 536.5 C 490.992188 539.886719 487.199219 541.578125 482.410156 541.578125 C 477.574219 541.578125 473.761719 539.90625 470.972656 536.558594 C 467.785156 532.730469 466.195312 527.472656 466.195312 520.792969 Z M 473.132812 520.515625 C 473.132812 525.195312 474.023438 528.707031 475.800781 531.046875 C 477.574219 533.390625 479.777344 534.5625 482.410156 534.5625 C 485.050781 534.5625 487.242188 533.402344 488.984375 531.082031 C 490.722656 528.757812 491.59375 525.191406 491.59375 520.375 C 491.59375 515.660156 490.746094 512.175781 489.050781 509.917969 C 487.359375 507.65625 485.144531 506.527344 482.410156 506.527344 C 479.664062 506.527344 477.433594 507.667969 475.710938 509.945312 C 473.992188 512.21875 473.132812 515.742188 473.132812 520.515625 Z M 473.132812 520.515625 " fill-opacity="1" fill-rule="nonzero"/><path fill="#ffffff" d="M 519.378906 525.925781 L 519.378906 519.078125 L 533.890625 519.078125 L 533.890625 535.28125 C 532.429688 537 530.359375 538.480469 527.675781 539.722656 C 524.992188 540.960938 522.300781 541.578125 519.601562 541.578125 C 516.304688 541.578125 513.402344 540.769531 510.882812 539.152344 C 508.367188 537.53125 506.371094 535.109375 504.902344 531.882812 C 503.429688 528.652344 502.695312 524.855469 502.695312 520.488281 C 502.695312 516.011719 503.4375 512.183594 504.929688 509.003906 C 506.417969 505.816406 508.351562 503.441406 510.730469 501.867188 C 513.105469 500.292969 515.953125 499.507812 519.265625 499.507812 C 523.242188 499.507812 526.433594 500.523438 528.828125 502.546875 C 531.222656 504.574219 532.761719 507.546875 533.445312 511.472656 L 526.789062 512.992188 C 526.285156 510.902344 525.367188 509.304688 524.035156 508.195312 C 522.703125 507.082031 521.113281 506.527344 519.265625 506.527344 C 516.398438 506.527344 514.074219 507.640625 512.296875 509.871094 C 510.519531 512.101562 509.632812 515.5 509.632812 520.074219 C 509.632812 524.976562 510.59375 528.703125 512.519531 531.257812 C 514.164062 533.460938 516.398438 534.5625 519.210938 534.5625 C 520.523438 534.5625 521.890625 534.25 523.300781 533.632812 C 524.71875 533.011719 525.984375 532.160156 527.089844 531.089844 L 527.089844 525.925781 Z M 519.378906 525.925781 " fill-opacity="1" fill-rule="nonzero"/><path fill="#ffffff" d="M 548.90625 540.886719 L 548.90625 523.761719 L 536.695312 500.199219 L 544.578125 500.199219 L 552.429688 516.296875 L 560.152344 500.199219 L 567.890625 500.199219 L 555.621094 523.820312 L 555.621094 540.886719 Z M 548.90625 540.886719 " fill-opacity="1" fill-rule="nonzero"/></svg>