<svg xmlns="http://www.w3.org/2000/svg" xmlns:xlink="http://www.w3.org/1999/xlink" width="500" zoomAndPan="magnify" viewBox="0 0 375 374.999991" height="500" preserveAspectRatio="xMidYMid meet" version="1.0"><defs><clipPath id="e36cdd06d9"><path d="M 41.863281 99 L 144 99 L 144 276 L 41.863281 276 Z M 41.863281 99 " clip-rule="nonzero"/></clipPath><clipPath id="8711ad448e"><path d="M 329.226562 160.425781 L 190.617188 160.425781 L 190.617188 217.953125 L 270.402344 217.953125 C 262.964844 254.5 231.863281 275.480469 190.617188 275.480469 C 141.933594 275.480469 102.71875 236.226562 102.71875 187.5 C 102.71875 138.769531 141.933594 99.519531 190.617188 99.519531 C 211.578125 99.519531 230.511719 106.960938 245.386719 119.144531 L 288.660156 75.832031 C 262.289062 52.820312 228.480469 38.609375 190.617188 38.609375 C 108.125 38.609375 41.863281 104.933594 41.863281 187.5 C 41.863281 270.066406 108.125 336.390625 190.617188 336.390625 C 264.992188 336.390625 332.609375 282.246094 332.609375 187.5 C 332.609375 178.699219 331.257812 169.226562 329.226562 160.425781 Z M 329.226562 160.425781 " clip-rule="nonzero"/></clipPath><clipPath id="d1f3ccf7df"><path d="M 41.863281 38 L 332.609375 38 L 332.609375 188 L 41.863281 188 Z M 41.863281 38 " clip-rule="nonzero"/></clipPath><clipPath id="982462d822"><path d="M 329.226562 160.425781 L 190.617188 160.425781 L 190.617188 217.953125 L 270.402344 217.953125 C 262.964844 254.5 231.863281 275.480469 190.617188 275.480469 C 141.933594 275.480469 102.71875 236.226562 102.71875 187.5 C 102.71875 138.769531 141.933594 99.519531 190.617188 99.519531 C 211.578125 99.519531 230.511719 106.960938 245.386719 119.144531 L 288.660156 75.832031 C 262.289062 52.820312 228.480469 38.609375 190.617188 38.609375 C 108.125 38.609375 41.863281 104.933594 41.863281 187.5 C 41.863281 270.066406 108.125 336.390625 190.617188 336.390625 C 264.992188 336.390625 332.609375 282.246094 332.609375 187.5 C 332.609375 178.699219 331.257812 169.226562 329.226562 160.425781 Z M 329.226562 160.425781 " clip-rule="nonzero"/></clipPath><clipPath id="d0d0a0ed85"><path d="M 41.863281 38 L 332.609375 38 L 332.609375 336.390625 L 41.863281 336.390625 Z M 41.863281 38 " clip-rule="nonzero"/></clipPath><clipPath id="9b20c4da25"><path d="M 329.226562 160.425781 L 190.617188 160.425781 L 190.617188 217.953125 L 270.402344 217.953125 C 262.964844 254.5 231.863281 275.480469 190.617188 275.480469 C 141.933594 275.480469 102.71875 236.226562 102.71875 187.5 C 102.71875 138.769531 141.933594 99.519531 190.617188 99.519531 C 211.578125 99.519531 230.511719 106.960938 245.386719 119.144531 L 288.660156 75.832031 C 262.289062 52.820312 228.480469 38.609375 190.617188 38.609375 C 108.125 38.609375 41.863281 104.933594 41.863281 187.5 C 41.863281 270.066406 108.125 336.390625 190.617188 336.390625 C 264.992188 336.390625 332.609375 282.246094 332.609375 187.5 C 332.609375 178.699219 331.257812 169.226562 329.226562 160.425781 Z M 329.226562 160.425781 " clip-rule="nonzero"/></clipPath><clipPath id="84e5fed797"><path d="M 116 99 L 332.609375 99 L 332.609375 336.390625 L 116 336.390625 Z M 116 99 " clip-rule="nonzero"/></clipPath><clipPath id="3c9238eaf7"><path d="M 329.226562 160.425781 L 190.617188 160.425781 L 190.617188 217.953125 L 270.402344 217.953125 C 262.964844 254.5 231.863281 275.480469 190.617188 275.480469 C 141.933594 275.480469 102.71875 236.226562 102.71875 187.5 C 102.71875 138.769531 141.933594 99.519531 190.617188 99.519531 C 211.578125 99.519531 230.511719 106.960938 245.386719 119.144531 L 288.660156 75.832031 C 262.289062 52.820312 228.480469 38.609375 190.617188 38.609375 C 108.125 38.609375 41.863281 104.933594 41.863281 187.5 C 41.863281 270.066406 108.125 336.390625 190.617188 336.390625 C 264.992188 336.390625 332.609375 282.246094 332.609375 187.5 C 332.609375 178.699219 331.257812 169.226562 329.226562 160.425781 Z M 329.226562 160.425781 " clip-rule="nonzero"/></clipPath></defs><g clip-path="url(#e36cdd06d9)"><g clip-path="url(#8711ad448e)"><path fill="#fbbc05" d="M 28.339844 275.480469 L 28.339844 99.519531 L 143.285156 187.5 Z M 28.339844 275.480469 " fill-opacity="1" fill-rule="nonzero"/></g></g><g clip-path="url(#d1f3ccf7df)"><g clip-path="url(#982462d822)"><path fill="#ea4335" d="M 28.339844 99.519531 L 143.285156 187.5 L 190.617188 146.214844 L 352.894531 119.820312 L 352.894531 25.070312 L 28.339844 25.070312 Z M 28.339844 99.519531 " fill-opacity="1" fill-rule="nonzero"/></g></g><g clip-path="url(#d0d0a0ed85)"><g clip-path="url(#9b20c4da25)"><path fill="#34a853" d="M 28.339844 275.480469 L 231.1875 119.820312 L 284.601562 126.589844 L 352.894531 25.070312 L 352.894531 349.925781 L 28.339844 349.925781 Z M 28.339844 275.480469 " fill-opacity="1" fill-rule="nonzero"/></g></g><g clip-path="url(#84e5fed797)"><g clip-path="url(#3c9238eaf7)"><path fill="#4285f4" d="M 352.894531 349.925781 L 143.285156 187.5 L 116.242188 167.195312 L 352.894531 99.519531 Z M 352.894531 349.925781 " fill-opacity="1" fill-rule="nonzero"/></g></g></svg>