<svg xmlns="http://www.w3.org/2000/svg" xmlns:xlink="http://www.w3.org/1999/xlink" width="500" zoomAndPan="magnify" viewBox="0 0 375 374.999991" height="500" preserveAspectRatio="xMidYMid meet" version="1.0"><defs><clipPath id="cea45744b9"><path d="M 84.953125 37.5 L 289.703125 37.5 L 289.703125 337.5 L 84.953125 337.5 Z M 84.953125 37.5 " clip-rule="nonzero"/></clipPath></defs><path fill="#f9aa33" d="M 187.5 0 C 83.945312 0 0 83.945312 0 187.5 C 0 291.054688 83.945312 375 187.5 375 C 291.054688 375 375 291.054688 375 187.5 C 375 83.945312 291.054688 0 187.5 0 " fill-opacity="1" fill-rule="nonzero"/><g clip-path="url(#cea45744b9)"><path fill="#344955" d="M 238.074219 115.511719 L 241.851562 114.917969 L 241.851562 193.332031 L 238.074219 193.25 Z M 232.820312 204.398438 C 232.867188 204.398438 247.257812 203.980469 247.257812 203.980469 C 252.425781 203.816406 252.363281 199.695312 252.363281 198.695312 C 252.359375 197.699219 252.363281 108.890625 252.363281 108.890625 C 252.363281 108.890625 252.703125 104.363281 248.15625 103.609375 L 233.863281 100.703125 C 232.324219 100.410156 230.710938 100.792969 229.492188 101.789062 C 228.269531 102.792969 227.5625 104.289062 227.5625 105.867188 L 227.5625 199.132812 C 227.5625 200.554688 228.117188 201.941406 229.152344 202.910156 C 229.835938 203.550781 231.882812 204.398438 232.820312 204.398438 Z M 279.21875 233.734375 L 232.066406 240.582031 C 229.476562 240.957031 227.5625 243.171875 227.5625 245.789062 L 227.5625 311.910156 L 188.070312 324.542969 L 188.070312 50.417969 L 279.21875 79.566406 Z M 177.558594 324.488281 L 95.46875 297.574219 L 95.46875 77.371094 L 177.558594 50.46875 Z M 286.078125 70.699219 L 184.417969 38.191406 C 183.9375 38.046875 182.703125 37.75 181.179688 38.207031 L 88.582031 68.554688 C 86.414062 69.261719 84.953125 71.28125 84.953125 73.558594 L 84.953125 301.394531 C 84.953125 303.667969 86.414062 305.683594 88.582031 306.394531 L 181.179688 336.753906 C 182.925781 337.292969 183.894531 336.933594 184.417969 336.761719 L 234.417969 320.769531 C 236.589844 320.074219 238.074219 318.050781 238.074219 315.757812 L 238.074219 250.34375 L 285.21875 243.496094 C 287.808594 243.121094 289.726562 240.90625 289.726562 238.289062 L 289.726562 75.71875 C 289.726562 73.425781 288.25 71.398438 286.078125 70.699219 " fill-opacity="1" fill-rule="nonzero"/></g></svg>